<svg width="31" height="20" viewBox="0 0 31 20" fill="none" xmlns="http://www.w3.org/2000/svg">
<path d="M22.1372 5.71776C22.1372 5.71706 22.1368 5.71637 22.1368 5.71533C22.1368 5.70668 22.1337 5.69871 22.1316 5.69006C22.1295 5.68105 22.1288 5.67205 22.1254 5.66374C22.125 5.66305 22.125 5.66236 22.1247 5.66132C22.1219 5.65509 22.1167 5.65093 22.1129 5.64539C22.1074 5.63708 22.1025 5.62843 22.0953 5.6215C22.0887 5.61527 22.0811 5.61146 22.0734 5.60696C22.0665 5.60246 22.0603 5.59727 22.0527 5.5945C22.043 5.59069 22.0329 5.58999 22.0229 5.58861C22.0167 5.58757 22.0108 5.5848 22.0042 5.5848C22.0035 5.5848 22.0028 5.58515 22.0018 5.58515C21.9931 5.58515 21.9848 5.58826 21.9765 5.59034C21.9675 5.59242 21.9585 5.59311 21.9502 5.59657C21.9495 5.59692 21.9488 5.59692 21.9478 5.59726L17.322 7.75501L17.3179 7.75709C17.3124 7.75986 17.3085 7.76436 17.3037 7.76747C17.2947 7.77336 17.2853 7.77855 17.2781 7.78617C17.2722 7.7924 17.2687 7.79968 17.2642 7.8066C17.2594 7.81387 17.2538 7.8208 17.2507 7.8291C17.2473 7.83811 17.2466 7.8478 17.2448 7.8575C17.2438 7.86407 17.241 7.87031 17.241 7.87723V10.939C17.241 10.9397 17.2414 10.9404 17.2414 10.9414C17.2414 10.9497 17.2445 10.9577 17.2462 10.9657C17.2483 10.975 17.249 10.9844 17.2528 10.9927C17.2531 10.9934 17.2531 10.9941 17.2531 10.9947C17.2538 10.9965 17.2559 10.9972 17.257 10.9989C17.2666 11.0172 17.2802 11.0321 17.2968 11.0443C17.3013 11.0477 17.3054 11.0508 17.3103 11.0533C17.3293 11.0636 17.3501 11.0713 17.3733 11.0713C17.3927 11.0713 17.4107 11.0668 17.4273 11.0591C17.428 11.0588 17.4287 11.0591 17.4294 11.0588L22.0554 8.90486L22.0603 8.90348C22.0638 8.90209 22.0655 8.89898 22.0686 8.89724C22.0731 8.89482 22.0769 8.8917 22.0811 8.88859C22.0876 8.88374 22.0946 8.87993 22.1001 8.87439C22.106 8.86816 22.1095 8.86089 22.114 8.85397C22.1164 8.85016 22.1198 8.84635 22.1219 8.84219C22.1226 8.84081 22.1243 8.84012 22.125 8.83838C22.1254 8.83769 22.125 8.83735 22.1254 8.83665C22.1261 8.83492 22.1268 8.83319 22.1275 8.83146C22.1306 8.82315 22.1313 8.81449 22.1327 8.80584C22.134 8.79891 22.1365 8.79199 22.1368 8.78506C22.1368 8.78437 22.1372 8.78402 22.1372 8.78333V5.71776ZM21.7819 7.66534V8.65765L20.4988 9.25525L21.7819 7.66534ZM18.6274 10.1271L17.5066 10.6492V10.492L20.6927 6.52345C20.7055 6.50752 20.7044 6.48744 20.7086 6.46874L21.7684 5.97432L18.6274 10.1271ZM17.5066 9.24867V7.96206L19.2329 7.15671L17.5066 9.24867Z" fill="black"/>
<path d="M25.8617 8.13725C25.8548 8.13309 25.8468 8.1324 25.8396 8.12928L25.8409 8.12652L22.568 6.69587V4.84038C22.5808 4.82584 22.5974 4.81511 22.6054 4.79641C22.6466 4.70258 22.6036 4.59283 22.5098 4.55162L12.1521 0.0148882C12.1501 0.0138495 12.1476 0.0141957 12.1456 0.0135032C12.1338 0.00865592 12.1213 0.00796345 12.1089 0.00553979C12.0974 0.00346238 12.0864 0 12.0749 0C12.0649 0 12.0552 0.00380861 12.0448 0.00553979C12.031 0.00796345 12.0171 0.00969463 12.0043 0.0152344C12.0026 0.0159269 12.0005 0.0155806 11.9988 0.0166193L6.53411 2.56596C6.44097 2.60924 6.40081 2.71969 6.44409 2.81282C6.45205 2.83014 6.46764 2.83983 6.47975 2.85299V3.18261L0.106926 6.15574L0.107618 6.15678C0.0446034 6.18655 -6.10352e-05 6.24957 -6.10352e-05 6.32401C-6.10352e-05 6.64809 0.00755613 6.97182 0.0186357 7.29589C0.0186357 7.29866 0.0203669 7.30109 0.0203669 7.30386C0.0203669 7.30801 0.0182895 7.31147 0.0186357 7.31563C0.0657239 8.4634 0.208373 11.9549 2.25394 12.826C2.25463 12.8263 2.25498 12.827 2.25602 12.8274L17.4458 19.4751L17.6088 19.5447L18.3875 19.7431C18.3941 19.7448 18.4007 19.7445 18.4073 19.7455C18.41 19.7459 18.4124 19.7476 18.4152 19.7479C19.5671 19.8601 20.7443 19.9335 22.0133 19.9733C22.5887 19.9913 23.1888 20 23.8497 20C23.8504 20 23.8508 20 23.8515 20L24.797 19.9886C25.1087 19.981 25.4199 19.9733 25.7315 19.9623C28.8137 19.8643 30.3424 18.6507 30.6872 16.0297C30.6903 16.0207 30.699 16.0148 30.7004 16.0048C30.7371 15.7049 30.7381 15.4151 30.7163 15.1233C30.735 15.0976 30.7495 15.0692 30.7533 15.0357L30.7648 14.9325C31.0013 12.5116 29.3518 10.2254 25.8617 8.13725ZM12.0798 0.38917L22.049 4.75556L16.9721 7.1252L6.99945 2.75881L12.0798 0.38917ZM6.74532 2.93712L16.8675 7.3693V12.3454L6.74532 7.91323V2.93712ZM17.0798 7.36791L22.3021 4.93041V9.90375L17.0798 12.3413V7.36791ZM6.61271 8.10366C6.62206 8.10366 6.63037 8.1002 6.63902 8.09847L16.9312 12.6051C16.9451 12.611 16.9596 12.6141 16.9738 12.6141C16.9891 12.6141 17.0043 12.6106 17.0188 12.604L22.4118 10.0869C22.4198 10.0883 22.4267 10.0918 22.435 10.0918C22.5084 10.0918 22.5676 10.0322 22.5676 9.95914V8.0358L25.6858 9.39928C28.4924 11.1339 30.0034 12.9236 30.3046 14.8636C25.4982 15.0235 21.0632 14.4986 16.7581 13.2532C16.3769 13.1459 15.9957 13.031 15.6142 12.9087L1.61686 6.77723L6.47975 4.51077V7.97105C6.47975 8.04446 6.53931 8.10366 6.61271 8.10366ZM15.4951 13.2037C15.4978 13.2048 15.5006 13.2044 15.503 13.2055C15.5058 13.2065 15.5075 13.2086 15.5103 13.2096C15.8977 13.3336 16.2852 13.4502 16.6712 13.5593C20.5048 14.6683 24.4376 15.2122 28.6396 15.2122C29.2309 15.2122 29.8282 15.2008 30.4303 15.1793C30.4237 15.411 30.4095 15.6343 30.386 15.8524C30.3846 15.8535 30.3836 15.8556 30.3822 15.8566C24.8043 15.9248 20.1055 15.3102 15.6138 13.9239L0.389109 7.25469C0.381492 7.03033 0.378722 6.80562 0.376298 6.58126L15.4951 13.2037ZM25.6796 8.46167C28.6281 10.2275 30.2091 12.1165 30.3953 14.0859C29.8511 12.3464 28.346 10.7295 25.8174 9.16869C25.8146 9.16695 25.8115 9.16695 25.8091 9.16557C25.806 9.16384 25.8042 9.16142 25.8011 9.16003L22.568 7.746V7.10166L25.6796 8.46167ZM6.47975 4.2182L1.29313 6.63562L0.604468 6.33405L6.4801 3.5929L6.47975 4.2182Z" fill="black"/>
<path d="M10.3616 6.43791C10.3602 6.43133 10.3602 6.42475 10.3585 6.41817C10.3048 6.14188 10.1923 5.85727 10.0431 5.62044C9.98456 5.52038 9.92362 5.43209 9.86337 5.36042C9.79066 5.27075 9.71103 5.18834 9.6352 5.12394C9.35891 4.87881 9.05734 4.74377 8.78658 4.74377C8.45454 4.74377 8.19036 4.9484 8.04286 5.31991C7.87632 5.73886 7.95319 6.18169 8.04667 6.47807C8.11072 6.68962 8.20802 6.90117 8.32781 7.09195C8.3794 7.17124 8.43099 7.24637 8.48604 7.31319C8.59303 7.44407 8.71421 7.5611 8.84786 7.66255C9.0885 7.83705 9.33536 7.92915 9.56215 7.92915C9.89765 7.92915 10.1622 7.72418 10.3066 7.35301C10.4108 7.08883 10.4288 6.7748 10.3623 6.44587C10.363 6.4431 10.362 6.44103 10.3616 6.43791ZM8.28938 5.41859C8.39706 5.14714 8.56429 5.00968 8.78658 5.00968C8.96316 5.00968 9.1709 5.10005 9.37137 5.25482L8.26099 6.23813C8.19209 5.93483 8.19798 5.64814 8.28938 5.41859ZM8.61588 7.03967L9.88553 5.89501C9.96967 6.05463 10.0365 6.22428 10.0773 6.39844L8.92542 7.38106C8.84198 7.30973 8.76234 7.23287 8.69136 7.14562C8.66505 7.11342 8.64081 7.07533 8.61588 7.03967Z" fill="black"/>
<path d="M15.112 8.56173C15.1057 8.54926 15.0964 8.53991 15.087 8.53056C15.0531 8.34879 14.9994 8.16044 14.9198 7.97555C14.8256 7.77127 14.711 7.58222 14.5878 7.42711C14.4964 7.31458 14.3959 7.21556 14.291 7.13419C14.0327 6.9261 13.7544 6.8115 13.5068 6.8115C13.1734 6.8115 12.9092 7.01578 12.7624 7.38764C12.6464 7.68782 12.6378 8.03995 12.7326 8.40315C12.7326 8.40453 12.7333 8.40557 12.7333 8.40661C12.7357 8.41527 12.7361 8.42358 12.7385 8.43223C12.8105 8.73138 12.9483 9.03088 13.1287 9.27843L13.1294 9.27947L13.154 9.31237C13.1723 9.33695 13.1904 9.36084 13.2066 9.37919C13.3136 9.51145 13.4389 9.63056 13.5681 9.72439C13.8101 9.90201 14.0587 9.99584 14.2869 9.99584C14.6207 9.99584 14.8852 9.79087 15.0316 9.41866C15.1175 9.20019 15.1435 8.94466 15.1123 8.67737C15.1286 8.6424 15.1314 8.60016 15.112 8.56173ZM14.6224 7.98005L13.2676 9.00733C13.1602 8.83664 13.0751 8.64448 13.0186 8.44608L14.2111 7.41707C14.2703 7.47073 14.3277 7.52821 14.3804 7.5933C14.4683 7.70375 14.5493 7.83844 14.6224 7.98005ZM14.2865 9.73131C14.1612 9.73131 14.0185 9.68769 13.8742 9.60701C14.1082 9.43009 14.5819 9.08385 14.8596 8.88199C14.8599 9.04126 14.836 9.19118 14.7848 9.32241C14.6774 9.59386 14.5102 9.73131 14.2865 9.73131Z" fill="black"/>
</svg>
