<svg width="38" height="20" viewBox="0 0 38 20" fill="none" xmlns="http://www.w3.org/2000/svg">
<path d="M0.976387 6.95376C1.02019 6.68781 1.05461 6.40622 1.14534 6.15123C1.33776 5.61467 1.87122 5.13754 2.328 4.82308C2.91307 4.4226 2.93966 4.43355 3.42152 3.74054C4.74655 1.83669 4.69493 1.55667 8.30098 0.862079C12.2401 0.0861471 17.1035 -0.362832 21.0367 0.377137C23.5272 0.844899 26.2694 2.66581 28.2173 4.23958C28.66 4.59782 29.0918 4.97638 29.5235 5.34871C29.6706 5.47543 29.8255 5.6522 29.9913 5.75075C30.3011 5.93535 30.8251 5.99323 33.3985 7.07578C34.9582 7.72657 36.0845 8.27254 37.067 9.72116C37.4112 10.2296 37.6724 10.7771 37.8242 11.3731C38.0729 12.3478 38.0369 14.419 37.8476 15.4232C37.796 15.697 37.6802 15.8894 37.4471 16.0458C37.1374 16.2539 36.7541 16.3947 36.4084 16.5355C34.1572 17.4522 31.5854 17.9966 29.1889 18.3596C26.9253 18.7022 26.5154 18.6928 25.4297 18.4347C24.7492 19.6486 24.2189 19.6142 22.9861 19.8348C21.9224 20.0256 21.417 20.1633 20.4112 19.5861C19.5977 19.1183 18.986 18.2501 18.6935 17.3709C17.5468 17.0596 11.9994 15.6939 9.71708 15.1291C8.92392 14.932 8.12925 14.7474 7.33766 14.5394C6.85115 15.9708 6.54294 15.8362 5.24923 15.9848C4.80025 16.0365 4.26368 16.1522 3.92263 16.0349C3.34694 15.8362 2.90577 15.2527 2.65547 14.7192C2.43646 14.2515 2.3426 13.7509 2.26438 13.244C1.86547 13.0798 1.24127 12.5573 1.07075 12.1536C0.897102 11.7422 0.837654 11.2416 0.77195 10.8005C0.75005 10.655 0.739101 10.5001 0.703121 10.3577V8.83246L0.706249 8.81369C0.77039 8.50081 0.74173 8.41331 0.976387 6.95376ZM28.763 5.33934C27.4348 4.21142 26.0441 3.15235 24.5299 2.28567C24.2029 2.09794 23.8728 1.90083 23.5287 1.7475C21.1883 1.72873 17.0645 2.42644 16.0181 2.76905C17.4933 4.1942 18.5352 6.00105 19.7616 7.62809C20.1355 7.63121 20.5078 7.6672 20.8833 7.66407C21.2697 7.66094 21.6592 7.61714 22.0441 7.58116C24.4485 7.38717 27.3692 6.91315 29.6268 6.09813C29.4046 5.84471 29.0273 5.56461 28.763 5.33934ZM35.9308 9.24871C35.7712 8.84198 35.5678 8.72933 35.1955 8.48688C34.6417 8.12551 34.0504 7.86269 33.4419 7.60614C32.9288 7.38869 32.4172 7.16497 31.8962 6.96785C31.2689 6.73007 30.6244 6.51419 30.0112 6.2451C29.9189 6.22164 29.2994 6.48915 29.1743 6.52982C28.6033 6.71911 28.0104 6.87242 27.4268 7.01008C26.7573 7.16339 26.083 7.29793 25.4057 7.41212C24.7283 7.52632 24.0478 7.62175 23.3657 7.69684C22.621 7.78288 21.8701 7.87675 21.1192 7.9049C20.8126 7.91585 20.5044 7.90647 20.1978 7.90021C20.6812 8.17867 21.3492 8.37422 21.8826 8.58227C23.0856 9.05003 24.6891 9.72584 25.7419 10.4689C26.3677 10.3907 26.959 10.4517 27.5598 10.641C28.1026 10.8068 28.672 11.0806 29.1382 11.4013C29.3916 11.5765 29.631 11.7798 29.8719 11.9723C30.3177 11.9457 30.762 11.8409 31.2016 11.7626C32.8442 11.4717 34.443 11.0477 36.045 10.5925C36.1029 10.1404 36.0997 9.68051 35.9308 9.24871ZM25.1819 11.0431C25.063 11.1573 24.9941 11.3012 24.9973 11.4686C25.002 11.7971 25.1912 12.1021 25.4165 12.329C26.2159 13.1315 27.7537 13.3192 28.8503 13.3192C29.207 13.3192 30.0048 13.3114 30.2817 13.1174C30.3193 13.0924 30.3521 13.0627 30.3537 13.0142C30.3615 12.7529 29.8124 12.2633 29.6153 12.0912C28.7345 11.3231 27.6395 10.8006 26.4709 10.6833C26.4396 10.6801 26.4083 10.677 26.377 10.677C25.9718 10.6582 25.4853 10.749 25.1819 11.0431ZM31.1703 12.0365C31.469 12.4197 31.8007 12.8937 32.2778 12.911C32.7878 12.9282 34.8184 12.5089 35.15 12.1788C35.4082 11.9207 35.4191 11.3857 35.4128 11.0478C35.1141 11.0979 34.773 11.2527 33.6905 11.5077C31.2969 12.049 31.5629 11.9207 31.1703 12.0365ZM37.1711 10.7677C37.1132 10.2984 36.6392 9.72741 36.2825 9.43802L36.2731 9.44897C36.2981 9.64139 36.3435 9.85101 36.3419 10.045C36.3372 10.4533 36.1386 11.1604 36.367 11.4952C36.4061 11.5515 36.4593 11.5953 36.5281 11.6047C36.6642 11.6235 36.7893 11.5343 36.891 11.4576C36.916 11.4342 36.9395 11.4092 36.9614 11.3826C37.1085 11.2089 37.1992 10.9962 37.1711 10.7677ZM18.7726 16.0897C18.9337 17.0017 19.0276 16.8391 19.098 16.9971C19.1715 17.166 19.2169 17.349 19.2888 17.5196C19.5422 18.114 19.9505 18.6882 20.4856 19.0605C21.224 19.5736 21.6886 19.5533 22.5255 19.4062C22.8728 19.3343 23.2279 19.2795 23.5784 19.2169C24.1368 19.1184 24.4794 19.1325 24.9988 18.1876C24.7814 18.0374 24.4716 17.8825 24.3402 17.6432C24.2213 17.4273 24.2151 16.9408 24.1822 16.6873C24.0227 15.4531 23.6691 14.2313 22.8666 13.2535C22.3926 12.6763 21.748 12.2664 20.9956 12.1945C20.4558 12.1569 19.7863 12.4354 19.2951 13.1362C18.7225 13.9513 18.6036 15.1308 18.7726 16.0897ZM3.6544 15.3247C4.0408 15.6267 4.45849 15.5875 4.91372 15.5281C5.2438 15.4937 6.14175 15.4436 6.38112 15.2575C6.6893 15.0181 6.83478 14.5629 6.88641 14.1921C6.69399 14.1405 5.96967 14.0075 5.85549 13.9058C5.77258 13.8323 5.75224 13.2457 5.68967 12.8984C5.53949 12.0677 5.18594 11.0806 4.55394 10.5002C4.22698 10.5393 3.77645 10.6206 3.49331 10.7865C3.36816 10.86 3.25708 10.9726 3.16635 11.0852C2.24492 12.2257 2.65004 14.5394 3.6544 15.3247ZM1.17487 10.2655C1.20459 10.5705 1.4236 12.0504 1.55188 12.2569C1.66295 12.4353 1.89448 12.587 2.05717 12.72C1.97269 12.3774 1.92107 12.0426 1.93984 11.689C1.98833 10.7911 2.5249 9.71167 3.42442 9.63033C3.84369 9.59279 4.25354 9.80554 4.56331 10.0715C4.74947 10.2311 4.89339 10.4172 5.03419 10.6159C5.67088 11.5217 5.93684 12.6199 6.0213 13.7087C6.38424 13.7838 6.73936 13.8964 7.10072 13.9825C8.30685 14.2703 9.50985 14.5691 10.7113 14.8789L18.6973 16.85C18.6441 16.6873 18.5878 16.5246 18.5487 16.3572C18.2906 15.2903 18.3907 14.0372 18.9773 13.0908C19.3027 12.5667 19.833 12.1131 20.4431 11.9754C21.0814 11.8315 21.7447 12.0192 22.2829 12.368C23.561 13.1956 24.1554 14.8835 24.4042 16.315C24.4699 16.6967 24.4683 17.1253 24.5528 17.4867C26.0499 18.3628 27.0996 18.1672 28.8127 17.9122C29.4478 17.8199 30.0799 17.7136 30.7088 17.5931C31.7522 15.1198 31.6787 14.8539 32.0134 14.7053C32.4609 14.5081 32.9615 14.5473 35.5364 13.7291C35.7195 13.6712 36.195 13.46 36.3671 13.5539C36.4985 13.6258 36.5454 13.9184 36.5689 14.0545C36.6252 14.372 36.7144 14.9994 36.5079 15.2763C36.2748 15.586 33.157 16.5184 31.3313 16.7718C31.214 17.0315 31.1076 17.2959 30.9903 17.5556C32.7424 17.2489 34.6916 16.6873 36.3559 16.0553C36.6516 15.9427 37.0802 15.8222 37.3102 15.6032C37.5151 15.4061 37.4979 15.0041 37.5042 14.7413C37.3978 14.8539 37.2914 14.9806 37.1647 15.0713C37.0505 15.1527 36.9159 15.1965 36.8534 15.0745C36.7439 14.8602 36.9613 14.2203 37.0427 13.9982C37.135 13.7432 37.2773 13.3005 37.5401 13.1784C37.5589 12.5558 37.5746 11.855 37.3571 11.2652C37.307 11.3497 37.257 11.4326 37.1928 11.5093C37.0474 11.6798 36.8409 11.8425 36.6093 11.8534C36.4654 11.8597 36.3325 11.8081 36.2292 11.7095C36.0024 11.4952 35.9961 11.1886 35.9883 10.8992C35.8772 10.9164 35.7661 10.9414 35.6551 10.9649C35.6629 11.0932 35.6551 11.2246 35.6504 11.3544C35.6379 11.6892 35.58 12.1319 35.3125 12.3681C34.8697 12.7608 32.8392 13.2019 32.2557 13.1566C31.5783 13.1034 31.2842 12.5605 30.8868 12.0928C30.6334 12.1382 30.3753 12.1648 30.1203 12.1992C30.3565 12.4542 30.6928 12.814 30.5959 13.1503C30.5677 13.2505 30.4801 13.3146 30.3925 13.3631C30.1422 13.4992 29.8184 13.5258 29.5399 13.5492C28.0631 13.6713 25.5883 13.4069 24.9047 12.1022C24.7702 11.8456 24.6904 11.5218 24.7827 11.2418C24.8875 10.9195 25.1222 10.7349 25.4131 10.5941C25.0784 10.3501 24.6951 10.1561 24.3275 9.96526C23.1073 9.3317 21.837 8.85613 20.5573 8.36334C19.5154 7.96286 19.5295 7.77199 18.5972 6.43915C17.269 4.53842 16.82 4.01748 16.1708 3.28848C16.0331 3.13361 15.6968 2.85985 15.6311 2.69557C15.6154 2.6549 15.617 2.64864 15.6326 2.61109C16.0503 2.33576 20.1897 1.71782 20.9142 1.64117C21.5806 1.57077 22.2439 1.54574 22.9135 1.51289C21.0691 0.718176 19.2872 0.577407 17.3115 0.499193C14.2094 0.406894 9.77608 0.963831 7.17736 1.58642C6.53283 1.74129 5.72562 1.90555 5.17965 2.28882C4.54609 2.73312 3.97664 3.92046 3.41973 4.54309C3.11781 4.881 2.72514 5.08907 2.37628 5.36908C1.77555 5.8509 1.53775 6.21229 1.45329 6.96944C1.72393 7.04766 3.56675 7.44189 4.69783 7.75162C4.70878 6.87557 5.01383 6.4 5.45498 5.68506C5.04825 5.57086 4.38025 5.46292 4.12994 5.09215C4.05486 4.98108 4.02201 4.86688 4.05016 4.73391C4.1409 4.30215 4.7995 3.33535 5.09986 2.99117C5.21563 2.85977 5.33921 2.74087 5.48626 2.64545C5.68338 2.51717 6.20745 2.20271 6.44209 2.25279C6.4812 2.28877 6.50467 2.24497 6.42958 2.49683C6.23872 3.13824 6.06038 3.76399 5.94619 4.42571C5.85859 4.92943 5.82104 5.48009 5.77255 5.63184C5.72092 5.78984 5.60516 5.92594 5.51912 6.06672C5.17027 6.63773 4.94187 7.12267 4.96534 7.80789C5.50975 7.98154 6.10262 8.07071 6.6627 8.19273C9.21108 8.76998 10.0292 8.90294 13.4036 9.66638L17.1925 10.5721C17.363 9.88224 17.6071 9.32064 17.6321 9.00306C17.6446 8.84193 17.6212 8.68237 17.5961 8.52437C16.9547 8.48526 16.1913 8.53219 15.5749 8.36637C15.2668 8.28345 15.0853 8.16769 14.9242 7.88611C14.616 7.7766 14.2374 7.72185 13.9152 7.64206C10.6753 6.83642 10.4422 6.86145 10.4047 6.75508C10.3531 6.60333 10.4078 6.32644 10.4203 6.16685C10.5768 4.37878 10.9913 2.26216 11.2385 1.70349C12.149 1.68628 13.984 2.1634 14.8272 2.71094C15.1432 2.91588 15.4295 3.21623 15.697 3.48063C16.207 3.98591 16.6388 4.54911 17.0627 5.12636C18.0858 6.5218 18.0123 6.5906 18.4503 7.33526C18.5739 7.54644 18.7788 7.64657 18.7741 7.92188C18.771 8.09553 18.7194 8.28638 18.5895 8.40839C18.3877 8.59611 18.1077 8.55074 17.8574 8.53979C17.9966 9.29069 17.5899 9.92425 17.4428 10.6376C17.7135 10.6893 18.4284 10.8347 18.6505 10.9411C18.7131 10.9708 18.7491 11.0006 18.7725 11.0678C18.7569 11.1116 18.7413 11.1429 18.7021 11.1711C18.6724 11.193 18.6396 11.1945 18.6052 11.1899C18.4237 11.1711 18.3689 11.1132 17.4209 10.8942C17.349 12.2599 17.4647 13.6131 17.6869 14.9615C17.7182 15.1523 17.9215 15.8438 17.8371 15.9846C17.6478 16.0456 17.1628 15.8563 16.5261 15.7093C13.9199 15.0992 11.3215 14.464 8.72755 13.8038C8.28638 13.6912 7.84525 13.5833 7.40252 13.4769C7.12094 13.4096 6.77209 13.3627 6.51554 13.2328C6.31373 12.7698 6.18702 12.266 5.99459 11.7968C5.56596 10.7486 5.00276 9.76464 4.78222 8.64297C4.74154 8.43804 4.72433 8.22527 4.70087 8.01722C4.19402 7.90302 4.55069 7.94838 1.40315 7.2366C1.3484 7.49629 1.31711 7.76692 1.28112 8.02975C1.17944 8.76972 1.10134 9.51768 1.17487 10.2655ZM31.4392 16.4729L31.4502 16.4901C31.4768 16.4839 32.3763 16.4573 35.2907 15.5171C35.5832 15.4232 35.9305 15.3387 36.1996 15.1901C36.2856 15.1432 36.3326 15.0994 36.356 15.0024C36.4186 14.7427 36.3732 13.9934 36.2293 13.7634C33.9563 14.5518 32.4138 14.7912 32.1196 14.921C31.971 14.9867 31.9365 15.2229 31.8646 15.4044C31.7253 15.7626 31.5847 16.1194 31.4392 16.4729ZM37.4949 13.5851C37.3134 13.7384 37.1335 14.5534 37.1007 14.7959C37.2383 14.688 37.3525 14.5159 37.462 14.3798C37.4636 14.1169 37.4824 13.851 37.4949 13.5851ZM5.53931 5.45051C5.67228 4.46965 5.83185 3.51695 6.13691 2.57362C5.65665 2.75352 5.31247 3.09612 5.02465 3.51226C4.87447 3.72971 4.23618 4.65115 4.30815 4.88579C4.3457 5.00781 4.50682 5.08603 4.61008 5.14235C4.91357 5.27063 5.22489 5.35978 5.53931 5.45051ZM17.1597 10.8306C16.3587 10.6069 15.5327 10.4395 14.7224 10.2455C9.89178 9.10194 7.76081 8.74058 5.03274 8.0898H5.00145C4.95452 8.16176 5.00615 8.34792 5.02492 8.46056C5.22672 9.64478 5.79773 10.6585 6.24358 11.7567C6.4141 12.1775 6.53769 12.6171 6.7129 13.0348L17.5227 15.6942L17.543 15.688C17.5806 15.6176 17.4851 15.3063 17.4679 15.2187C17.2599 14.1893 17.1535 13.0504 17.141 12.0023C17.1347 11.6112 17.1518 11.2201 17.1597 10.8306ZM17.8339 7.50314C17.5977 7.40458 17.5758 7.00253 16.9501 6.81479C16.6153 6.78507 15.6016 6.82261 15.3841 7.04788C15.1948 7.24343 15.1885 7.65797 15.1979 7.91456C15.6422 8.229 16.2539 8.20397 16.7748 8.23057C17.2864 8.2509 17.8089 8.29001 18.3204 8.28532C18.4018 8.22587 18.4644 8.18051 18.5003 8.08351C18.5348 7.98965 18.5332 7.88953 18.4878 7.80036C18.3423 7.50939 18.0748 7.60326 17.8339 7.50314Z" fill="black"/>
<path d="M3.93613 10.9726C5.56464 11.2745 5.59748 15.2573 4.05815 15.1917C3.68583 15.1072 3.42459 14.8491 3.22903 14.5331C2.80508 13.8494 2.69872 12.8983 2.88174 12.1224C3.01784 11.5389 3.35575 10.9569 3.93613 10.9726ZM3.36043 14.3235C3.51061 14.5957 3.71086 14.8132 4.0159 14.9023C4.16452 14.9117 4.27402 14.8992 4.4023 14.8194C4.67138 14.6536 4.80278 14.3063 4.87631 14.0122C5.05622 13.2848 4.96392 12.3978 4.56813 11.7532C4.41951 11.5108 4.23805 11.3308 3.95331 11.2636C3.82191 11.2557 3.72804 11.262 3.61071 11.3261C3.34163 11.4732 3.19301 11.7892 3.11011 12.0724C2.90674 12.7701 3.00845 13.6852 3.36043 14.3235Z" fill="black"/>
<path d="M3.95662 11.4247C4.24759 11.5108 4.44 11.722 4.58081 11.9816C5.11581 12.9641 4.90933 14.3767 4.33207 14.674C4.23821 14.7224 4.14122 14.7303 4.03797 14.7193C3.75951 14.6505 3.58274 14.469 3.43881 14.2296C3.10403 13.6696 3.01017 12.8827 3.1713 12.2538C3.28081 11.8283 3.52956 11.3997 3.95662 11.4247Z" fill="black"/>
<path d="M20.1106 13.6662C20.3656 13.4832 20.6894 13.3752 21.0054 13.3987C21.6296 13.4644 22.0285 13.7288 22.4196 14.2138C23.7853 15.908 23.1439 19.082 21.2322 19.0227C20.5471 18.9148 20.0574 18.4893 19.6913 17.8964C19.2126 17.122 19.028 16.2006 19.1735 15.3026C19.272 14.6722 19.5849 14.0417 20.1106 13.6662ZM19.9432 17.8368C20.2342 18.2921 20.6081 18.6159 21.1431 18.7301C21.4544 18.7473 21.7266 18.7051 21.9847 18.5189C22.9624 17.8134 23.2003 15.7093 22.2475 14.4232C21.9675 14.0446 21.5498 13.738 21.0774 13.6676C20.7989 13.6441 20.5126 13.7427 20.2795 13.8897C19.8368 14.1698 19.5818 14.7189 19.4723 15.2148C19.2799 16.0877 19.4613 17.0859 19.9432 17.8368Z" fill="black"/>
<path d="M20.4623 14.1592C20.7063 14.0184 20.9566 13.9856 21.2335 14.0137C23.2782 14.6473 23.0983 18.6052 21.0661 18.3626C20.5921 18.2452 20.2605 17.9668 20.0086 17.5522C19.361 16.4822 19.4048 14.7709 20.4623 14.1592Z" fill="black"/>
<path d="M27.4236 15.0383C28.3607 15.1525 29.6685 15.3073 30.2912 16.0958C30.568 16.4478 30.5258 16.7168 30.0455 16.8295C29.5074 16.9311 28.1073 17.0594 27.6692 16.7684C27.3814 16.5776 27.2406 16.1959 27.178 15.8705C27.1467 15.7094 27.0623 15.2525 27.1514 15.1071C27.2109 15.0085 27.3079 15.0242 27.4236 15.0383ZM27.4049 15.6671C27.444 15.9581 27.5206 16.3367 27.7709 16.5197C28.2042 16.8373 29.4589 16.659 29.9877 16.576C30.0299 16.5667 30.0862 16.562 30.1253 16.5432C30.1691 16.5229 30.1738 16.501 30.1895 16.4603C30.1848 16.3836 30.166 16.3351 30.1206 16.2726C29.5543 15.4966 28.2981 15.434 27.4283 15.2901C27.408 15.287 27.4221 15.287 27.3908 15.3026C27.3657 15.4137 27.3908 15.5561 27.4049 15.6671Z" fill="black"/>
<path d="M10.1531 5.23608C9.99822 6.39996 10.078 6.51886 9.96537 6.65811C9.85116 6.71912 9.26765 6.54704 8.87814 6.4563C6.60665 5.91974 6.30473 5.92286 6.19211 5.81645C6.14675 5.6475 6.19837 5.42536 6.21871 5.25013C6.30631 4.4038 6.47057 3.55121 6.71775 2.70332C6.7725 2.51402 6.8163 2.3044 6.91173 2.13075C7.27936 1.97744 9.41005 1.55349 10.8195 1.65518C10.9995 1.93207 10.5364 2.2841 10.1531 5.23608Z" fill="black"/>
</svg>
