<svg width="21" height="20" viewBox="0 0 21 20" fill="none" xmlns="http://www.w3.org/2000/svg">
<path fill-rule="evenodd" clip-rule="evenodd" d="M11.5585 1.09072L11.5537 1.09388C11.5506 1.09546 11.5474 1.09705 11.5442 1.09863C11.1629 1.30911 10.9255 1.77434 10.9255 2.43979C10.9255 2.84965 11.0157 3.28722 11.174 3.71528L11.1755 3.71766L11.3314 4.06739C11.3551 4.09271 11.3694 4.12516 11.3726 4.15918L12.9693 7.72685L14.7907 5.80412L14.7915 5.80333C14.9498 5.55884 15.04 5.22492 15.04 4.81427C15.04 3.50317 14.119 1.90796 12.9828 1.25207C12.4297 0.932415 11.928 0.894491 11.5585 1.09072ZM10.9374 3.76206C10.9437 3.77868 10.9508 3.7945 10.9595 3.80954L10.9761 3.84593L5.90183 0.807551L-0.00012207 4.21378V19.3425L5.90021 15.9045L12.9122 20L17.302 17.5756L20.1909 19.3503V4.21453L17.2419 2.48012L16.1492 3.10441C15.7765 1.95393 14.9362 0.838178 13.985 0.289243C13.2081 -0.158594 12.7135 -0.0256751 12.128 0.278166L12.1256 0.278957L11.3581 0.742634C10.9166 0.979223 10.642 1.51094 10.642 2.27528C10.642 2.75319 10.7491 3.26437 10.9374 3.76206ZM11.1257 4.31752C11.1486 4.33097 11.1724 4.33888 11.1969 4.34046L12.849 8.03169V19.5838L6.03087 15.6015V1.26724L11.1257 4.31752ZM13.1766 19.4795L17.0767 17.3256V2.95187L16.2419 3.42899C16.3147 3.72412 16.3542 4.01848 16.3542 4.30253C16.45 5.54399 15.9547 6.37876 15.6928 6.64613L15.6912 6.64772L14.5099 7.69454L13.1766 8.13843L13.1766 19.4795ZM14.3073 7.34415L13.668 7.55779L15.0052 6.1462C15.0139 6.14066 15.0218 6.13354 15.0281 6.12404C15.2164 5.84315 15.3232 5.45623 15.3232 4.97912C15.3232 3.48604 14.2756 1.67093 12.9827 0.923892C12.7437 0.786215 12.5127 0.694434 12.2951 0.645374L12.3252 0.627175C12.8972 0.331257 13.3229 0.235508 13.9852 0.616889C15.127 1.27679 16.0709 2.8418 16.0709 4.14668V4.15459L16.0717 4.1625C16.1603 5.2924 15.7046 6.07257 15.4648 6.31935L14.3073 7.34415ZM0.328282 4.4031L5.70318 1.30071V15.6396L0.328282 18.773V4.4031ZM12.8885 3.51453C12.8474 3.20912 12.9162 2.948 13.0064 2.76997C13.4764 3.05562 13.8531 3.71788 13.8531 4.26384C13.8531 4.49409 13.7866 4.66738 13.6734 4.77182C13.1409 4.31843 12.9368 3.87691 12.8885 3.51453ZM12.9827 2.42736C12.345 2.05943 11.8283 2.35773 11.8283 3.09439C11.8283 3.83024 12.345 4.72594 12.9827 5.09387C13.6204 5.46258 14.1371 5.1635 14.1371 4.42763C14.1371 3.69098 13.6204 2.79608 12.9827 2.42736Z" fill="black"/>
</svg>
