<svg width="42" height="20" viewBox="0 0 42 20" fill="none" xmlns="http://www.w3.org/2000/svg">
<path fill-rule="evenodd" clip-rule="evenodd" d="M40.57 19.9975H0.447772C0.200602 19.9975 0 19.7969 0 19.5497C0 19.3025 0.200602 19.1019 0.447772 19.1019H40.57C40.819 19.1019 41.0178 19.3025 41.0178 19.5497C41.0178 19.7969 40.819 19.9975 40.57 19.9975Z" fill="black"/>
<path fill-rule="evenodd" clip-rule="evenodd" d="M39.2695 19.9974C39.0492 19.9974 38.8575 19.8363 38.8253 19.6124L38.0909 14.4128L35.4777 11.4646L29.4184 7.96662C29.3503 7.92721 29.2948 7.87169 29.2536 7.80184L25.5246 1.3413L21.7382 7.89859C21.688 7.98456 21.6128 8.05083 21.5215 8.08844L14.4305 11.0348L8.08089 19.8113C7.93581 20.0119 7.65461 20.0567 7.45401 19.9116C7.2534 19.7665 7.20863 19.4871 7.35371 19.2865L13.7785 10.4082C13.8268 10.3419 13.8931 10.2882 13.9701 10.2578L21.0377 7.32039L25.1358 0.223885C25.2164 0.0859721 25.3632 0 25.5244 0C25.6838 0 25.8325 0.0859721 25.9131 0.223885L29.9717 7.25207L35.988 10.7268C36.0292 10.7501 36.0668 10.7823 36.099 10.8181L38.8501 13.9221C38.9092 13.9883 38.9468 14.0689 38.9576 14.1567L39.7116 19.4888C39.7457 19.7342 39.5755 19.9599 39.3319 19.9957C39.3104 19.9993 39.2889 20.0011 39.2692 19.9993L39.2695 19.9974Z" fill="black"/>
<path fill-rule="evenodd" clip-rule="evenodd" d="M12.7254 19.9975H1.74614C1.57957 19.9975 1.42733 19.9043 1.35031 19.7574C1.2733 19.6106 1.28404 19.4315 1.37897 19.2954L12.3582 3.44434C12.4406 3.32434 12.5785 3.2509 12.7254 3.2509C12.8723 3.2509 13.0102 3.32254 13.0944 3.44434L17.1601 9.31568C17.3016 9.51986 17.2497 9.79749 17.0473 9.93899C16.8449 10.0805 16.5655 10.0285 16.424 9.82615L12.7254 4.4867L2.6022 19.1038H23.7046C23.9518 19.1038 24.1524 19.3044 24.1524 19.5516C24.1524 19.7988 23.9518 19.9994 23.7046 19.9994H12.7254V19.9975Z" fill="black"/>
<path fill-rule="evenodd" clip-rule="evenodd" d="M16.4295 19.9975C16.313 19.9975 16.1966 19.9527 16.1089 19.8631C15.9369 19.6858 15.9387 19.4028 16.116 19.2291L20.6242 14.8212C20.694 14.7514 20.7854 14.7084 20.8839 14.6976L25.161 14.1872L29.259 7.35063C29.3862 7.13928 29.662 7.06943 29.8733 7.19659C30.0847 7.32376 30.1545 7.59959 30.0274 7.81092L25.8165 14.8354C25.7449 14.9536 25.6231 15.0342 25.4852 15.0504L21.1418 15.5698L16.7428 19.872C16.6568 19.9579 16.5422 19.9991 16.4294 19.9991L16.4295 19.9975Z" fill="black"/>
<path fill-rule="evenodd" clip-rule="evenodd" d="M18.8317 17.6475C18.6347 17.6475 18.452 17.515 18.4001 17.3144L17.6854 14.626L15.2406 13.8934C15.1134 13.8558 15.0113 13.7644 14.9576 13.6444L13.7343 10.8521C13.6357 10.6265 13.7378 10.3614 13.9653 10.2629C14.1928 10.1626 14.4561 10.2664 14.5564 10.4939L15.6973 13.0964L18.1834 13.8415C18.332 13.8862 18.4484 14.0045 18.4879 14.1549L19.2688 17.0851C19.3314 17.3233 19.1899 17.5687 18.9499 17.6332C18.9123 17.6439 18.8729 17.6475 18.8353 17.6475L18.8317 17.6475Z" fill="black"/>
<path fill-rule="evenodd" clip-rule="evenodd" d="M28.7882 19.9974C28.6162 19.9974 28.4532 19.8989 28.3798 19.7342C28.2777 19.5085 28.378 19.2434 28.6037 19.1413L34.1632 16.6392L34.5877 14.5167C34.6253 14.3251 34.7829 14.1818 34.9782 14.1603L38.4672 13.7734C38.7126 13.7465 38.9347 13.9239 38.9616 14.1692C38.9902 14.4146 38.8129 14.6367 38.5657 14.6636L35.4027 15.0146L34.9979 17.0422C34.9692 17.1836 34.8743 17.3036 34.7436 17.3628L28.9726 19.9599C28.9135 19.9867 28.8508 19.9993 28.7899 19.9993L28.7882 19.9974Z" fill="black"/>
<path fill-rule="evenodd" clip-rule="evenodd" d="M27.0237 12.3957C26.9754 12.3957 26.9252 12.3885 26.8751 12.3706L24.681 11.604C24.5538 11.5592 24.4517 11.4607 24.4069 11.3335L23.6027 9.10363L21.1794 8.0881C20.9501 7.99318 20.8426 7.72988 20.9394 7.50244C21.0361 7.27497 21.2976 7.1675 21.5268 7.26243L24.1311 8.3532C24.2475 8.40156 24.337 8.49649 24.3782 8.6147L25.1788 10.8303L27.1724 11.527C27.407 11.6094 27.5288 11.8637 27.4464 12.0966C27.3819 12.281 27.21 12.3975 27.0237 12.3975L27.0237 12.3957Z" fill="black"/>
<path fill-rule="evenodd" clip-rule="evenodd" d="M25.4317 15.0519C25.2364 15.0519 25.0555 14.9229 25 14.7259C24.9337 14.4877 25.0716 14.2405 25.3099 14.1742L29.0282 13.1301L31.43 10.8572C31.5106 10.7802 31.6181 10.7372 31.7292 10.7354L35.7555 10.6673C36.0027 10.6637 36.2069 10.8608 36.2104 11.1079C36.2158 11.3551 36.0188 11.5593 35.7716 11.5629L31.919 11.6291L29.5637 13.8573C29.51 13.9074 29.4455 13.9432 29.3757 13.9629L25.5517 15.0358C25.5105 15.0465 25.4711 15.0519 25.4299 15.0519L25.4317 15.0519Z" fill="black"/>
<path fill-rule="evenodd" clip-rule="evenodd" d="M34.5558 17.4004C34.4895 17.4004 34.4232 17.3861 34.3605 17.3556L31.8781 16.1484C31.8494 16.1341 31.8225 16.118 31.7975 16.0983L28.9801 13.8845C28.7849 13.7323 28.7526 13.4511 28.9049 13.2558C29.0571 13.0606 29.3401 13.0284 29.5336 13.1806L32.3151 15.3657L34.7546 16.5532C34.9767 16.6607 35.068 16.9293 34.9605 17.1514C34.8835 17.3108 34.7241 17.404 34.5576 17.404L34.5558 17.4004Z" fill="black"/>
<path d="M29.5 7.99478L26 14.4948L29 13.4948L31.5 10.9948H35L29.5 7.99478Z" fill="black"/>
<path d="M18.5 1.99478L15 6.49478L17 9.49478L20.5 7.99478L22 6.49478L18.5 1.99478Z" fill="black"/>
<path fill-rule="evenodd" clip-rule="evenodd" d="M14.7551 7.07272C14.6673 7.07272 14.5778 7.04765 14.5008 6.99391C14.2984 6.85242 14.2464 6.5748 14.3861 6.3706L17.9952 1.16228C18.0794 1.04228 18.2155 0.968842 18.3641 0.968842C18.511 0.968842 18.6489 1.04049 18.7313 1.16228L22.3332 6.36189C22.4747 6.56429 22.4228 6.8437 22.2204 6.9852C22.0162 7.1267 21.7386 7.07475 21.5971 6.87236L18.3659 2.20464L15.1258 6.88291C15.0381 7.00829 14.8984 7.07635 14.7569 7.07635L14.7551 7.07272Z" fill="black"/>
<path fill-rule="evenodd" clip-rule="evenodd" d="M5.06011 15.2151C4.88458 15.2151 4.7198 15.113 4.64816 14.9428C4.55144 14.7154 4.65711 14.4521 4.88458 14.3554L9.14202 12.5482L12.0866 8.57016C12.1654 8.4627 12.289 8.39643 12.4215 8.38927C12.5559 8.3821 12.683 8.43404 12.7744 8.53255L14.4723 10.3666C14.6407 10.5475 14.6299 10.8323 14.4472 10.9989C14.2663 11.1672 13.9833 11.1565 13.815 10.9738L12.4842 9.53557L9.78863 13.1769C9.74206 13.2413 9.67758 13.2915 9.60415 13.3219L5.23391 15.1775C5.1766 15.2026 5.11749 15.2133 5.06017 15.2133L5.06011 15.2151Z" fill="black"/>
</svg>
