<svg width="44" height="44" viewBox="0 0 44 44" fill="none" xmlns="http://www.w3.org/2000/svg">
<path fill-rule="evenodd" clip-rule="evenodd" d="M21.385 0.197714C21.5704 -0.0659048 21.9595 -0.0659048 22.1449 0.197714L25.832 5.43184C25.9629 5.61546 26.2047 5.68091 26.4083 5.58637L32.2186 2.8975C32.5113 2.76114 32.8495 2.95749 32.8786 3.27747L33.4549 9.65327C33.4749 9.87871 33.6512 10.0551 33.8767 10.0751L40.2525 10.6514C40.5725 10.6805 40.7688 11.0186 40.6325 11.3114L37.9436 17.1217C37.8491 17.3253 37.9145 17.5671 38.0981 17.698L43.3323 21.385C43.5959 21.5705 43.5959 21.9595 43.3323 22.145L38.0981 25.832C37.9145 25.9629 37.849 26.2047 37.9436 26.4083L40.6325 32.2186C40.7688 32.5113 40.5725 32.8495 40.2525 32.8786L33.8767 33.4549C33.6512 33.4749 33.4749 33.6513 33.4549 33.8767L32.8786 40.2525C32.8495 40.5725 32.5113 40.7689 32.2186 40.6325L26.4083 37.9436C26.2047 37.8491 25.9629 37.9145 25.832 38.0982L22.1449 43.3323C21.9595 43.5959 21.5704 43.5959 21.385 43.3323L17.698 38.0982C17.5671 37.9145 17.3253 37.8491 17.1216 37.9436L11.3113 40.6325C11.0186 40.7689 10.6805 40.5725 10.6514 40.2525L10.075 33.8767C10.055 33.6513 9.87868 33.4749 9.65324 33.4549L3.27744 32.8786C2.95746 32.8495 2.7611 32.5114 2.89747 32.2186L5.58634 26.4083C5.68088 26.2047 5.61543 25.9629 5.43181 25.832L0.197684 22.145C-0.0659353 21.9595 -0.0659353 21.5705 0.197684 21.385L5.43181 17.698C5.61543 17.5671 5.68088 17.3253 5.58634 17.1217L2.89747 11.3114C2.76111 11.0187 2.95746 10.6805 3.27744 10.6514L9.65324 10.0751C9.87868 10.0551 10.055 9.87871 10.075 9.65327L10.6514 3.27747C10.6805 2.95749 11.0186 2.76113 11.3113 2.8975L17.1216 5.58637C17.3253 5.68091 17.5671 5.61546 17.698 5.43184L21.385 0.197714ZM30.6078 14.7296V17.3864C30.6078 17.842 30.9233 18.2277 31.3315 18.4303C31.69 18.6082 32.0209 18.8443 32.3095 19.1329C33.0076 19.831 33.4003 20.7782 33.4003 21.7654C33.4003 22.7525 33.0076 23.6998 32.3095 24.3979C32.0209 24.6864 31.69 24.9225 31.3315 25.1005C30.9234 25.303 30.6078 25.6887 30.6078 26.1444V28.8012C30.6078 30.6902 28.6316 31.9283 26.9317 31.1047L18.0887 26.8177C17.8131 26.6839 17.5685 26.5047 17.3624 26.2914C17.2349 26.1594 17.0309 26.127 16.8659 26.2073C16.7375 26.2698 16.6452 26.395 16.6452 26.5377V29.4448C16.6452 30.3447 15.9162 31.0737 15.0162 31.0737H14.0854C13.1854 31.0737 12.4564 30.3447 12.4564 29.4448V27.0067C12.4564 26.5829 12.172 26.2222 11.8418 25.9565C11.3654 25.573 11.0601 24.9852 11.0601 24.3251V19.2055C11.0601 18.0492 11.9982 17.1111 13.1545 17.1111H15.9471C16.0501 17.1111 16.1515 17.1185 16.2506 17.1329C16.7878 17.2109 17.4019 17.1203 17.8643 16.836C17.9366 16.7916 18.0114 16.7505 18.0887 16.7129L26.9317 12.426C28.6316 11.6024 30.6078 12.8406 30.6078 14.7296ZM14.5508 26.4195C14.1652 26.4195 13.8526 26.7321 13.8526 27.1177V29.4448C13.8526 29.5739 13.9563 29.6775 14.0853 29.6775H15.0162C15.1453 29.6775 15.2489 29.5739 15.2489 29.4448V27.1177C15.2489 26.7321 14.9363 26.4195 14.5508 26.4195ZM31.3223 23.4107C31.0318 23.7012 30.6078 23.4388 30.6078 23.028V20.5026C30.6078 20.0918 31.0318 19.8295 31.3223 20.12C31.7586 20.5563 32.004 21.1472 32.004 21.7653C32.004 22.3816 31.7586 22.9744 31.3223 23.4107ZM16.6451 19.2055V24.3251C16.6451 24.7106 16.3324 25.0233 15.947 25.0233H13.1545C12.7691 25.0233 12.4564 24.7106 12.4564 24.3251V19.2055C12.4564 18.8201 12.7691 18.5074 13.1545 18.5074H15.947C16.3324 18.5074 16.6451 18.8201 16.6451 19.2055ZM18.0414 24.3251V19.0166C18.0414 18.5711 18.2959 18.1639 18.6977 17.9694L27.5408 13.6824C28.3134 13.3079 29.2115 13.8715 29.2115 14.7296V28.8011C29.2115 29.6593 28.3134 30.2229 27.5408 29.8483L18.6977 25.5614C18.296 25.3669 18.0414 24.9596 18.0414 24.5142V24.3251Z" fill="#0EA5E9"/>
</svg>
