<svg width="52" height="21" viewBox="0 0 52 21" fill="none" xmlns="http://www.w3.org/2000/svg">
<path d="M50.2001 18.0266L44.0434 17.8418H44.035C43.9174 17.8418 43.8502 17.8418 43.825 17.8334C43.8082 17.8166 43.7746 17.7495 43.7326 17.6403V17.6319C43.7242 17.6151 43.3379 16.7919 42.8843 15.8176C43.2539 15.6244 43.5478 15.3892 43.7074 15.1877C43.8754 14.9777 44.0098 14.7677 44.119 14.5661L44.6482 14.6669L49.5282 16.7247C49.5366 16.7247 49.5366 16.7331 49.545 16.7331C49.6878 16.7835 49.8306 16.8087 49.9818 16.8087C50.1749 16.8087 50.3681 16.7667 50.5445 16.6827C50.8553 16.5315 51.0905 16.2712 51.2081 15.9436C51.4432 15.2716 51.0905 14.5325 50.4269 14.2889L46.328 12.4327C47.2016 11.6263 47.7559 10.4252 47.7559 9.08973C47.7559 6.67072 45.9501 4.71367 43.7242 4.71367C41.8428 4.71367 40.2553 6.12476 39.8185 8.03141C39.3482 7.15788 38.3571 6.64552 37.3323 6.82191L32.4859 7.66184L30.8732 7.93902C30.2517 8.04821 29.7057 8.39258 29.3362 8.90494C29.059 9.29971 28.9162 9.75328 28.8994 10.2236C27.4967 9.68608 25.8924 9.99686 24.7921 11.0552L24.3553 11.4751L21.0129 10.1648C21.0633 9.75328 21.1053 8.86295 20.8617 7.45186C20.5089 5.39402 19.7871 3.26946 19.7115 3.14347C19.6863 3.09308 19.6443 3.05948 19.6023 3.03428C19.6443 2.37913 19.6779 0.842051 18.9975 0.245698C18.8127 0.0861102 18.502 -0.0818788 18.0232 0.0441114C17.5108 0.170102 17.0405 0.321292 16.5953 0.455681C15.6378 0.758058 14.6383 1.06043 13.0844 1.24522C11.3373 1.4468 7.7004 1.33761 6.21372 1.27882C5.91134 1.27042 5.61736 1.39641 5.43258 1.63999C5.23939 1.88357 5.1806 2.18595 5.25619 2.48832C5.36538 2.88309 5.72656 3.16027 6.13812 3.16027C8.12877 3.16867 12.8492 3.17707 13.8235 3.16027C14.8062 3.14347 16.0158 3.00908 16.4525 2.95869L17.2421 4.0926L17.4936 11.7607C17.5104 11.8867 17.544 12.0211 17.586 12.1387C17.7203 12.5335 18.0227 12.8694 18.4175 13.0458L20.7273 14.1125L17.4684 14.5997C17.376 14.1209 17.1828 13.365 16.7544 12.3403C16.0153 10.5848 14.9574 9.24139 14.5207 8.75423C14.5375 8.28387 14.5375 6.72159 13.7983 6.11684C13.5211 5.88166 13.16 5.81446 12.7652 5.91526C12.194 6.05804 11.6817 6.23443 11.1945 6.41082C10.279 6.72999 9.33827 7.05756 7.85999 7.23395C6.11293 7.43553 2.47601 7.32634 0.989324 7.26755C0.678548 7.25915 0.392971 7.38514 0.208186 7.62872C0.0150008 7.8723 -0.0437943 8.17468 0.0317998 8.47706C0.140991 8.87182 0.502163 9.149 0.913731 9.149C2.45921 9.1574 7.59121 9.1658 8.59913 9.149C9.59025 9.1322 10.8166 8.99781 11.2449 8.94742L12.2444 10.1569L14.4614 17.3211C14.6042 17.6739 14.8394 17.9846 15.1333 18.2282C15.5281 18.539 16.0153 18.7154 16.5192 18.7154C16.5444 18.7154 16.5696 18.7154 16.5948 18.7154L27.1607 18.3206C27.1691 18.3206 27.1775 18.3206 27.1859 18.3206L31.7048 17.7747C31.8308 17.9594 31.9316 18.0434 31.9735 18.0686C32.0155 18.1022 32.0743 18.1106 32.1247 18.1106C32.1331 18.1106 32.1499 18.1106 32.1583 18.1106L34.5774 17.8082C34.6949 17.7915 34.7873 17.7159 34.8209 17.6067C34.8377 17.5311 34.8293 17.4639 34.7957 17.3967L39.3734 16.8423L41.3136 19.7569C41.7252 20.4204 42.4391 20.8152 43.2119 20.8152L50.2253 21H50.2337C51.0485 21 51.7204 20.3365 51.7204 19.5133C51.6784 18.6986 51.0149 18.035 50.2001 18.0266ZM43.2539 14.8433C43.1531 14.9693 42.9263 15.1541 42.6323 15.3136C42.4475 14.9273 42.2712 14.5409 42.0948 14.1797L43.5143 14.4569C43.4471 14.5829 43.3547 14.7089 43.2539 14.8433ZM43.7326 11.3911C44.035 11.3911 44.287 11.6347 44.287 11.9455C44.287 12.0211 44.2702 12.0883 44.245 12.1471C44.1694 11.9959 44.1106 11.9035 44.1022 11.8951C44.0098 11.7691 43.8334 11.7439 43.7158 11.8363C43.5898 11.9287 43.5647 12.1051 43.6486 12.2311C43.657 12.2479 43.7242 12.3403 43.783 12.4999C43.7662 12.4999 43.7494 12.4999 43.7326 12.4999C43.4303 12.4999 43.1783 12.2563 43.1783 11.9455C43.1783 11.6431 43.4303 11.3911 43.7326 11.3911ZM44.4466 12.819V12.8106C44.6902 12.6091 44.8498 12.2983 44.8498 11.9539C44.8498 11.4751 44.5474 11.072 44.1274 10.9124C44.161 10.8872 44.1946 10.862 44.2198 10.8284L44.5642 10.4588C44.7742 10.5848 45.0177 10.652 45.2613 10.652H45.9837C46.2356 10.652 46.4708 10.5428 46.622 10.3664C46.4876 11.5507 45.6057 12.5167 44.4466 12.819ZM44.1526 10.0725L43.8082 10.4336C43.7494 10.5008 43.7158 10.484 43.699 10.4672L43.2119 10.1396C43.4051 9.90446 43.5059 9.60209 43.5059 9.29131V9.07293C43.5059 9.05613 43.5059 9.03933 43.5059 9.02253H43.909C43.909 9.03933 43.909 9.05613 43.909 9.07293V9.29131C43.9006 9.56849 43.9846 9.84567 44.1526 10.0725ZM41.4144 10.652H42.1368C42.3551 10.652 42.5651 10.6016 42.7583 10.5008C42.7751 10.5176 42.7919 10.5344 42.8087 10.5512L43.3463 10.9124C42.9263 11.072 42.6239 11.4751 42.6239 11.9539C42.6239 12.3235 42.8003 12.6427 43.0775 12.8442C41.8596 12.5839 40.9273 11.5843 40.7845 10.358C40.9357 10.5344 41.1624 10.652 41.4144 10.652ZM44.7574 8.2078C44.5222 8.2078 44.3122 8.30019 44.161 8.45138H43.2455C43.0943 8.30019 42.8759 8.2078 42.6491 8.2078H41.448C41.9856 7.57785 42.8003 7.17468 43.7074 7.17468C44.6146 7.17468 45.4293 7.57785 45.9669 8.2078H44.7574ZM43.3967 13.4574C43.4303 13.4574 43.4723 13.4658 43.5059 13.4658C43.5731 13.4658 43.6318 13.4742 43.699 13.4742C43.7662 13.4742 43.825 13.4742 43.8838 13.4658C43.867 13.6086 43.825 13.7682 43.7662 13.9362L41.7924 13.5498C41.6412 13.239 41.5236 12.987 41.4564 12.8442C41.4312 12.7854 41.3976 12.7266 41.364 12.6595C41.9268 13.0962 42.5987 13.3818 43.3295 13.449C43.3547 13.449 43.3799 13.4574 43.3967 13.4574ZM39.6422 11.6095C39.6758 11.4331 39.7177 11.2652 39.7597 11.0972C40.0873 11.5927 40.6837 12.5251 40.9608 13.0794C41.1372 13.449 41.6328 14.4905 42.1116 15.5068C41.8848 15.574 41.6328 15.6076 41.3808 15.5908C40.7341 15.5488 40.1965 15.1709 39.7765 14.4653C39.4322 13.8942 39.3818 12.903 39.6422 11.6095ZM50.2001 14.8181C50.3849 14.8853 50.5361 15.0197 50.6201 15.1961C50.7041 15.3724 50.7125 15.574 50.6537 15.7588C50.5193 16.1368 50.0993 16.3468 49.7214 16.2124L49.2846 16.0276L49.8474 14.6501L50.1833 14.8013C50.1833 14.8097 50.1917 14.8097 50.2001 14.8181ZM49.3266 14.4233L48.7554 15.8092L44.8162 14.1461C44.7994 14.1377 44.7826 14.1293 44.7574 14.1293L44.3206 14.0453C44.3962 13.8102 44.4382 13.5918 44.455 13.3902C44.9337 13.2894 45.3873 13.0962 45.7905 12.8274L49.3266 14.4233ZM43.699 5.26803C45.6141 5.26803 47.168 6.98149 47.168 9.08973C47.168 9.21572 47.1596 9.34171 47.1512 9.4677C46.874 7.85502 45.4293 6.62032 43.699 6.62032C41.9688 6.62032 40.5325 7.85502 40.2469 9.4677C40.2385 9.34171 40.2301 9.21572 40.2301 9.08973C40.2301 6.98149 41.784 5.26803 43.699 5.26803ZM37.3995 7.36786C37.5003 7.35106 37.6095 7.34267 37.7103 7.34267C38.5754 7.34267 39.3398 7.96422 39.491 8.84615L39.5414 9.14013C39.7094 10.1228 39.0458 11.0636 38.0631 11.2316L36.9292 11.4247L36.2488 7.56945L37.3995 7.36786ZM33.5022 12.0211L32.8219 8.1658L35.7029 7.67024L36.3832 11.5255L33.5022 12.0211ZM29.7645 9.23252C30.0417 8.83775 30.4617 8.57737 30.932 8.49337L32.2675 8.25819L32.9479 12.1135L31.5956 12.3487C31.1168 12.4327 30.6381 12.3235 30.2433 12.0463C29.8485 11.7691 29.5881 11.3492 29.5041 10.8788L29.4537 10.5848C29.3782 10.1061 29.4873 9.62729 29.7645 9.23252ZM27.0935 17.7495L16.536 18.1442C16.1413 18.161 15.7549 18.0266 15.4441 17.7831C15.2173 17.6067 15.0494 17.3715 14.9402 17.1111L12.7904 10.1149L14.1427 9.2246C14.6971 9.85455 15.5365 10.9964 16.1917 12.5587C16.9224 14.2805 16.9392 15.2045 16.9392 15.2129C16.9392 15.364 17.0652 15.49 17.2164 15.49C17.3676 15.49 17.4936 15.364 17.4936 15.2129C17.4936 15.2045 17.4936 15.1877 17.4936 15.1541L21.6848 14.5241L24.3889 13.9697C24.4477 13.9613 24.4981 13.9362 24.5401 13.8942L25.0945 13.365C26.136 12.3655 27.6983 12.1387 28.975 12.819C29.1094 12.8946 29.2858 12.8358 29.353 12.7014C29.4286 12.5671 29.3698 12.3907 29.2354 12.3235C27.7403 11.5339 25.9176 11.7943 24.6997 12.9618L24.2126 13.4322L21.6848 13.9613L18.6023 12.5335C18.3503 12.4159 18.1571 12.2059 18.0647 11.9539C18.0311 11.8615 18.0059 11.7691 17.9975 11.6683L17.7796 4.17659L19.2999 3.62223C19.6947 4.36137 19.9882 5.87278 20.2737 7.54425C20.5845 9.3921 20.3913 10.2908 20.3913 10.2992C20.3913 10.2992 20.3913 10.2992 20.3913 10.3076C20.3913 10.316 20.3913 10.316 20.3913 10.3244C20.3913 10.3328 20.3913 10.3328 20.3913 10.3412C20.3913 10.3496 20.3913 10.3496 20.3913 10.358C20.3913 10.3664 20.3913 10.3664 20.3913 10.3748C20.3913 10.3832 20.3913 10.3832 20.3913 10.3916C20.3913 10.4 20.3913 10.4 20.3913 10.4084V10.4168C20.3913 10.4252 20.3913 10.4252 20.3913 10.4336V10.442C20.3913 10.4504 20.3913 10.4504 20.3913 10.4588V10.4672C20.3913 10.4756 20.3913 10.4756 20.3997 10.484C20.3997 10.484 20.3997 10.4924 20.4081 10.4924C20.4081 10.5008 20.4081 10.5008 20.4165 10.5092C20.4165 10.5092 20.4165 10.5176 20.4249 10.5176L20.4333 10.526L20.4417 10.5344L20.4501 10.5428L20.4585 10.5512L20.4669 10.5596L20.4753 10.568L20.4837 10.5764L20.4921 10.5848L20.5005 10.5932L20.5089 10.6016C20.5089 10.6016 20.5173 10.61 20.5257 10.61C20.5257 10.61 20.5341 10.61 20.5341 10.6184C20.5425 10.6184 20.5425 10.6268 20.5509 10.6268C20.5509 10.6268 20.5593 10.6268 20.5593 10.6352C20.5677 10.6352 20.5677 10.6352 20.5761 10.6436C20.5761 10.6436 20.5761 10.6436 20.5845 10.6436L24.3217 12.0715C24.3469 12.0799 24.3721 12.0799 24.4057 12.0799C24.4813 12.0799 24.5485 12.0547 24.5989 12.0043L25.1533 11.4751C26.1696 10.5008 27.6815 10.2656 28.9414 10.8788L28.9582 10.988C29.0674 11.6095 29.4118 12.1555 29.9241 12.5251C30.2937 12.7854 30.7221 12.9282 31.1588 12.9534C30.974 13.3818 30.806 14.1461 30.9656 15.4228C31.0748 16.2712 31.2344 16.8507 31.3856 17.2539L27.0935 17.7495ZM32.1835 17.5227C32.0491 17.3463 31.7132 16.7919 31.5284 15.3304C31.3016 13.5498 31.7888 12.9366 31.8392 12.8778L33.5526 12.5839C33.3762 13.0206 33.2335 13.7766 33.3846 14.9945C33.5358 16.2124 33.7962 16.9095 34.0062 17.2959L32.1835 17.5227ZM43.1783 20.2441C42.5903 20.2441 42.0612 19.9501 41.7504 19.4461C41.7504 19.4461 41.7504 19.4377 41.742 19.4377L38.6174 14.7341C38.5334 14.6081 38.3571 14.5661 38.2311 14.6585C38.1051 14.7425 38.0631 14.9189 38.1555 15.0449L38.9954 16.3048L34.4346 16.8591C34.275 16.5063 34.0818 15.9016 33.9558 14.9189C33.7206 13.0458 34.2666 12.4663 34.2666 12.4579L34.2582 12.4663L34.2498 12.4579L38.1639 11.7859C38.5166 11.7271 38.8358 11.5927 39.1214 11.3911C38.8862 12.4999 38.7686 13.869 39.3062 14.7677C39.9529 15.8512 40.7761 16.1284 41.3556 16.162C41.406 16.162 41.4564 16.1704 41.5152 16.1704C41.8092 16.1704 42.0948 16.12 42.3635 16.036C42.8087 16.9851 43.1951 17.8083 43.2203 17.867C43.4135 18.3038 43.5562 18.4046 44.035 18.4046L49.2006 18.5642V20.412L43.1783 20.2441ZM50.1917 20.4372L49.7466 20.4288V18.581L50.1833 18.5978H50.1917C50.7041 18.5978 51.1157 19.0094 51.1157 19.5217C51.1157 20.0173 50.7041 20.4372 50.1917 20.4372Z" fill="black"/>
</svg>
