<svg width="28" height="28" viewBox="0 0 28 28" fill="none" xmlns="http://www.w3.org/2000/svg">
<path d="M2.26439 23.1478C2.29228 23.149 2.31843 23.1608 2.33763 23.181C2.35685 23.2014 2.36736 23.2283 2.36693 23.2562C2.36642 23.2843 2.35567 23.3118 2.33568 23.3314C2.31574 23.3511 2.28844 23.3616 2.26048 23.3617C2.26005 23.3617 2.25665 23.3619 2.25365 23.3617V23.3607L1.00853 23.3148C0.994453 23.3143 0.980306 23.3109 0.967514 23.3051C0.954728 23.2992 0.942912 23.291 0.933334 23.2807C0.923915 23.2705 0.916717 23.2585 0.91185 23.2455C0.907001 23.2324 0.904555 23.2184 0.905014 23.2045L0.913803 23.1635C0.919646 23.1505 0.928785 23.139 0.939194 23.1293C0.949574 23.1197 0.96204 23.1117 0.975327 23.1068C0.988441 23.1021 1.00242 23.1003 1.01634 23.101L2.26439 23.1478Z" fill="black" stroke="black" stroke-width="0.1"/>
<path d="M24.7687 24.0552L27.3351 24.2339C27.3628 24.2359 27.3888 24.2485 27.4074 24.2691C27.4259 24.2897 27.4356 24.3166 27.4347 24.3443C27.4338 24.3719 27.4223 24.3982 27.4025 24.4175C27.3826 24.4368 27.3559 24.4477 27.3283 24.4478H27.3205L24.7541 24.2691C24.7258 24.2671 24.6995 24.2542 24.6808 24.233C24.6622 24.2115 24.6525 24.1832 24.6544 24.1548V24.1539C24.657 24.126 24.6705 24.1 24.6916 24.0816C24.7126 24.0633 24.7399 24.0539 24.7677 24.0552H24.7687Z" fill="black" stroke="black" stroke-width="0.1"/>
<path d="M9.4113 5.98954C9.43597 5.98761 9.46129 5.99398 9.48161 6.00809C9.50184 6.02215 9.51677 6.04303 9.52361 6.06669C9.53038 6.09043 9.52846 6.11628 9.51872 6.13895C9.48858 6.21499 8.68773 8.25685 8.507 8.88895C8.85088 9.36965 9.36706 9.68199 9.87517 9.88309C10.3896 10.0867 10.8907 10.175 11.1818 10.2122L11.2668 10.219C11.3523 10.2215 11.4379 10.2116 11.5207 10.1888C11.6309 10.1582 11.7346 10.1053 11.8244 10.0345C11.914 9.96366 11.9888 9.87564 12.0441 9.77567C12.0995 9.67559 12.1344 9.56516 12.1467 9.45145L12.2521 8.46903C12.2536 8.45525 12.2582 8.44216 12.2648 8.42997C12.2715 8.41766 12.2803 8.40657 12.2912 8.39774C12.3021 8.3889 12.3148 8.38219 12.3283 8.37821C12.3418 8.37423 12.3563 8.3728 12.3703 8.37431C12.3842 8.37584 12.398 8.38029 12.4103 8.387C12.4225 8.39374 12.4338 8.40252 12.4426 8.41337C12.4513 8.42425 12.4572 8.4371 12.4611 8.45048C12.4651 8.46401 12.4665 8.47846 12.465 8.49247L12.3595 9.47489C12.3311 9.73795 12.2066 9.98149 12.0099 10.1585C11.8132 10.3354 11.5577 10.4333 11.2931 10.4339C11.2468 10.4339 11.2004 10.431 11.1545 10.4251C10.8489 10.3861 10.3202 10.2926 9.77654 10.0745C9.23334 9.85654 8.67045 9.51261 8.30095 8.97099C8.29229 8.95829 8.28597 8.94316 8.28337 8.92802C8.28086 8.91312 8.28153 8.89772 8.28532 8.88309C8.34465 8.65798 8.59626 7.95577 8.83708 7.3079C8.95776 6.98325 9.07594 6.67073 9.16716 6.43681C9.21275 6.31988 9.25245 6.22249 9.28142 6.15263C9.29585 6.11783 9.30721 6.08917 9.31657 6.06864C9.32123 6.05843 9.32563 6.04921 9.32927 6.04227C9.33102 6.03894 9.33318 6.03565 9.33513 6.03251C9.33651 6.0303 9.34032 6.02416 9.34587 6.01884L9.37614 5.99833C9.38714 5.99341 9.39912 5.99054 9.4113 5.98954Z" fill="black" stroke="black" stroke-width="0.1"/>
<path d="M11.7947 1.19958C12.3979 1.17818 12.9944 1.33782 13.5056 1.65857L13.5154 1.66443C13.8198 1.85336 14.0895 2.09398 14.3113 2.37537C14.5763 2.7109 14.7854 3.02691 14.9216 3.38318C15.058 3.74002 15.1206 4.13535 15.0955 4.6283C15.0832 4.85985 14.9188 5.74074 14.5017 6.61072C14.0848 7.4801 13.4072 8.35444 12.3601 8.54431C12.352 8.54573 12.3439 8.54471 12.3357 8.54431V8.54529C12.3345 8.54527 12.3331 8.54535 12.3318 8.54529L12.2322 8.54724C11.7919 8.54416 11.3596 8.43448 10.9724 8.22888L10.8093 8.13513C10.4798 7.93398 10.1894 7.67463 9.95288 7.36951V7.36853C9.95082 7.36633 9.94888 7.36407 9.94702 7.36169H9.94604C9.78306 7.14883 9.64158 6.92063 9.52222 6.68103L9.40991 6.43787C9.373 6.35238 9.34039 6.26317 9.31323 6.18787C9.3084 6.17461 9.30578 6.15997 9.3064 6.14587C9.30706 6.13206 9.31035 6.11839 9.31616 6.10583C9.32214 6.09305 9.33113 6.08116 9.34155 6.07166C9.35195 6.0622 9.36446 6.05494 9.37769 6.05017C9.39084 6.04546 9.40474 6.04366 9.4187 6.04431C9.4328 6.04498 9.44696 6.04806 9.45972 6.05408C9.47224 6.06001 9.48356 6.06828 9.49292 6.07849C9.50231 6.08885 9.50965 6.10148 9.5144 6.11462C9.54096 6.18821 9.57256 6.27357 9.6062 6.35193L9.71167 6.58142C9.82282 6.80489 9.95425 7.01797 10.1052 7.21716L10.1169 7.23083H10.1179C10.3393 7.51804 10.6112 7.76247 10.9207 7.95154L10.9216 7.95251C11.3426 8.21569 11.8327 8.34695 12.3289 8.33044H12.3328C13.2753 8.15421 13.9076 7.33825 14.3083 6.49939C14.7091 5.66063 14.8702 4.81588 14.8806 4.61658C14.9042 4.15364 14.846 3.78643 14.7195 3.45642C14.5927 3.12587 14.3962 2.82948 14.1423 2.50818C13.9378 2.24863 13.6902 2.02602 13.4099 1.85095C13.407 1.84955 13.4038 1.84871 13.4011 1.84705V1.84607C12.9243 1.54454 12.3673 1.39373 11.8035 1.41345C10.4476 1.46562 9.28203 2.4904 9.03394 3.85095L9.03003 3.87439V3.87537C9.02054 3.9285 9.0126 3.98191 9.00659 4.03552L8.9939 4.19666C8.99376 4.19999 8.9924 4.20313 8.99194 4.20642L8.99292 4.2074C8.98813 4.26477 8.98667 4.32269 8.98804 4.38025C8.98854 4.40866 8.97748 4.43596 8.95776 4.45642C8.93804 4.47689 8.91099 4.48908 8.88257 4.48962H8.88159C8.85364 4.48955 8.82653 4.47874 8.8064 4.45935C8.78624 4.43993 8.77429 4.4131 8.77319 4.38513V4.38416C8.77165 4.31744 8.77427 4.25044 8.78003 4.18396V4.18201C8.78559 4.06683 8.79887 3.95178 8.81909 3.83826L8.823 3.81482V3.81384C9.08889 2.3551 10.3378 1.25584 11.7947 1.19958Z" fill="black" stroke="black" stroke-width="0.1"/>
<path d="M10.8004 0.768994C10.9326 0.859398 11.0432 0.978021 11.124 1.11631C11.2049 1.2546 11.2541 1.4091 11.268 1.56869C11.2941 1.89358 11.2118 2.21796 11.0339 2.49107C10.9273 2.66011 10.7884 2.81779 10.7484 3.01381C10.7121 3.19182 10.7635 3.37407 10.7649 3.55537C10.7672 3.87397 10.6112 4.18095 10.3909 4.41035C10.1707 4.63974 9.89048 4.79983 9.60376 4.93157C9.25623 4.79262 8.92952 4.65578 8.64205 4.41438C8.58202 4.36912 8.53125 4.31276 8.49248 4.24835C8.45924 4.17482 8.43978 4.09581 8.43508 4.01524C8.39683 3.69621 8.35857 3.37684 8.34272 3.05555C8.3222 2.77696 8.33917 2.49687 8.39319 2.22279C8.5091 1.71159 8.81832 1.26508 9.25609 0.976779C9.6882 0.696661 10.3047 0.656576 10.8004 0.768994Z" fill="black"/>
<path d="M9.60406 4.98881C9.59678 4.9888 9.58958 4.98742 9.58282 4.98473C9.20396 4.83322 8.89144 4.69825 8.60557 4.45821C8.53979 4.40838 8.48433 4.34622 8.44227 4.27521C8.40557 4.19549 8.38397 4.10966 8.37856 4.02207C8.34078 3.70678 8.30183 3.38143 8.2859 3.05838C8.26541 2.77464 8.28284 2.48945 8.33771 2.21032C8.4558 1.68403 8.77415 1.22438 9.22531 0.928767C9.71035 0.614262 10.3637 0.611216 10.8133 0.713182C10.8198 0.714633 10.826 0.717206 10.8316 0.720783C10.9714 0.815536 11.0882 0.940309 11.1736 1.08599C11.2591 1.23168 11.3109 1.3946 11.3253 1.56286C11.3531 1.90052 11.2677 2.23783 11.0826 2.52158C11.0563 2.56324 11.0282 2.60421 10.9999 2.6452C10.914 2.77017 10.8328 2.88817 10.8048 3.02526C10.7889 3.13336 10.7897 3.24326 10.8074 3.35109C10.8145 3.41745 10.8219 3.48608 10.8224 3.55496C10.8247 3.86329 10.6826 4.18954 10.4326 4.44997C10.1801 4.71289 9.85247 4.88041 9.62797 4.98358C9.62046 4.98701 9.61231 4.9888 9.60406 4.98881ZM10.2662 0.767616C9.93496 0.767616 9.57807 0.836442 9.28757 1.02478C8.8615 1.30402 8.56087 1.73815 8.44937 2.23521C8.39689 2.50435 8.38037 2.77925 8.40024 3.05273C8.41595 3.37182 8.45468 3.69513 8.49212 4.00779C8.49628 4.08152 8.51361 4.15392 8.54332 4.22153C8.57888 4.27928 8.62496 4.32983 8.67918 4.37058C8.94632 4.59491 9.24352 4.72533 9.60243 4.86929C9.81743 4.76934 10.1192 4.61115 10.35 4.37072C10.5795 4.13161 10.71 3.83457 10.7079 3.5558C10.7064 3.49145 10.7016 3.42722 10.6935 3.36335C10.6745 3.24381 10.6742 3.12201 10.6927 3.00238C10.7253 2.84249 10.817 2.70922 10.9057 2.58035C10.933 2.54058 10.9603 2.5009 10.9858 2.46055C11.1573 2.19845 11.2366 1.88673 11.2114 1.57454C11.1988 1.42508 11.1535 1.28021 11.0787 1.15024C11.0038 1.02027 10.9012 0.908402 10.7782 0.822582C10.61 0.785922 10.4383 0.767494 10.2662 0.767616Z" fill="black"/>
<path d="M8.27104 4.07191C8.51378 3.9635 8.8159 4.00451 9.07768 4.17152C9.30411 4.31603 9.4766 4.53327 9.62358 4.71742C9.63235 4.72837 9.63918 4.74107 9.64311 4.75453C9.64703 4.76806 9.64857 4.78252 9.64702 4.79652C9.64546 4.81051 9.64111 4.82424 9.63432 4.83656C9.62752 4.8489 9.61799 4.86 9.60698 4.86879C9.59606 4.87748 9.58327 4.88345 9.56987 4.88734C9.55633 4.89125 9.54188 4.89283 9.52788 4.89125C9.51391 4.88967 9.50014 4.88535 9.48784 4.87856C9.4756 4.87176 9.46532 4.86215 9.45659 4.85121C9.30631 4.66295 9.15635 4.47706 8.96245 4.35316C8.80035 4.24978 8.55931 4.17898 8.35893 4.2682C8.22822 4.32651 8.1377 4.44132 8.08549 4.5807C8.03337 4.7201 8.02071 4.88096 8.04448 5.02504C8.06962 5.17725 8.12513 5.32336 8.20757 5.45375C8.29004 5.58408 8.39824 5.69688 8.52495 5.78481C8.65188 5.87278 8.79564 5.93492 8.94682 5.96645C9.09803 5.99797 9.25428 5.99832 9.40581 5.9684C9.43356 5.9631 9.46245 5.96925 9.48589 5.985C9.50941 6.00099 9.52645 6.0264 9.53178 6.05434C9.53697 6.08208 9.531 6.11104 9.51518 6.13441C9.4992 6.15794 9.47378 6.174 9.44585 6.17934C9.36085 6.19548 9.27455 6.2038 9.18803 6.20375C8.86307 6.20595 8.54778 6.09199 8.29936 5.88246C8.0509 5.67286 7.88512 5.38099 7.83257 5.0602C7.80252 4.87828 7.81952 4.67429 7.88921 4.49477C7.95922 4.31472 8.08398 4.15544 8.27104 4.07191Z" fill="black" stroke="black" stroke-width="0.1"/>
<path d="M8.86044 5.81565C8.84752 5.81567 8.83499 5.81129 8.82489 5.80325C8.76286 5.75398 8.63381 5.65146 8.64281 5.5102C8.64538 5.47811 8.65495 5.44698 8.67085 5.41899C8.68675 5.391 8.7086 5.36684 8.73486 5.34821C8.76623 5.32449 8.80231 5.30775 8.84069 5.29912C8.87906 5.2905 8.91884 5.29018 8.95734 5.29819C9.03084 5.3162 9.09652 5.35753 9.14457 5.41598C9.15206 5.23021 9.07281 5.02041 8.91873 4.83017C8.914 4.82433 8.91046 4.81761 8.90833 4.8104C8.90619 4.80319 8.9055 4.79564 8.90629 4.78816C8.90707 4.78069 8.90932 4.77344 8.91291 4.76683C8.9165 4.76023 8.92135 4.75439 8.92719 4.74966C8.93304 4.74493 8.93975 4.7414 8.94696 4.73926C8.95417 4.73713 8.96172 4.73644 8.9692 4.73722C8.97668 4.73801 8.98392 4.74026 8.99053 4.74385C8.99713 4.74743 9.00297 4.75229 9.0077 4.75813C9.22717 5.02915 9.30983 5.34145 9.22885 5.59353C9.22524 5.60475 9.21826 5.61458 9.20885 5.62168C9.19945 5.62878 9.18809 5.63281 9.17631 5.63321C9.16447 5.6339 9.15273 5.63077 9.14281 5.62428C9.13289 5.61779 9.12532 5.60828 9.1212 5.59716C9.10703 5.55313 9.0825 5.51315 9.04967 5.48056C9.01684 5.44798 8.97667 5.42375 8.93253 5.40991C8.91014 5.40558 8.88709 5.40599 8.86487 5.41114C8.84265 5.41628 8.82175 5.42603 8.80354 5.43976C8.7907 5.44867 8.77992 5.46022 8.7719 5.47364C8.76388 5.48705 8.75882 5.50202 8.75704 5.51755C8.75246 5.58917 8.82115 5.65411 8.89609 5.7136C8.9054 5.72099 8.91217 5.73109 8.91548 5.74251C8.91878 5.75392 8.91845 5.76608 8.91453 5.7773C8.91062 5.78852 8.9033 5.79824 8.89361 5.80511C8.88391 5.81198 8.87232 5.81567 8.86044 5.81565Z" fill="black"/>
<path d="M10.8973 1.09751C11.0227 1.37267 11.1537 1.65564 11.3761 1.8605C11.5036 1.97792 11.6962 2.2086 11.8489 2.29043C12.2272 2.4931 12.7924 2.86046 13.1865 2.79033C13.1515 2.67584 12.8372 2.23786 12.8022 2.12337C13.5996 2.65736 14.3645 3.28705 14.9583 4.04121C14.9683 4.05348 15.1096 3.83772 15.1216 3.81259C15.4089 3.21196 15.2198 2.32869 14.9193 1.77234C14.0981 0.252077 12.2405 0.0684971 10.7221 0.398563C10.4566 0.456285 10.1815 0.532445 9.98383 0.71885C10.2349 0.89459 10.6026 1.01341 10.8973 1.09751Z" fill="black"/>
<path d="M14.9604 4.09892C14.9516 4.09889 14.943 4.09696 14.9351 4.09327C14.9271 4.08957 14.9201 4.0842 14.9145 4.07752C14.4247 3.45547 13.7863 2.87416 12.9667 2.30452C12.9915 2.34445 13.0179 2.38617 13.0431 2.42622C13.1201 2.53553 13.1865 2.65185 13.2417 2.77364C13.244 2.78138 13.2447 2.78954 13.2437 2.79757C13.2427 2.8056 13.24 2.81332 13.2357 2.82022C13.2315 2.82712 13.2259 2.83305 13.2192 2.83761C13.2125 2.84218 13.2049 2.84527 13.1969 2.84668C12.8419 2.90987 12.3764 2.64957 12.0026 2.44038C11.9391 2.40487 11.8787 2.37106 11.8223 2.34088C11.7076 2.27943 11.5787 2.14667 11.465 2.02956C11.4187 1.98183 11.3749 1.93673 11.3378 1.90258C11.1106 1.69328 10.9749 1.40435 10.8567 1.14525C10.5639 1.06092 10.2035 0.942077 9.95152 0.765753C9.94456 0.760876 9.93877 0.754513 9.93458 0.747123C9.93038 0.739734 9.92788 0.731503 9.92726 0.723029C9.92664 0.714554 9.92791 0.706047 9.93099 0.698126C9.93406 0.690204 9.93886 0.683065 9.94503 0.677227C10.159 0.475502 10.4523 0.398769 10.7104 0.342658C11.4457 0.182793 13.9257 -0.188382 14.9701 1.74515C15.2777 2.31467 15.4727 3.21233 15.1737 3.83731C15.1725 3.8398 15.0309 4.09079 14.967 4.09853C14.9648 4.09879 14.9626 4.09892 14.9604 4.09892ZM12.8027 2.06614C12.8141 2.06614 12.8251 2.0695 12.8346 2.07581C13.7351 2.67891 14.4316 3.29345 14.9615 3.95275C15.0019 3.89686 15.061 3.80658 15.0706 3.78763C15.3396 3.22521 15.1731 2.3617 14.8694 1.79953C13.8631 -0.0636969 11.4501 0.298872 10.7347 0.45449C10.5141 0.502441 10.2669 0.565817 10.0792 0.712772C10.3209 0.862382 10.6485 0.966867 10.9135 1.04251C10.9215 1.04479 10.9288 1.04876 10.9351 1.05417C10.9414 1.05957 10.9464 1.06627 10.9499 1.0738C11.0662 1.32901 11.1981 1.61829 11.4154 1.81842C11.4548 1.85472 11.4996 1.90093 11.5471 1.94984C11.655 2.06097 11.7773 2.18694 11.8764 2.24C11.9333 2.27046 11.9944 2.30464 12.0585 2.34049C12.3887 2.52525 12.7952 2.75243 13.1014 2.7417C13.0647 2.67441 13.0029 2.5767 12.9464 2.48739C12.8695 2.37809 12.8031 2.26181 12.748 2.14008C12.7454 2.13152 12.7448 2.12247 12.7463 2.11366C12.7478 2.10484 12.7514 2.09651 12.7567 2.08931C12.762 2.08212 12.769 2.07628 12.777 2.07226C12.7849 2.06823 12.7938 2.06614 12.8027 2.06614Z" fill="black"/>
<path d="M12.7261 17.5837C12.4594 17.8427 12.19 18.1723 12.1683 18.1982C12.1809 18.1695 12.4013 17.6614 12.6169 17.1477C12.6428 17.28 12.6806 17.4269 12.7261 17.5837Z" fill="black"/>
<path d="M12.168 18.2554C12.1585 18.2554 12.1492 18.253 12.1408 18.2485C12.1325 18.2439 12.1254 18.2374 12.1202 18.2294C12.115 18.2215 12.1118 18.2124 12.1111 18.2029C12.1103 18.1934 12.1118 18.1839 12.1157 18.1752C12.134 18.1333 12.3541 17.6254 12.5639 17.1255C12.5687 17.1142 12.5769 17.1047 12.5875 17.0984C12.598 17.0922 12.6103 17.0895 12.6225 17.0907C12.6347 17.092 12.6462 17.0971 12.6553 17.1054C12.6643 17.1136 12.6705 17.1246 12.6729 17.1366C12.6967 17.2586 12.732 17.3996 12.7808 17.5678C12.7837 17.5777 12.7838 17.5883 12.7811 17.5984C12.7785 17.6084 12.7731 17.6175 12.7657 17.6248C12.5734 17.8156 12.3911 18.0163 12.2194 18.2259L12.212 18.2349C12.2066 18.2413 12.1998 18.2465 12.1923 18.25C12.1847 18.2536 12.1764 18.2554 12.168 18.2554ZM12.5997 17.3354C12.5166 17.5323 12.4355 17.7221 12.3697 17.8754C12.4727 17.76 12.5719 17.655 12.6614 17.5667C12.6376 17.4834 12.6171 17.4066 12.5997 17.3354Z" fill="black"/>
<path d="M13.4009 19.3992C13.2372 19.4874 12.9796 19.6267 12.8669 19.5973C12.7976 19.5791 12.7284 19.5574 12.6605 19.5336C12.8172 19.2123 12.9614 18.8897 13.0734 18.5908C13.1784 18.8631 13.2904 19.1381 13.4009 19.3992Z" fill="black"/>
<path d="M12.9009 19.6583C12.8845 19.6585 12.8682 19.6566 12.8523 19.6526C12.7856 19.6351 12.7146 19.6132 12.6413 19.5875C12.6337 19.5849 12.6267 19.5806 12.6209 19.575C12.615 19.5695 12.6104 19.5627 12.6073 19.5553C12.6043 19.5478 12.6028 19.5398 12.6031 19.5317C12.6033 19.5236 12.6053 19.5157 12.6088 19.5084C12.7784 19.1611 12.9166 18.8456 13.0196 18.5708C13.0237 18.5599 13.031 18.5505 13.0405 18.5439C13.05 18.5373 13.0613 18.5337 13.0729 18.5336C13.0846 18.5331 13.0962 18.5364 13.1059 18.543C13.1155 18.5496 13.1228 18.5592 13.1266 18.5703C13.2265 18.8294 13.3365 19.1008 13.4535 19.3769C13.459 19.39 13.4595 19.4048 13.4547 19.4182C13.45 19.4316 13.4404 19.4428 13.4279 19.4496L13.4008 19.3992L13.4246 19.4514C13.2213 19.5608 13.0284 19.6583 12.9009 19.6583ZM12.7401 19.5002C12.7889 19.5161 12.8361 19.5301 12.8813 19.5419C12.9618 19.5628 13.1888 19.4476 13.3278 19.3734C13.2383 19.1612 13.153 18.952 13.0734 18.7492C12.983 18.9769 12.8712 19.2287 12.7401 19.5002Z" fill="black"/>
<path d="M16.2383 17.3471L15.7981 17.6509C15.7981 17.6509 14.9554 14.379 14.5411 14.5511C14.1387 14.7177 14.6643 16.6186 14.6944 16.7291C14.6552 16.6242 13.9875 14.878 13.7398 14.9942C13.4969 15.1082 14.1955 17.0728 14.2025 17.1015C14.1885 17.0792 13.4143 15.1929 13.1637 15.4617C12.9034 15.7402 13.5655 17.6453 13.5865 17.7055C13.569 17.6775 13.2834 17.2282 13.0581 16.8306C13.01 16.7337 12.9379 16.6506 12.8488 16.5892V16.5885C12.937 16.3701 13.0049 16.1937 13.028 16.1126C13.0383 16.0777 13.041 16.0411 13.0359 16.0051C13.0308 15.9691 13.0181 15.9346 12.9986 15.904C12.867 15.6863 12.5486 15.6863 12.3925 15.8865L11.2839 17.8819C11.5225 17.4297 11.9488 16.0909 11.8739 15.7423C11.8347 15.5625 11.5925 15.4554 11.4714 15.5946C10.8535 16.3064 10.5798 16.909 10.1781 17.9714C9.95701 17.7671 9.74809 17.55 9.55237 17.3213C9.07077 16.7647 8.68116 16.1348 8.39828 15.4554C8.14842 14.8416 8.04133 14.1424 8.19671 13.4915C8.50186 12.2107 9.59087 11.2442 10.9108 11.1546C11.2026 11.1306 11.496 11.1723 11.7695 11.2767C12.043 11.3811 12.2896 11.5456 12.4912 11.7579C12.6347 11.9126 12.7575 12.0853 12.8565 12.2716C12.911 12.3799 12.9601 12.4909 13.0035 12.6041C13.1226 12.314 13.2944 12.0485 13.5102 11.8209C13.8589 11.4713 14.3251 11.2637 14.8183 11.2386C15.2107 11.2134 15.6035 11.2806 15.9654 11.4346C16.2256 11.542 16.4684 11.6878 16.6855 11.8671C17.3182 12.3857 17.75 13.1703 17.8046 13.9912C17.89 15.2636 17.1433 16.4205 16.2383 17.3471Z" fill="black"/>
<path d="M10.1777 18.0287C10.1633 18.0287 10.1495 18.0232 10.1389 18.0135C9.91622 17.8076 9.70577 17.5889 9.50859 17.3585C9.02248 16.7976 8.6296 16.1624 8.34496 15.477C8.06798 14.7966 7.99544 14.0868 8.14069 13.4782C8.45835 12.145 9.5699 11.1882 10.9067 11.0975C11.2069 11.0723 11.509 11.1151 11.7904 11.2226C12.0719 11.3302 12.3255 11.4997 12.5325 11.7187C12.6795 11.877 12.8053 12.0539 12.9066 12.2447C12.926 12.2798 12.9686 12.3713 13.0061 12.4587C13.1224 12.2092 13.2787 11.9803 13.4686 11.7812C13.827 11.421 14.3067 11.2072 14.8142 11.1815C15.2155 11.1555 15.6173 11.2241 15.9872 11.3818C16.2526 11.4913 16.5001 11.64 16.7214 11.8228C17.3811 12.3635 17.8072 13.1727 17.8614 13.9875C17.9355 15.0921 17.4031 16.236 16.2789 17.3871C16.2763 17.3897 16.2735 17.3921 16.2705 17.3942L15.8303 17.698C15.8227 17.7032 15.8139 17.7065 15.8048 17.7076C15.7956 17.7088 15.7864 17.7077 15.7777 17.7045C15.7691 17.7012 15.7614 17.696 15.7552 17.6891C15.749 17.6823 15.7446 17.674 15.7423 17.6651C15.4471 16.5188 14.8985 14.7588 14.5973 14.6086C14.5764 14.5981 14.5668 14.6023 14.5627 14.604C14.3568 14.6892 14.4328 15.5543 14.7475 16.7078L14.7492 16.7141C14.7531 16.7283 14.7514 16.7435 14.7444 16.7564C14.7373 16.7694 14.7256 16.7791 14.7116 16.7837C14.6976 16.7882 14.6823 16.7871 14.6691 16.7807C14.6558 16.7743 14.6456 16.763 14.6404 16.7492C14.4547 16.2513 13.9787 15.1318 13.7743 15.0484C13.771 15.0467 13.7674 15.0459 13.7637 15.046C13.7579 15.0508 13.6121 15.1953 14.2388 17.0309C14.2505 17.065 14.2571 17.0851 14.2578 17.0879C14.2611 17.1011 14.2595 17.1151 14.2534 17.1272C14.2473 17.1394 14.237 17.149 14.2245 17.1543C14.212 17.1595 14.198 17.1602 14.185 17.1561C14.172 17.152 14.1609 17.1434 14.1537 17.1319C14.1428 17.111 14.1331 17.0895 14.1248 17.0675C13.5107 15.645 13.2807 15.5028 13.2249 15.4932C13.2212 15.4922 13.2174 15.4924 13.2139 15.4938C13.2103 15.4951 13.2073 15.4975 13.2052 15.5007C13.0309 15.6873 13.3698 16.9102 13.6402 17.6866C13.6448 17.6999 13.6444 17.7144 13.6389 17.7274C13.6335 17.7404 13.6235 17.751 13.6109 17.757C13.5982 17.7631 13.5837 17.7643 13.5702 17.7604C13.5567 17.7565 13.5451 17.7477 13.5376 17.7358L13.5293 17.7226C13.3278 17.4033 13.1427 17.0965 13.008 16.8588C12.9643 16.7707 12.8993 16.6948 12.8188 16.6381C12.8104 16.633 12.8034 16.6258 12.7986 16.6173C12.7938 16.6087 12.7912 16.599 12.7912 16.5892C12.7912 16.5816 12.7926 16.5741 12.7954 16.567C12.8943 16.322 12.9523 16.1682 12.9726 16.0969C12.9807 16.0696 12.9829 16.0409 12.9788 16.0127C12.9748 15.9845 12.9647 15.9575 12.9493 15.9336C12.9247 15.8933 12.8907 15.8597 12.85 15.8358C12.8094 15.8118 12.7635 15.7983 12.7164 15.7963C12.6639 15.7931 12.6115 15.8026 12.5634 15.8238C12.5153 15.845 12.473 15.8775 12.4399 15.9184L11.3336 17.9096C11.3263 17.9229 11.3141 17.9327 11.2996 17.937C11.2851 17.9413 11.2695 17.9396 11.2562 17.9324C11.2429 17.9252 11.2329 17.9131 11.2286 17.8986C11.2242 17.8841 11.2258 17.8685 11.2329 17.8551C11.4763 17.3941 11.8858 16.072 11.8176 15.7543C11.8075 15.7157 11.7874 15.6805 11.7591 15.6523C11.7309 15.6241 11.6957 15.6039 11.6571 15.5939C11.6321 15.586 11.6054 15.5854 11.5801 15.5922C11.5548 15.599 11.532 15.6129 11.5143 15.6322C10.9181 16.319 10.6477 16.8902 10.2313 17.9917C10.2279 18.0004 10.2225 18.0082 10.2155 18.0144C10.2084 18.0206 10.2 18.025 10.1909 18.0271C10.1866 18.0281 10.1821 18.0287 10.1777 18.0287ZM11.0579 11.2069C11.0104 11.2069 10.9626 11.2085 10.9143 11.2117C9.62791 11.299 8.558 12.2205 8.25202 13.5048C8.11224 14.0903 8.18289 14.7754 8.45092 15.4338C8.73099 16.1079 9.11747 16.7326 9.5956 17.2841C9.77143 17.4895 9.95797 17.6856 10.1545 17.8714C10.5592 16.8083 10.8348 16.2403 11.4279 15.5572C11.4592 15.5214 11.5001 15.4954 11.5458 15.4823C11.5914 15.4691 11.6399 15.4694 11.6854 15.4831C11.7446 15.4983 11.7986 15.5293 11.8416 15.5728C11.8846 15.6163 11.915 15.6707 11.9294 15.7301C11.9785 15.9585 11.8324 16.5582 11.6573 17.0913L12.3421 15.8587C12.3436 15.8561 12.3452 15.8536 12.347 15.8513C12.3913 15.7947 12.4487 15.7497 12.5142 15.7202C12.5798 15.6907 12.6515 15.6776 12.7232 15.682C12.7889 15.685 12.8528 15.7041 12.9093 15.7376C12.9658 15.7712 13.0132 15.8181 13.0472 15.8744C13.0512 15.8809 13.0549 15.8874 13.0583 15.894C13.0367 15.6734 13.0498 15.4994 13.1216 15.4226C13.1367 15.4056 13.1559 15.3927 13.1775 15.3853C13.199 15.3779 13.2221 15.3762 13.2444 15.3804C13.3029 15.3905 13.4556 15.4169 13.8554 16.2111C13.5097 15.0389 13.6543 14.9709 13.7151 14.9423C13.7312 14.9351 13.7487 14.9313 13.7663 14.9314C13.784 14.9314 13.8015 14.9351 13.8175 14.9424C13.9947 15.0147 14.2576 15.5399 14.4589 15.9994C14.3251 15.3521 14.241 14.6133 14.5189 14.4983C14.5397 14.4899 14.5621 14.4863 14.5845 14.4877C14.6069 14.4891 14.6287 14.4954 14.6484 14.5062C15.0657 14.7142 15.694 17.0293 15.8326 17.5573L16.2009 17.3032C17.2988 16.1776 17.7825 15.0665 17.7472 13.9951C17.7226 13.2476 17.3559 12.5268 16.6489 11.9114C16.4386 11.7323 16.2002 11.5891 15.9434 11.4876C15.5897 11.3366 15.2054 11.2709 14.8217 11.2957C14.3426 11.3196 13.8896 11.521 13.551 11.8607C13.3402 12.0833 13.1723 12.343 13.0557 12.6266C13.0513 12.6372 13.0438 12.6462 13.0341 12.6524C13.0244 12.6586 13.0131 12.6617 13.0016 12.6613C12.9901 12.661 12.979 12.6572 12.9697 12.6505C12.9604 12.6438 12.9533 12.6345 12.9494 12.6237C12.9126 12.5227 12.8307 12.3441 12.806 12.2992C12.7093 12.117 12.5893 11.9482 12.449 11.7969C12.2706 11.6077 12.0548 11.4576 11.8154 11.356C11.5759 11.2544 11.318 11.2037 11.0579 11.2069ZM12.9184 16.568C12.9962 16.633 13.0605 16.7127 13.1076 16.8025C13.1845 16.938 13.2778 17.0963 13.3815 17.2668C13.259 16.8877 13.1608 16.5011 13.0874 16.1095C13.086 16.1157 13.0845 16.1219 13.0827 16.1282C13.0625 16.1991 13.0087 16.3432 12.9184 16.568Z" fill="black"/>
<path d="M9.88696 23.5059L9.88599 23.5069L15.4055 23.7159C15.4336 23.717 15.4605 23.7297 15.4797 23.7501C15.4988 23.7704 15.5095 23.7974 15.509 23.8253C15.5085 23.8532 15.4966 23.8798 15.4768 23.8995C15.4669 23.9093 15.4553 23.9177 15.4426 23.9229L15.4016 23.9307C15.4012 23.9307 15.3986 23.931 15.3958 23.9307V23.9298L9.87622 23.7198C9.84837 23.7186 9.82216 23.7068 9.80298 23.6866C9.78381 23.6663 9.77328 23.6393 9.77368 23.6114C9.7742 23.5834 9.7859 23.5559 9.80591 23.5362C9.82579 23.5168 9.85237 23.5061 9.88013 23.5059C9.88058 23.5059 9.88395 23.5057 9.88696 23.5059Z" fill="black" stroke="black" stroke-width="0.1"/>
<path d="M12.321 9.09758C12.4304 9.14049 12.9656 9.35576 13.5729 9.67961C14.179 10.0028 14.8635 10.4384 15.2663 10.9247C15.5062 11.2144 15.6937 11.7095 15.8415 12.2948C15.9898 12.8824 16.1005 13.5684 16.1823 14.245C16.3459 15.5986 16.3959 16.9206 16.4088 17.3573C16.4096 17.3856 16.3989 17.4129 16.3795 17.4335C16.36 17.4542 16.3328 17.4668 16.3044 17.4677H16.3014C16.2737 17.4677 16.2472 17.4567 16.2272 17.4374C16.2072 17.418 16.1948 17.3911 16.194 17.3632C16.1587 16.1689 16.0587 14.7995 15.8795 13.6239C15.79 13.0363 15.6805 12.4981 15.5504 12.0546C15.4199 11.6095 15.27 11.2652 15.1012 11.0614C14.7208 10.6021 14.062 10.182 13.4665 9.86516C12.8724 9.54911 12.3475 9.33921 12.2419 9.29778C12.2155 9.28733 12.1946 9.26614 12.1833 9.24016C12.1721 9.21438 12.1712 9.18529 12.1813 9.1591C12.1917 9.13265 12.2129 9.11092 12.2389 9.09953C12.2649 9.08829 12.2946 9.0873 12.321 9.09758Z" fill="black" stroke="black" stroke-width="0.1"/>
<path d="M8.44688 8.81329C8.45902 8.82017 8.46952 8.82965 8.47813 8.84063C8.48682 8.85171 8.49388 8.86418 8.49767 8.87774C8.50145 8.89131 8.5023 8.90574 8.5006 8.91973C8.49888 8.9337 8.49385 8.94752 8.48692 8.95977C8.48001 8.97188 8.47057 8.98244 8.45958 8.99102C8.33916 9.08556 8.20482 9.1608 8.06114 9.21368C6.88286 9.64718 5.82173 10.583 5.11388 11.2078L5.09532 11.2225C5.02267 11.3063 3.16399 13.4838 2.17052 17.2606C1.51695 19.7452 1.84172 21.7327 2.27306 23.0272L2.36095 23.2772L2.43321 23.4617C2.61555 23.8861 2.887 24.2674 3.23009 24.5789C3.62227 24.935 4.09647 25.1891 4.60997 25.3191C6.38399 25.7553 8.14044 24.805 9.30919 23.9207C10.0753 23.3348 10.7729 22.6648 11.3922 21.9256C10.8013 20.968 9.82425 20.137 8.40099 19.3914L6.75938 20.1209C6.74147 20.1289 6.72121 20.1312 6.70177 20.1287C6.68249 20.1262 6.66425 20.1184 6.64903 20.1063C6.63387 20.0941 6.62162 20.0786 6.61485 20.0604C6.60811 20.042 6.60727 20.0219 6.61095 20.0027L7.22325 16.8445C7.2259 16.8308 7.23118 16.8172 7.23888 16.8055C7.24664 16.7937 7.25747 16.7841 7.26915 16.7762C7.28077 16.7683 7.29351 16.7624 7.30724 16.7596C7.32104 16.7568 7.33539 16.7569 7.34923 16.7596C7.36305 16.7623 7.37655 16.7674 7.38829 16.7752C7.3999 16.7829 7.40978 16.793 7.41759 16.8045C7.42546 16.8162 7.43139 16.8297 7.43419 16.8436C7.43692 16.8573 7.43687 16.8718 7.43419 16.8856L6.85997 19.8416L8.36192 19.1746C8.37661 19.1681 8.39275 19.1653 8.4088 19.1658C8.42476 19.1663 8.44049 19.1702 8.4547 19.1775C9.96405 19.9612 11.0005 20.8451 11.6168 21.8807C11.6278 21.8992 11.6338 21.9206 11.6324 21.9422C11.6311 21.9638 11.6223 21.9847 11.609 22.0018V22.0027C10.9683 22.7787 10.2407 23.4788 9.44102 24.0897C8.45441 24.8366 7.03921 25.6433 5.52599 25.6434C5.28151 25.6438 5.03769 25.6215 4.79747 25.5779L4.55821 25.5272C4.01063 25.3887 3.50481 25.1177 3.08653 24.7381C2.66835 24.3586 2.34961 23.8819 2.1588 23.3504V23.3494C1.67653 22.0372 1.25187 19.9074 1.96251 17.2059C2.98413 13.3221 4.91439 11.1046 4.93712 11.0789L4.94688 11.0691L4.9713 11.0477C5.68302 10.4194 6.76789 9.46103 7.98692 9.0125C8.10972 8.96732 8.22482 8.90288 8.32774 8.82207C8.33873 8.81348 8.35142 8.80731 8.36485 8.80352C8.37843 8.7997 8.39285 8.79892 8.40685 8.80059C8.42075 8.80229 8.43467 8.80642 8.44688 8.81329Z" fill="black" stroke="black" stroke-width="0.1"/>
<path d="M14.588 14.4376C14.6169 14.4394 14.6454 14.4473 14.671 14.461L14.7188 14.4923C14.7657 14.5289 14.8109 14.5835 14.8546 14.6476C14.9139 14.7347 14.9749 14.8465 15.0352 14.9747C15.1562 15.2318 15.2791 15.5596 15.3926 15.8956C15.6022 16.5159 15.7803 17.1705 15.8614 17.4757L16.2432 17.213C16.2593 17.2018 16.2784 17.1947 16.2979 17.1935C16.3174 17.1923 16.3372 17.1971 16.3546 17.2062C16.3717 17.2152 16.3865 17.2286 16.3965 17.2452C16.4066 17.2619 16.4122 17.2814 16.4122 17.3009L16.4092 19.1944C16.4092 19.2227 16.398 19.2496 16.378 19.2696C16.358 19.2896 16.3311 19.3008 16.3028 19.3009H16.3018C16.2879 19.3008 16.2737 19.2984 16.2608 19.2931C16.248 19.2877 16.2365 19.2795 16.2266 19.2696C16.2168 19.2597 16.2085 19.2483 16.2032 19.2355C16.1979 19.2226 16.1954 19.2084 16.1954 19.1944L16.1964 17.505L15.8585 17.7394C15.8443 17.749 15.8276 17.7548 15.8106 17.7569C15.7936 17.759 15.7759 17.7571 15.7598 17.7511C15.7438 17.745 15.7293 17.7355 15.7178 17.7228C15.7064 17.71 15.6987 17.6944 15.6944 17.6778C15.547 17.1056 15.3362 16.3797 15.1251 15.7794C15.0195 15.4792 14.9137 15.2114 14.8165 15.0099C14.7679 14.9093 14.722 14.8265 14.6797 14.7647C14.6367 14.702 14.6017 14.6665 14.5762 14.6534C14.5665 14.6593 14.5544 14.6707 14.543 14.6935C14.5292 14.7211 14.5179 14.761 14.5098 14.8136C14.4938 14.919 14.4937 15.0672 14.5098 15.2511C14.5421 15.6181 14.6391 16.1195 14.796 16.6944L14.7979 16.7013C14.805 16.7278 14.8012 16.7562 14.7881 16.7804C14.775 16.8045 14.7528 16.8227 14.7266 16.8312C14.7004 16.8395 14.6723 16.8373 14.6475 16.8253C14.6227 16.8133 14.6035 16.7925 14.5938 16.7667C14.5013 16.5189 14.336 16.1158 14.169 15.7647C14.0855 15.5892 14.0017 15.428 13.9268 15.3058C13.8894 15.2447 13.855 15.1943 13.8243 15.1573C13.8142 15.1452 13.8043 15.1354 13.796 15.1271C13.7942 15.1678 13.7967 15.2351 13.8135 15.3438C13.854 15.6057 13.9731 16.0978 14.2862 17.0147L14.3067 17.0753V17.0763C14.3127 17.1009 14.3093 17.1268 14.2979 17.1495C14.2865 17.1722 14.2676 17.1904 14.2442 17.2003C14.2208 17.2102 14.1943 17.2118 14.17 17.2042C14.1457 17.1965 14.1249 17.1799 14.1114 17.1583L14.1094 17.1554C14.0976 17.1327 14.0872 17.109 14.0782 17.0851V17.0841C13.7725 16.3761 13.5626 15.9892 13.4239 15.7784C13.3544 15.6729 13.3038 15.6125 13.2686 15.5792C13.2534 15.5648 13.2411 15.5564 13.2325 15.5509C13.225 15.5658 13.2164 15.5889 13.212 15.6231C13.2058 15.6711 13.2064 15.7332 13.212 15.8077C13.2232 15.9571 13.2566 16.1493 13.3047 16.3614C13.4009 16.7852 13.5528 17.283 13.6876 17.67C13.6962 17.6947 13.6955 17.722 13.6856 17.7462C13.6755 17.7704 13.6565 17.7904 13.6329 17.8019C13.6092 17.8132 13.5819 17.8159 13.5567 17.8087C13.5314 17.8013 13.5092 17.7842 13.4952 17.7618V17.7628L13.4874 17.7491C13.4634 17.7111 13.4395 17.6734 13.4161 17.6358C13.4101 17.8797 13.333 18.1971 13.1876 18.5899C13.2833 18.8371 13.388 19.0952 13.4991 19.3575C13.7227 19.8873 13.9353 20.3514 14.0421 20.5812C14.0497 20.5975 14.053 20.6159 14.0518 20.6339C14.0506 20.6518 14.0459 20.6695 14.0362 20.6847C14.0265 20.6998 14.0129 20.7121 13.9971 20.7208C13.9814 20.7294 13.9634 20.7335 13.9454 20.7335C13.9249 20.7335 13.905 20.7279 13.8878 20.7169C13.8791 20.7114 13.871 20.705 13.8643 20.6974L13.8477 20.672C13.7404 20.441 13.5269 19.9737 13.3018 19.4405C13.1843 19.1632 13.0732 18.8906 12.9727 18.63L12.9659 18.5909C12.9659 18.5781 12.9681 18.5651 12.9727 18.5528C13.1178 18.1675 13.1804 17.8976 13.1973 17.7091C13.2124 17.5407 13.1895 17.4416 13.1612 17.3829C13.1491 17.387 13.13 17.3949 13.1026 17.4112C13.0427 17.4469 12.947 17.5187 12.8008 17.6603C12.7876 17.6732 12.7709 17.6829 12.753 17.6876C12.7351 17.6922 12.7161 17.6923 12.6983 17.6876C12.6805 17.6829 12.6646 17.6731 12.6514 17.6603C12.6382 17.6473 12.6282 17.6312 12.6231 17.6134C12.5731 17.4412 12.5367 17.2953 12.5118 17.1681C12.5077 17.1471 12.5103 17.1252 12.5186 17.1056H12.5176C12.6079 16.8919 12.6861 16.7042 12.7491 16.548C12.7549 16.5336 12.7642 16.5204 12.7755 16.5099C12.7868 16.4993 12.8008 16.4913 12.8155 16.4864C12.8302 16.4817 12.8461 16.4797 12.8614 16.4815L12.9044 16.4972L12.9073 16.4981C13.0103 16.5695 13.0934 16.6659 13.1505 16.7774C13.1724 16.8161 13.1973 16.8564 13.2217 16.8985C13.1576 16.6699 13.0945 16.4252 13.0528 16.2003C13.0196 16.0214 12.9986 15.8526 12.9991 15.714C12.9993 15.6449 13.0048 15.5817 13.0176 15.5274C13.0305 15.4735 13.0516 15.4247 13.085 15.3888C13.1057 15.3657 13.1319 15.3481 13.1612 15.338C13.1909 15.3278 13.2231 15.3254 13.254 15.3312H13.253C13.2699 15.3341 13.297 15.339 13.3331 15.3595C13.368 15.3793 13.4089 15.4126 13.459 15.4688C13.5205 15.5379 13.5966 15.6444 13.6934 15.8087C13.6107 15.479 13.5827 15.2755 13.5831 15.1476C13.5834 15.0604 13.5964 15.0025 13.6192 14.963C13.6435 14.9212 13.6757 14.9059 13.6934 14.8976L13.6944 14.8966C13.717 14.8864 13.7419 14.8809 13.7667 14.881C13.7912 14.881 13.8156 14.8865 13.838 14.8966H13.837C13.8937 14.92 13.9498 14.9749 14.003 15.0421C14.0579 15.1114 14.1158 15.2009 14.1729 15.3009C14.2288 15.3987 14.285 15.5081 14.3399 15.6212C14.3086 15.4202 14.2861 15.2231 14.2842 15.0499C14.2827 14.9078 14.2941 14.7785 14.3253 14.6759C14.3563 14.5738 14.4107 14.4892 14.5001 14.4522C14.5278 14.4412 14.5582 14.4358 14.588 14.4376ZM12.7286 17.1573C12.7429 17.227 12.7621 17.3028 12.7842 17.3868C12.9509 17.2415 13.0552 17.1834 13.1309 17.1681C13.0702 17.066 13.014 16.9706 12.9649 16.8839L12.9639 16.8819C12.943 16.8427 12.9168 16.8069 12.8887 16.7726C12.8413 16.8884 12.7877 17.0171 12.7286 17.1573Z" fill="black" stroke="black" stroke-width="0.1"/>
<path d="M24.949 4.45579C24.6048 4.71959 24.3711 5.38402 24.3608 5.81757C24.3491 6.31213 24.435 6.82342 24.7044 7.23837C24.9737 7.65331 25.4504 7.95404 25.944 7.9209C26.4107 7.88956 26.8153 7.57598 27.107 7.21022C27.3375 6.93161 27.5024 6.60465 27.5893 6.25362C27.6751 5.90049 27.6389 5.52868 27.4865 5.19875C27.3803 4.99208 27.2343 4.80838 27.0571 4.65814C26.7716 4.39735 26.4159 4.22595 26.0341 4.16512C25.8437 4.13633 25.6494 4.14707 25.4634 4.19665C25.2774 4.24624 25.1035 4.33361 24.9527 4.45333" fill="black"/>
<path d="M25.8708 7.98057C25.4106 7.9806 24.9408 7.70796 24.6562 7.26955C24.4084 6.8877 24.2897 6.39874 24.3035 5.81626C24.3144 5.35494 24.5624 4.67993 24.9141 4.41039C24.9155 4.4093 24.9169 4.40829 24.9184 4.40737C25.0754 4.28361 25.256 4.19325 25.4492 4.14185C25.6423 4.09044 25.8439 4.07907 26.0417 4.10843C26.4349 4.17006 26.8012 4.34633 27.0947 4.61519C27.2778 4.77035 27.4283 4.96012 27.5378 5.17361C27.6964 5.51514 27.7342 5.90043 27.645 6.26626C27.5567 6.62592 27.3881 6.96087 27.1516 7.24591C26.7977 7.68965 26.3701 7.94967 25.9477 7.978C25.9221 7.97974 25.8964 7.98057 25.8708 7.98057ZM24.9824 4.50224C24.6622 4.74892 24.428 5.39367 24.4179 5.81897C24.4047 6.37798 24.5172 6.84509 24.7522 7.20723C25.0304 7.63583 25.4964 7.89283 25.94 7.86383C26.4662 7.82851 26.8689 7.41681 27.0621 7.17454C27.2878 6.90299 27.4489 6.58379 27.5333 6.24097C27.6168 5.9006 27.5821 5.54197 27.435 5.22391C27.3321 5.02399 27.1908 4.84634 27.0192 4.70114C26.7425 4.44718 26.3972 4.28045 26.0262 4.22182C25.8438 4.19441 25.6576 4.2047 25.4793 4.25207C25.301 4.29943 25.1342 4.38285 24.9894 4.49718C24.9872 4.49905 24.9849 4.50074 24.9824 4.50224Z" fill="black"/>
<path d="M26.4877 5.83766C26.419 5.83755 26.3505 5.83273 26.2825 5.82323C26.0305 5.78278 25.7873 5.69947 25.5634 5.57694C25.4012 5.49277 25.2454 5.39673 25.0974 5.28959C25.0871 5.28211 25.076 5.27434 25.0644 5.26626C24.9831 5.20912 24.8818 5.138 24.8864 5.06054C24.8889 5.01921 24.9199 4.98322 24.981 4.95047C25.1134 4.87961 25.2959 4.85689 25.4569 4.83685C25.4919 4.83252 25.5257 4.8283 25.5575 4.82377C25.757 4.79534 25.9581 4.7803 26.1596 4.77879C26.1671 4.77873 26.1746 4.7787 26.1821 4.7787C26.6532 4.7787 26.9817 4.88721 27.186 5.1102C27.2509 5.17321 27.2919 5.25674 27.3022 5.3466C27.3145 5.55355 27.0972 5.68058 27.0303 5.71459C26.8617 5.79786 26.6757 5.84003 26.4877 5.83766ZM26.1598 4.80595C25.9595 4.80747 25.7596 4.82241 25.5613 4.85066C25.5294 4.85524 25.4954 4.85946 25.4602 4.86382C25.3016 4.88358 25.1218 4.90596 24.9939 4.97445C24.9425 5.00198 24.9154 5.03148 24.9136 5.06219C24.9098 5.12448 25.0042 5.19076 25.0801 5.24402C25.0917 5.25218 25.1029 5.26003 25.1134 5.26758C25.2603 5.37395 25.4149 5.46929 25.5759 5.5528C25.797 5.67392 26.0373 5.75627 26.2862 5.7963C26.5352 5.83671 26.7906 5.79974 27.018 5.69039C27.1482 5.62419 27.284 5.49957 27.275 5.34822C27.2651 5.26463 27.2265 5.18704 27.166 5.12856C26.9639 4.908 26.634 4.80196 26.1598 4.80595Z" fill="black"/>
<path d="M21.0376 4.9656L20.0697 3.98368C19.7677 4.07627 19.4825 4.21662 19.2249 4.3994C18.5628 4.86762 18.1072 5.32394 17.8784 6.27578C17.8721 6.30167 17.8637 6.34647 17.8539 6.40805C17.8418 6.37645 17.8315 6.34421 17.8231 6.31147C17.7804 6.12514 17.7754 5.93216 17.8084 5.74387C17.8637 5.37176 18.0048 5.01762 18.2206 4.70944C18.4203 4.41723 18.6637 4.15735 18.9422 3.93888C19.2529 3.70163 19.7274 3.40068 20.139 3.40207C20.4896 3.40418 20.8032 3.8108 20.9165 4.10405C21.0204 4.37868 21.0618 4.67299 21.0376 4.9656Z" fill="black"/>
<path d="M17.854 6.46526C17.8424 6.46525 17.831 6.4617 17.8215 6.4551C17.8119 6.4485 17.8046 6.43915 17.8005 6.42829C17.7877 6.3947 17.7767 6.3604 17.7678 6.32557C17.7227 6.13195 17.7173 5.93122 17.7519 5.73546C17.8086 5.35458 17.9531 4.99209 18.1739 4.67659C18.377 4.37953 18.6244 4.11538 18.9076 3.89336C19.2356 3.64299 19.7146 3.34486 20.1363 3.34486H20.1393C20.5374 3.34723 20.8601 3.79914 20.9701 4.08341C21.0773 4.36586 21.1199 4.66875 21.0948 4.96983C21.094 4.98079 21.09 4.99129 21.0834 5.00007C21.0768 5.00884 21.0678 5.01552 21.0575 5.01932C21.0472 5.02311 21.036 5.02385 21.0253 5.02145C21.0145 5.01906 21.0047 5.01362 20.997 5.0058L20.0535 4.04867C19.7695 4.13957 19.5012 4.27364 19.258 4.44617C18.5859 4.92149 18.1539 5.37546 17.9342 6.28916C17.9298 6.30688 17.9223 6.34323 17.9105 6.41701C17.9085 6.42947 17.9025 6.44093 17.8933 6.4496C17.8842 6.45827 17.8724 6.46367 17.8598 6.46496C17.8579 6.46517 17.8559 6.46527 17.854 6.46526ZM20.1361 3.45931C19.7466 3.45931 19.291 3.74464 18.977 3.98437C18.7032 4.19925 18.4639 4.45487 18.2676 4.74232C18.057 5.04321 17.9192 5.38893 17.8651 5.7522C17.8438 5.88329 17.8393 6.01658 17.8518 6.1488C18.0877 5.2754 18.5258 4.82383 19.192 4.35267C19.4546 4.16635 19.7453 4.02328 20.0532 3.92891C20.0632 3.92588 20.0738 3.92564 20.0839 3.92821C20.094 3.93078 20.1033 3.93607 20.1106 3.94349L20.9864 4.83199C20.9912 4.59051 20.9494 4.35036 20.8633 4.12471C20.7569 3.84957 20.4618 3.46124 20.1388 3.45931L20.1361 3.45931Z" fill="black"/>
<path d="M25.4603 8.19835C25.3183 8.76244 25.0439 9.30065 24.624 9.70308C24.1404 10.1664 23.4895 10.4261 22.8302 10.5443C22.7987 10.5499 22.7679 10.5548 22.7364 10.5597C22.7609 10.0516 22.7854 9.56521 22.798 9.31255C22.812 9.29435 22.8253 9.27685 22.8379 9.25725C22.9869 9.32941 23.1486 9.3715 23.3138 9.38111C23.4791 9.39071 23.6446 9.36766 23.8009 9.31325C23.9573 9.25885 24.1013 9.17416 24.2249 9.06404C24.3485 8.95392 24.4491 8.82051 24.5211 8.67146C24.6702 8.36421 24.6667 7.94918 24.407 7.72803C24.2195 7.56775 23.9423 7.54885 23.705 7.61744C23.6918 7.62164 23.6778 7.62584 23.6645 7.63073L21.5284 5.46322C21.8862 4.97266 22.3366 4.55682 22.854 4.23913C23.0724 4.10476 23.4167 3.8528 23.6854 3.89199C23.9598 3.93189 24.2803 4.20414 24.4973 4.36441C24.7978 4.57445 25.0502 4.84593 25.2378 5.16087C25.4596 5.55561 25.5366 6.01473 25.5723 6.46545C25.6185 7.04495 25.6031 7.63494 25.4603 8.19835Z" fill="black"/>
<path d="M22.7362 10.617C22.7285 10.617 22.7208 10.6154 22.7137 10.6123C22.7066 10.6093 22.7001 10.6048 22.6948 10.5992C22.6894 10.5936 22.6853 10.587 22.6826 10.5797C22.6799 10.5724 22.6787 10.5647 22.6791 10.557C22.7006 10.1094 22.7222 9.67876 22.7357 9.40974L22.7407 9.30971C22.7412 9.29809 22.7454 9.28693 22.7524 9.27771C22.7655 9.26075 22.7779 9.24449 22.7896 9.22624C22.7971 9.21455 22.8087 9.206 22.8221 9.2022C22.8355 9.1984 22.8498 9.1996 22.8623 9.20559C23.1178 9.32665 23.407 9.3562 23.6817 9.28928C23.8516 9.24539 24.01 9.16522 24.146 9.05427C24.2819 8.94332 24.3923 8.80423 24.4694 8.64658C24.6042 8.36873 24.6132 7.97901 24.3697 7.77161C24.1849 7.61364 23.9134 7.61672 23.7207 7.67243L23.7128 7.67492C23.7032 7.67794 23.6934 7.68099 23.684 7.68445C23.6737 7.68825 23.6625 7.689 23.6517 7.6866C23.641 7.6842 23.6312 7.67876 23.6235 7.67092L21.4875 5.5034C21.478 5.49374 21.4722 5.48102 21.4712 5.4675C21.4702 5.45398 21.474 5.44053 21.482 5.42957C21.8447 4.9334 22.3004 4.51252 22.8239 4.19038C22.8526 4.17272 22.8836 4.15297 22.9162 4.13209C23.1371 3.99123 23.4396 3.79887 23.6935 3.83536C23.943 3.87166 24.2141 4.07788 24.432 4.24362C24.4668 4.27016 24.5 4.29542 24.5311 4.31839C24.875 4.5722 25.1224 4.83862 25.2875 5.13287C25.5314 5.56694 25.5982 6.07062 25.6292 6.46091C25.6824 7.12798 25.6452 7.70091 25.5156 8.21236C25.3603 8.82919 25.0656 9.35897 24.6634 9.74443C24.2188 10.1703 23.5883 10.4664 22.8401 10.6007C22.8081 10.6063 22.7769 10.6113 22.745 10.6163C22.7421 10.6167 22.7392 10.617 22.7362 10.617ZM22.8541 9.33315L22.85 9.41547C22.8372 9.67026 22.8172 10.0702 22.7968 10.492C22.8045 10.4907 22.8122 10.4894 22.82 10.488C23.5459 10.3578 24.1559 10.072 24.5842 9.66176C24.9708 9.29123 25.2545 8.78037 25.4046 8.18438V8.1843C25.5312 7.68517 25.5673 7.1244 25.5151 6.46999C25.485 6.09132 25.4207 5.60357 25.1877 5.18889C25.0307 4.90909 24.7937 4.65446 24.4632 4.41046C24.4316 4.38718 24.398 4.36159 24.3627 4.33471C24.1553 4.17696 23.8972 3.98066 23.677 3.94864C23.4646 3.91745 23.1834 4.09741 22.9778 4.22858C22.9445 4.24978 22.9131 4.26988 22.8838 4.28787C22.387 4.59365 21.9525 4.9906 21.6032 5.45782L23.6801 7.56524L23.6874 7.56292C23.9754 7.47962 24.2576 7.52531 24.444 7.68453C24.7317 7.92957 24.7264 8.3791 24.5723 8.69645C24.4879 8.86909 24.3671 9.0214 24.2182 9.14289C24.0693 9.26439 23.8959 9.35218 23.7098 9.40024C23.4254 9.46966 23.1262 9.44463 22.8573 9.32893L22.8541 9.33315Z" fill="black"/>
<path d="M19.2788 11.3175C19.2765 11.3174 19.2742 11.3173 19.272 11.3171C19.2569 11.3153 19.2432 11.3076 19.2338 11.2957C19.2244 11.2837 19.2201 11.2686 19.2219 11.2535L19.2872 10.7014C19.2892 10.6864 19.2969 10.6728 19.3088 10.6634C19.3207 10.6541 19.3358 10.6497 19.3508 10.6513C19.3659 10.6531 19.3796 10.6608 19.389 10.6727C19.3984 10.6847 19.4027 10.6998 19.4009 10.7149L19.3355 11.267C19.3339 11.2809 19.3272 11.2937 19.3167 11.303C19.3063 11.3123 19.2928 11.3174 19.2788 11.3175Z" fill="black"/>
<path d="M20.0962 3.87958C20.1152 3.88439 20.1333 3.894 20.147 3.9079V3.90887L23.8814 7.69794C23.891 7.70778 23.8986 7.71937 23.9038 7.73212C23.9091 7.74505 23.9117 7.75917 23.9117 7.77313C23.9116 7.78708 23.9092 7.80128 23.9038 7.81415C23.8984 7.8271 23.8904 7.83942 23.8804 7.8493C23.8704 7.85914 23.8582 7.86647 23.8452 7.87177C23.8322 7.87704 23.8183 7.88064 23.8042 7.88055C23.7902 7.88045 23.7761 7.8772 23.7632 7.87177C23.7502 7.86627 23.7379 7.85838 23.7281 7.84833L20.0406 4.10614C19.7722 4.19519 19.5184 4.32333 19.2876 4.487C18.9534 4.72339 18.6814 4.95273 18.4663 5.23407C18.2518 5.51477 18.0913 5.84979 17.9829 6.30048V6.30145C17.9791 6.3173 17.972 6.35203 17.9605 6.4245C17.934 6.59456 17.8176 7.4345 17.9458 8.33368C18.0742 9.23363 18.4452 10.1767 19.3765 10.5827C19.3782 10.5832 19.3797 10.5841 19.3814 10.5847L19.5601 10.6364C19.9794 10.7412 20.42 10.7364 20.8384 10.6198L20.8394 10.6188C21.1053 10.5481 21.3598 10.4399 21.5952 10.2975C21.5987 10.2955 21.6023 10.2934 21.606 10.2917C21.6713 10.2526 21.7401 10.2082 21.815 10.155C21.8173 10.1533 21.8194 10.1515 21.8218 10.1501L22.0201 9.99481C22.2133 9.83303 22.3913 9.65294 22.5513 9.4577C22.5995 9.39913 22.6487 9.33543 22.7076 9.25458C22.7243 9.23158 22.7498 9.21604 22.7779 9.21161C22.8058 9.20731 22.8341 9.21449 22.857 9.23114C22.8799 9.24782 22.8954 9.27251 22.8999 9.30048C22.9044 9.32857 22.8971 9.35756 22.8804 9.38055C22.8199 9.4637 22.7686 9.53081 22.7193 9.59052C22.7186 9.59144 22.718 9.59258 22.7173 9.59344L22.7163 9.59442C22.4899 9.87073 22.2292 10.1177 21.9409 10.3288C21.938 10.3309 21.9343 10.3319 21.9312 10.3337C21.851 10.3904 21.7772 10.4387 21.7056 10.4811L21.7066 10.4821C21.7046 10.4833 21.7018 10.483 21.6997 10.4841L21.7007 10.485C21.5121 10.5986 21.3119 10.6911 21.104 10.7624L20.8941 10.8268C20.6534 10.892 20.4051 10.925 20.1558 10.9255C19.87 10.9261 19.5858 10.8799 19.315 10.7888V10.7878C19.3136 10.7874 19.3123 10.7872 19.3111 10.7868C19.3065 10.7855 19.3018 10.7848 19.2974 10.7829C18.2743 10.3404 17.8756 9.32159 17.7378 8.38348C17.5999 7.44395 17.7208 6.5696 17.7486 6.3913C17.7583 6.32978 17.7676 6.28092 17.7749 6.25067C17.8904 5.77065 18.0617 5.40888 18.2935 5.10516C18.5248 4.80215 18.8148 4.55889 19.1636 4.31219C19.4304 4.12286 19.7258 3.97747 20.0386 3.88153H20.0396C20.0581 3.876 20.0775 3.87491 20.0962 3.87958Z" fill="black" stroke="black" stroke-width="0.1"/>
<path d="M23.3943 9.43897C23.1935 9.43905 22.9952 9.39464 22.8136 9.30893C22.7443 9.27611 22.6781 9.23714 22.6158 9.19248C22.6035 9.18364 22.5952 9.17025 22.5927 9.15527C22.5902 9.1403 22.5938 9.12495 22.6027 9.11262C22.6115 9.10029 22.6249 9.09198 22.6399 9.08951C22.6549 9.08705 22.6702 9.09064 22.6825 9.09949C22.7393 9.14015 22.7996 9.17564 22.8627 9.20553C23.1181 9.32663 23.4075 9.3562 23.6821 9.28928C23.852 9.24539 24.0104 9.16522 24.1464 9.05427C24.2824 8.94332 24.3927 8.80423 24.4698 8.64658C24.6047 8.36873 24.6137 7.97901 24.3702 7.77161C24.1853 7.61364 23.9138 7.6168 23.7211 7.67241L23.7133 7.67492C23.7036 7.67794 23.6939 7.68099 23.6844 7.68445C23.4665 7.75579 23.2672 7.89498 23.0913 8.01782C23.0789 8.0265 23.0635 8.02989 23.0486 8.02723C23.0336 8.02458 23.0204 8.01609 23.0117 8.00365C23.003 7.99121 22.9996 7.97582 23.0023 7.96088C23.0049 7.94594 23.0134 7.93267 23.0258 7.92398C23.2081 7.79662 23.4148 7.65226 23.6469 7.57634C23.6561 7.57293 23.6677 7.56927 23.6789 7.56572L23.6879 7.56292C23.9758 7.47962 24.258 7.52531 24.4444 7.68453C24.7321 7.92957 24.7268 8.3791 24.5728 8.69646C24.4884 8.8691 24.3676 9.0214 24.2187 9.1429C24.0698 9.26439 23.8963 9.35219 23.7102 9.40024C23.6069 9.42617 23.5008 9.43918 23.3943 9.43897Z" fill="black"/>
<path d="M23.4352 9.1545C23.4219 9.15449 23.4091 9.14987 23.3988 9.14142C23.3886 9.13297 23.3816 9.12122 23.379 9.10819C23.3765 9.09516 23.3786 9.08165 23.3849 9.06997C23.3912 9.0583 23.4014 9.04919 23.4137 9.04421C23.5024 9.0083 23.5866 8.96543 23.6025 8.89541C23.6052 8.88002 23.6045 8.86424 23.6006 8.84911C23.5967 8.83399 23.5897 8.81987 23.5799 8.80769C23.5662 8.78947 23.5489 8.77427 23.5291 8.76307C23.5092 8.75186 23.4873 8.74489 23.4646 8.74258C23.4183 8.74337 23.3729 8.75525 23.3322 8.77724C23.2915 8.79922 23.2567 8.83066 23.2306 8.86892C23.2234 8.87818 23.2134 8.88498 23.2021 8.88838C23.1908 8.89177 23.1788 8.8916 23.1676 8.88789C23.1564 8.88417 23.1466 8.8771 23.1396 8.86762C23.1326 8.85815 23.1287 8.84674 23.1284 8.83496C23.122 8.57028 23.2896 8.29409 23.5767 8.09613C23.5892 8.08752 23.6046 8.08423 23.6195 8.08697C23.6344 8.08972 23.6477 8.09828 23.6563 8.11078C23.6649 8.12327 23.6682 8.13868 23.6654 8.1536C23.6627 8.16853 23.6541 8.18175 23.6416 8.19036C23.4401 8.32932 23.3048 8.50816 23.2594 8.68851C23.322 8.64591 23.3967 8.62482 23.4724 8.6284C23.5116 8.63163 23.5496 8.6432 23.584 8.66233C23.6184 8.68145 23.6482 8.7077 23.6717 8.73931C23.6916 8.76459 23.7057 8.79392 23.713 8.82526C23.7204 8.85659 23.7208 8.88915 23.7141 8.92064C23.6829 9.05871 23.5301 9.12058 23.4567 9.15028C23.4498 9.15306 23.4426 9.15449 23.4352 9.1545Z" fill="black"/>
<path d="M24.5387 6.62501C24.461 6.99944 24.3679 7.38507 24.0627 7.61673C23.9822 7.67735 23.8956 7.72964 23.8045 7.7728C23.5771 7.8787 23.3324 7.94226 23.0822 7.96037L22.8331 8.23193C22.8148 8.24541 22.7934 8.25397 22.7708 8.25679C22.7483 8.25961 22.7255 8.25658 22.7044 8.248C22.6834 8.23943 22.665 8.22559 22.6508 8.20782C22.6367 8.19006 22.6274 8.16895 22.6238 8.14654L22.4824 7.71052C21.8255 7.31678 21.2713 6.77307 20.865 6.12389C20.4626 5.4758 20.1567 4.74023 20.0699 3.98367C20.0472 3.7928 20.0395 3.60044 20.0468 3.40836C21.0309 3.2033 22.1577 3.14172 23.0969 3.49935C23.4258 3.62532 24.1873 4.03476 24.4141 4.30351C24.6667 4.60236 24.5254 4.74443 24.6387 5.11887C24.729 5.41492 24.5946 6.35485 24.5387 6.62501Z" fill="black"/>
<path d="M22.7546 8.31615C22.735 8.31614 22.7154 8.31285 22.6969 8.30642C22.6653 8.2947 22.637 8.2754 22.6146 8.25021C22.5922 8.22502 22.5764 8.19471 22.5684 8.16196L22.4344 7.7485C21.7777 7.35096 21.2234 6.80485 20.8162 6.1541C20.3707 5.43684 20.093 4.68856 20.0129 3.9902C19.9898 3.79641 19.982 3.60111 19.9895 3.40609C19.99 3.39335 19.9947 3.38113 20.003 3.3714C20.0112 3.36166 20.0225 3.35496 20.035 3.35236C20.8713 3.1781 22.0849 3.05288 23.117 3.44588C23.4546 3.57518 24.2199 3.98494 24.4576 4.26661C24.6251 4.46479 24.6324 4.60333 24.6409 4.76376C24.6435 4.87841 24.6611 4.99223 24.6933 5.1023C24.7911 5.42314 24.643 6.40234 24.5945 6.63665C24.5104 7.04206 24.409 7.42555 24.0971 7.66232C24.0134 7.72529 23.9236 7.77962 23.8289 7.82448C23.6023 7.93053 23.3586 7.99519 23.1092 8.01539L22.875 8.27065C22.8725 8.27337 22.8698 8.27584 22.8668 8.27803C22.8344 8.30244 22.7951 8.31581 22.7546 8.31615ZM20.1023 3.45536C20.0979 3.6296 20.106 3.80393 20.1266 3.97701C20.2048 4.65883 20.4769 5.39073 20.9134 6.09374C21.3149 6.73519 21.8626 7.27244 22.5117 7.66151C22.5235 7.66863 22.5324 7.67978 22.5366 7.69289L22.678 8.1289C22.681 8.14415 22.6877 8.15844 22.6975 8.17052C22.7073 8.1826 22.7199 8.19211 22.7341 8.19823C22.7443 8.20158 22.7551 8.20247 22.7656 8.20081C22.7762 8.19916 22.7862 8.195 22.7948 8.1887L23.0398 7.9217C23.0495 7.91117 23.0628 7.90464 23.077 7.90339C23.3202 7.88608 23.5582 7.82438 23.7792 7.72134C23.867 7.6798 23.9504 7.62947 24.028 7.57112C24.3087 7.35805 24.3998 7.01132 24.4824 6.6134C24.5492 6.29108 24.6643 5.39948 24.5838 5.13561C24.5487 5.01672 24.5295 4.89372 24.5266 4.7698C24.5186 4.61857 24.5129 4.50928 24.3701 4.34047C24.1478 4.07693 23.3955 3.67508 23.0762 3.55282C22.0878 3.17648 20.9217 3.28904 20.1023 3.45536Z" fill="black"/>
<path d="M22.8743 10.8652L22.9319 10.8906L22.9964 10.9453C23.0555 11.0113 23.1005 11.1112 23.136 11.2373C23.1841 11.4079 23.2174 11.6384 23.2376 11.9296V11.9306L23.2425 12.0136V12.0165C23.485 12.2004 24.7363 13.1925 25.3978 14.582H25.3968C25.4108 14.6067 25.424 14.6319 25.4349 14.6581C25.6207 15.0538 25.7427 15.4764 25.7972 15.9101V15.9111C25.7977 15.9153 25.7982 15.9196 25.7982 15.9238V15.9248C25.7983 15.9267 25.7987 15.9297 25.7991 15.9335C25.8702 16.6181 25.8894 17.3076 25.8568 17.9951V17.997C25.8567 18.0253 25.8455 18.0522 25.8255 18.0722C25.8055 18.0922 25.7786 18.1034 25.7503 18.1035C25.7219 18.1035 25.6942 18.0923 25.6741 18.0722C25.6542 18.0522 25.643 18.0253 25.6429 17.997V17.9882C25.6751 17.3111 25.6561 16.6322 25.5862 15.958L25.5843 15.9335C25.5322 15.5227 25.4157 15.1228 25.2396 14.748L25.2386 14.7451C25.2297 14.7235 25.2198 14.7019 25.2083 14.6816L25.2064 14.6787C24.8522 13.9351 24.3234 13.3077 23.8802 12.8642C23.6587 12.6426 23.4588 12.467 23.3138 12.3466C23.2416 12.2867 23.1829 12.2405 23.1419 12.2089C23.1216 12.1933 23.1052 12.1811 23.0941 12.1728C23.0887 12.1688 23.0844 12.1652 23.0814 12.163C23.0799 12.1619 23.0783 12.1607 23.0775 12.1601L23.0765 12.1591H23.0755C23.0631 12.1502 23.0528 12.1382 23.0452 12.1249C23.0377 12.1117 23.033 12.0971 23.0316 12.082L23.0296 12.0517C23.0293 12.0441 23.0292 12.0376 23.0286 12.0312V12.0292L23.0237 11.9443L23.0023 11.708C22.9788 11.4955 22.9492 11.3512 22.9183 11.2539C22.8766 11.1226 22.8357 11.0838 22.8187 11.0732C22.8129 11.0703 22.8066 11.0683 22.8001 11.0683C22.7928 11.0684 22.7849 11.0705 22.7786 11.0742L22.7718 11.0781C22.7638 11.0811 22.7537 11.0833 22.7454 11.0849C22.7359 11.0868 22.724 11.0887 22.7103 11.0908C22.6827 11.0949 22.6457 11.0991 22.6009 11.1044C22.5109 11.1151 22.3877 11.128 22.2415 11.1425C21.949 11.1715 21.5629 11.2067 21.1624 11.2421C20.3613 11.3131 19.5018 11.3853 19.2151 11.4091H19.2142C19.1634 11.4129 19.1144 11.4295 19.0716 11.457C19.0502 11.4707 19.0302 11.4864 19.013 11.5048L18.9691 11.5664C18.9295 11.6424 18.9169 11.7429 18.9241 11.8574C18.9314 11.9713 18.9582 12.095 18.9935 12.2138C19.0639 12.4511 19.1656 12.6635 19.2005 12.7333L19.2191 12.7685V12.7695C19.2283 12.7862 19.2332 12.8051 19.2327 12.8242C19.2322 12.8432 19.2262 12.8617 19.2161 12.8779L19.2151 12.8798C19.2145 12.8809 19.2127 12.8836 19.2103 12.8876C19.2066 12.8938 19.2009 12.9027 19.1937 12.915C18.9726 13.2939 17.84 15.2804 17.221 17.1914C17.0717 17.6507 16.9843 18.3875 16.9651 19.3847C16.9646 19.4128 16.953 19.4393 16.9329 19.4589C16.913 19.4784 16.8866 19.4901 16.8587 19.4902H16.8558C16.8275 19.4895 16.8002 19.4774 16.7806 19.457C16.7611 19.4366 16.7508 19.409 16.7513 19.3808C16.7708 18.3704 16.8594 17.6097 17.0169 17.1249C17.6379 15.208 18.7665 13.2213 19.0023 12.8164C18.9469 12.7044 18.8429 12.4771 18.7747 12.2285C18.7393 12.0991 18.7133 11.9624 18.7093 11.832C18.7053 11.7018 18.7226 11.5743 18.7786 11.4667L18.7796 11.4658C18.8208 11.39 18.8802 11.3254 18.9525 11.2783C19.0247 11.2311 19.1077 11.2024 19.1937 11.1953C19.8717 11.1389 20.7235 11.0663 21.4193 11.0039C21.7672 10.9726 22.0766 10.9445 22.305 10.9218C22.419 10.9105 22.5128 10.9005 22.5814 10.8925C22.6157 10.8885 22.6437 10.8847 22.6644 10.8818C22.6744 10.8804 22.6825 10.879 22.6888 10.8779C22.6918 10.8773 22.6947 10.8773 22.6966 10.8769L22.6995 10.8759V10.8769C22.7352 10.8611 22.7737 10.8526 22.8128 10.8544C22.8336 10.8554 22.8546 10.8592 22.8743 10.8652Z" fill="black" stroke="black" stroke-width="0.1"/>
<path d="M21.5587 18.6568C21.572 18.6614 21.5842 18.6689 21.5948 18.6783C21.6053 18.6876 21.6141 18.6988 21.6202 18.7115C21.6262 18.724 21.6301 18.7376 21.6309 18.7515C21.6317 18.7656 21.6297 18.7802 21.6251 18.7935C21.4926 19.1843 21.3821 19.582 21.294 19.9849L21.213 20.3892C21.2126 20.3911 21.2115 20.3931 21.211 20.3951C21.1105 20.9384 21.0407 21.4876 20.9991 22.0386C20.9991 22.0491 20.9974 22.0595 20.9962 22.0699L20.9942 22.1226C20.9925 22.1501 20.9901 22.1751 20.9893 22.1968V22.1988C20.9862 22.2342 20.9847 22.2587 20.9835 22.2798V22.2876C20.9829 22.3039 20.9826 22.3168 20.9825 22.3257C20.9823 22.3349 20.9825 22.3404 20.9825 22.3404C20.9824 22.3687 20.9703 22.3955 20.9503 22.4156C20.9302 22.4356 20.9034 22.4477 20.8751 22.4478C20.8558 22.4478 20.8369 22.442 20.8204 22.4322L17.7559 20.6119C17.744 20.6047 17.734 20.5947 17.7256 20.5835C17.7172 20.5723 17.7106 20.5591 17.7071 20.5455C17.7037 20.5319 17.7031 20.5173 17.7051 20.5035C17.7072 20.4897 17.7117 20.4764 17.7188 20.4644C17.726 20.4523 17.7359 20.4416 17.7471 20.4332C17.7584 20.4248 17.7716 20.419 17.7852 20.4156C17.7986 20.4122 17.8125 20.4107 17.8262 20.4126C17.8402 20.4147 17.8542 20.4201 17.8663 20.4273L20.7764 22.1568C20.7772 22.1418 20.7783 22.1253 20.7794 22.1089L20.7833 22.0533V22.0503C20.784 22.0442 20.7844 22.0379 20.7842 22.0318V22.0269C20.8262 21.4678 20.8982 20.9112 21.0001 20.3599C21.0007 20.3553 21.0018 20.3507 21.003 20.3462C21.1023 19.7956 21.2423 19.2531 21.4219 18.7232L21.4434 18.6871C21.4527 18.6765 21.464 18.6678 21.4766 18.6617C21.4893 18.6555 21.5036 18.6518 21.5176 18.6509C21.5316 18.6501 21.5455 18.6522 21.5587 18.6568Z" fill="black" stroke="black" stroke-width="0.1"/>
<path d="M25.6916 15.8171L25.7316 15.8249C25.7442 15.8301 25.7559 15.8377 25.7658 15.8474C25.7853 15.8667 25.7972 15.8932 25.798 15.9206L25.799 15.9284V15.9333C25.8094 16.0918 25.8587 16.911 25.8566 17.9909V17.9968C25.8538 19.5786 25.7404 21.7883 25.2199 23.32L25.2209 23.321C25.22 23.3252 25.2193 23.3296 25.2179 23.3337C25.2069 23.3658 25.195 23.397 25.1837 23.4274C25.1768 23.4464 25.17 23.4653 25.1632 23.4841V23.4851C24.794 24.4808 24.3013 25.2897 23.7003 25.8913L23.7013 25.8923C23.6948 25.901 23.6863 25.9078 23.6779 25.9147C23.5159 26.0741 23.3434 26.2225 23.1603 26.3571L23.0695 26.4226C22.2703 26.9768 21.2985 27.2545 20.1779 27.2546C20.0103 27.2546 19.8393 27.2485 19.6652 27.236C18.9757 27.1868 18.2373 26.8458 17.4718 26.2292V26.2282L17.2023 26.0026C16.1748 25.1012 15.3615 23.9229 14.7697 23.0007C14.7545 22.9768 14.7489 22.9473 14.755 22.9196C14.7612 22.8922 14.7783 22.8685 14.8019 22.8532C14.8258 22.8379 14.8552 22.8326 14.883 22.8386C14.9106 22.8446 14.935 22.8617 14.9503 22.8855C15.464 23.6859 16.1416 24.6732 16.9767 25.4987L17.3449 25.8425L17.6046 26.0603L17.6056 26.0612C18.3442 26.6563 19.0417 26.9765 19.6798 27.0222C20.974 27.1148 22.0721 26.852 22.9464 26.2458C22.9758 26.2253 23.0035 26.2058 23.0324 26.1843H23.0334C23.2093 26.0549 23.3758 25.9128 23.5314 25.7595C23.5341 25.756 23.5371 25.7528 23.5402 25.7497C24.121 25.1716 24.5997 24.3859 24.9611 23.4118L24.9826 23.3532L25.0128 23.2692C25.0134 23.2671 25.0141 23.2645 25.0148 23.2624L25.1066 22.9733C25.5414 21.4911 25.6392 19.475 25.6418 17.9968V17.9899C25.6438 16.929 25.5966 16.1226 25.5861 15.9577L25.5832 15.9235V15.9226C25.5837 15.8946 25.5955 15.8681 25.6154 15.8483C25.6353 15.8286 25.6625 15.8173 25.6906 15.8171H25.6916Z" fill="black" stroke="black" stroke-width="0.1"/>
<path d="M11.6965 15.4355L11.6974 15.4345C11.7654 15.452 11.8278 15.4881 11.8771 15.538C11.9017 15.5629 11.9227 15.5908 11.9396 15.621L11.9777 15.7187L11.9787 15.7197C11.9926 15.7844 11.9912 15.8708 11.9816 15.9687C11.9718 16.0678 11.9523 16.183 11.9259 16.3066C11.902 16.419 11.8717 16.5393 11.8381 16.6621L12.298 15.8349C12.3006 15.8303 12.3036 15.8254 12.3068 15.8212L12.3918 15.7363C12.4229 15.7119 12.457 15.6911 12.4933 15.6748C12.5658 15.6422 12.6455 15.6272 12.7248 15.6318C12.7986 15.6351 12.8712 15.6566 12.9347 15.6943C12.998 15.7318 13.0508 15.7848 13.089 15.8476C13.1164 15.8909 13.1346 15.9395 13.1418 15.9902C13.1489 16.041 13.1456 16.0933 13.131 16.1425C13.1089 16.2201 13.048 16.3762 12.9504 16.6181L12.9513 16.6191C12.9504 16.6226 12.9488 16.6265 12.9474 16.6298C12.8811 16.7938 12.8013 16.9855 12.717 17.1845C12.7165 17.1859 12.7156 17.1871 12.715 17.1884C12.6517 17.3394 12.5869 17.4914 12.5275 17.6308C12.5703 17.5864 12.6121 17.545 12.6515 17.5068C12.8132 17.3502 12.9286 17.2629 13.0138 17.2158C13.0993 17.1686 13.1574 17.1601 13.2033 17.166C13.2305 17.1691 13.2575 17.1783 13.2804 17.1933C13.3031 17.2081 13.3214 17.2286 13.3351 17.2519H13.3361C13.414 17.3814 13.4335 17.5616 13.4054 17.7871C13.3772 18.0138 13.2992 18.294 13.173 18.6289C13.0681 18.9088 12.9286 19.2295 12.757 19.581C12.2038 20.7146 11.5422 21.8448 11.5353 21.8564C11.526 21.8723 11.5123 21.8852 11.4963 21.8945C11.48 21.9038 11.4613 21.9092 11.4426 21.9091C11.4237 21.9091 11.4051 21.904 11.3888 21.8945C11.3727 21.8851 11.3591 21.8717 11.3498 21.8554C11.3405 21.8392 11.3351 21.8204 11.3351 21.8017C11.3352 21.783 11.3404 21.7642 11.3498 21.748C11.3563 21.7368 12.0141 20.6123 12.5636 19.4863C12.7326 19.1401 12.8706 18.8265 12.9728 18.5537V18.5527C13.1179 18.1675 13.1805 17.8974 13.1974 17.7089C13.2125 17.5406 13.1896 17.4414 13.1613 17.3828C13.1491 17.3868 13.1296 17.3955 13.1017 17.4121C13.0418 17.4478 12.9468 17.5198 12.8009 17.6611L12.8 17.6601C12.7045 17.7549 12.6121 17.8526 12.5217 17.9521L12.258 18.2578L12.2502 18.2666V18.2675C12.2336 18.2871 12.2101 18.2996 12.1847 18.3037C12.1594 18.3076 12.1333 18.3026 12.1115 18.289C12.0898 18.2755 12.0733 18.2548 12.0656 18.2304C12.058 18.2059 12.0592 18.1788 12.0695 18.1552H12.0705C12.0889 18.1132 12.3068 17.6084 12.5158 17.1103C12.5163 17.1088 12.517 17.1071 12.5177 17.1054L12.7472 16.5537C12.7479 16.5517 12.7484 16.5497 12.7492 16.5478C12.8483 16.3023 12.9056 16.1511 12.925 16.083L12.9289 16.0195C12.9259 15.9986 12.9188 15.9786 12.9074 15.9609L12.9064 15.9599C12.8862 15.9267 12.8579 15.8986 12.8244 15.8789C12.7909 15.8592 12.7529 15.8483 12.714 15.8466H12.7131C12.6686 15.844 12.6239 15.8511 12.5832 15.8691C12.543 15.8869 12.5075 15.9141 12.4797 15.9482L11.3771 17.9335C11.3635 17.9584 11.3408 17.9773 11.3136 17.9853C11.2866 17.9932 11.2574 17.9899 11.2326 17.9765C11.2077 17.963 11.189 17.9401 11.1808 17.913C11.1727 17.886 11.1755 17.8569 11.1886 17.832C11.3079 17.606 11.47 17.164 11.5939 16.7373C11.6558 16.5243 11.7082 16.3162 11.7404 16.1425C11.7565 16.0557 11.7677 15.9781 11.7726 15.913C11.7776 15.8483 11.7754 15.7992 11.7687 15.7666C11.7609 15.7367 11.7456 15.7092 11.7238 15.6875C11.702 15.6657 11.6746 15.6503 11.6447 15.6425L11.6418 15.6416C11.626 15.6366 11.609 15.6363 11.5929 15.6406C11.5769 15.6449 11.5621 15.6537 11.5509 15.666C10.9612 16.3455 10.694 16.9107 10.2785 18.0097L10.2775 18.0117C10.2727 18.0228 10.2692 18.0314 10.2658 18.041C10.2599 18.0577 10.2496 18.073 10.2365 18.0849C10.2234 18.0968 10.2078 18.106 10.1906 18.1103C10.1734 18.1146 10.1551 18.1137 10.1379 18.1093C10.1208 18.105 10.1049 18.0968 10.092 18.0849L10.091 18.0839C10.0076 18.0055 9.92709 17.9241 9.84978 17.8398L9.62712 17.5781C9.6012 17.5466 9.57473 17.5154 9.54802 17.4834C9.08798 17.9898 8.93858 18.5714 8.83513 19.4589C8.83359 19.4726 8.82904 19.4859 8.82243 19.498C8.81563 19.5104 8.80616 19.5214 8.79509 19.5302C8.78393 19.5391 8.77072 19.546 8.757 19.5498C8.74362 19.5534 8.72975 19.5534 8.71599 19.5517H8.71501C8.70137 19.55 8.68796 19.5467 8.67595 19.54C8.66365 19.5331 8.65246 19.5237 8.64372 19.5126C8.63511 19.5017 8.62899 19.4889 8.62517 19.4755C8.62133 19.462 8.6206 19.4475 8.62224 19.4335C8.72807 18.5258 8.88261 17.9027 9.37321 17.3544L9.47575 17.246C9.4861 17.2352 9.49891 17.2271 9.51286 17.2216C9.52689 17.2161 9.54177 17.2129 9.55681 17.2138C9.57128 17.2145 9.58574 17.2183 9.5988 17.2246C9.61188 17.2309 9.62345 17.24 9.63298 17.2509C9.68972 17.3168 9.74226 17.3806 9.79314 17.4423H9.79411C9.89705 17.5719 10.0075 17.6952 10.1232 17.8134C10.52 16.7748 10.7983 16.2057 11.3898 15.5244L11.4543 15.4687C11.4782 15.4535 11.5049 15.4424 11.5324 15.4345C11.5862 15.4191 11.6427 15.42 11.6965 15.4355Z" fill="black" stroke="black" stroke-width="0.1"/>
<path d="M6.73621 19.9179C6.76397 19.9232 6.78858 19.9395 6.80457 19.9628C6.82045 19.9862 6.82632 20.0151 6.82117 20.0429C6.5347 21.565 5.52107 22.2526 5.47351 22.2841C5.45613 22.2956 5.43574 22.3016 5.41492 22.3017C5.39188 22.3017 5.36897 22.2939 5.35046 22.2802C5.33211 22.2665 5.31803 22.2475 5.3114 22.2255C5.30478 22.2035 5.30559 22.1798 5.31335 22.1581C5.32116 22.1365 5.33618 22.1181 5.35535 22.1054L5.36707 22.0966C5.37454 22.0913 5.38564 22.0836 5.39929 22.0732C5.42711 22.0519 5.46706 22.0201 5.5155 21.9775C5.61249 21.8922 5.74386 21.7637 5.88367 21.5908C6.1634 21.2447 6.4763 20.7199 6.61121 20.0029C6.61654 19.975 6.63271 19.9505 6.65613 19.9345C6.67954 19.9186 6.7084 19.9127 6.73621 19.9179Z" fill="black" stroke="black" stroke-width="0.1"/>
<path d="M22.6562 11.0483C22.6536 11.0483 22.651 11.0481 22.6485 11.0478C22.641 11.0468 22.6338 11.0443 22.6274 11.0405C22.6209 11.0367 22.6152 11.0317 22.6106 11.0257C22.6061 11.0198 22.6027 11.0129 22.6008 11.0057C22.5989 10.9984 22.5984 10.9908 22.5995 10.9834L22.6921 10.3001C22.6941 10.285 22.7021 10.2714 22.7141 10.2622C22.7262 10.2531 22.7414 10.2491 22.7565 10.2511C22.7715 10.2531 22.7851 10.261 22.7943 10.2731C22.8035 10.2852 22.8075 10.3004 22.8055 10.3154L22.7129 10.9988C22.711 11.0125 22.7043 11.025 22.6939 11.0342C22.6834 11.0433 22.6701 11.0483 22.6562 11.0483Z" fill="black"/>
<path d="M23.1602 11.967C23.1739 11.9699 23.1867 11.9757 23.1983 11.9836C23.2099 11.9916 23.2199 12.0021 23.2276 12.0139C23.2351 12.0255 23.2406 12.0383 23.2432 12.052C23.2458 12.0657 23.2461 12.0803 23.2432 12.094C23.2403 12.1078 23.2346 12.1214 23.2266 12.133C23.2186 12.1446 23.2081 12.1547 23.1963 12.1623C23.1846 12.1699 23.171 12.1754 23.1573 12.1779L19.1446 12.927C19.1382 12.9282 19.1315 12.9289 19.125 12.9289C19.0984 12.9289 19.0725 12.9185 19.0528 12.9006C19.033 12.8826 19.0201 12.8579 19.0176 12.8313C19.0152 12.8047 19.0231 12.7783 19.0391 12.757C19.0551 12.7359 19.0785 12.721 19.1045 12.716L23.1182 11.967C23.1321 11.9644 23.1464 11.9641 23.1602 11.967Z" fill="black" stroke="black" stroke-width="0.1"/>
<path d="M5.01892 11.0429C5.05885 11.0429 5.32696 11.0519 5.67908 11.288C6.03109 11.524 6.4637 11.9844 6.83923 12.8788C6.84464 12.8917 6.8479 12.9059 6.84802 12.9198C6.84809 12.9337 6.84541 12.9479 6.84021 12.9608C6.83489 12.9738 6.82666 12.986 6.81677 12.996C6.80697 13.0059 6.79542 13.014 6.78259 13.0194L6.7406 13.0282C6.71951 13.0282 6.6986 13.0213 6.68103 13.0097C6.66361 12.998 6.65007 12.9812 6.64197 12.9618C6.2842 12.1097 5.87707 11.6842 5.56189 11.4716C5.40424 11.3653 5.26829 11.3121 5.17224 11.285C5.12418 11.2715 5.08528 11.2641 5.05896 11.2606C5.03418 11.2573 5.02023 11.2567 5.01892 11.2567H5.01794C5.00396 11.2568 4.98988 11.2542 4.97693 11.2489C4.964 11.2436 4.95172 11.2363 4.94177 11.2265C4.9216 11.2065 4.9107 11.1787 4.91052 11.1503C4.91042 11.122 4.92089 11.0943 4.9408 11.0741C4.96078 11.0539 4.98853 11.043 5.01697 11.0429H5.01892Z" fill="black" stroke="black" stroke-width="0.1"/>
<path d="M17.7545 20.2991C17.6047 19.9528 17.4299 19.6179 17.2314 19.297C17.1535 19.1717 17.04 19.0725 16.9055 19.0119C16.771 18.9512 16.6215 18.932 16.476 18.9565C15.8967 19.0549 15.3476 19.2845 14.8707 19.6278C14.121 20.1749 13.7742 20.7489 13.6151 21.1335C13.5624 21.2606 13.5462 21.4 13.5684 21.5359C13.5905 21.6718 13.6501 21.7988 13.7405 21.9026C14.0126 22.2143 14.3018 22.5107 14.6069 22.7902C14.6803 22.8576 14.7665 22.9096 14.8604 22.943L14.8776 22.9287C14.8429 22.768 14.8681 22.6001 14.9486 22.4566C15.617 21.2708 16.6814 20.7231 17.2434 20.5057C17.3323 20.471 17.4275 20.4553 17.5228 20.4596C17.6181 20.4639 17.7115 20.4882 17.7968 20.5309L17.8111 20.5194C17.804 20.4434 17.7849 20.3691 17.7545 20.2991ZM14.7677 22.2672C14.7638 22.2729 14.7594 22.2783 14.7546 22.2832C14.7445 22.2933 14.7325 22.3013 14.7193 22.3067C14.7062 22.3122 14.692 22.3149 14.6778 22.3149C14.6635 22.3148 14.6494 22.3119 14.6362 22.3064C14.6231 22.3009 14.6112 22.2928 14.6012 22.2826L13.8372 21.5146C13.8169 21.4943 13.8054 21.4667 13.8054 21.4379C13.8054 21.4092 13.8169 21.3816 13.8372 21.3612C13.8575 21.3409 13.8851 21.3295 13.9139 21.3295C13.9426 21.3295 13.9702 21.3409 13.9906 21.3612L14.7546 22.1298C14.7725 22.1476 14.7836 22.171 14.786 22.1961C14.7884 22.2212 14.7819 22.2463 14.7677 22.2672ZM15.0567 21.7149C15.0527 21.7206 15.0481 21.7258 15.0436 21.7315C15.0228 21.7515 14.995 21.7625 14.9662 21.7622C14.9374 21.7619 14.9099 21.7502 14.8896 21.7298L14.0856 20.912C14.0653 20.8915 14.054 20.8638 14.0542 20.835C14.0543 20.8062 14.0659 20.7786 14.0864 20.7583C14.1069 20.7381 14.1346 20.7268 14.1634 20.7269C14.1922 20.7271 14.2198 20.7387 14.2401 20.7592L15.0447 21.5781C15.0622 21.596 15.073 21.6194 15.0752 21.6444C15.0773 21.6693 15.0708 21.6942 15.0567 21.7149ZM15.5357 21.1117C15.5303 21.1195 15.5242 21.1268 15.5174 21.1335C15.4956 21.1522 15.4673 21.1615 15.4387 21.1593C15.41 21.1572 15.3834 21.1438 15.3646 21.122L14.6063 20.2459C14.5876 20.2242 14.5782 20.1959 14.5803 20.1673C14.5824 20.1387 14.5958 20.1121 14.6175 20.0933C14.6392 20.0746 14.6675 20.0652 14.6961 20.0673C14.7247 20.0694 14.7513 20.0828 14.77 20.1045L15.5283 20.9801C15.5438 20.9982 15.553 21.0209 15.5543 21.0447C15.5556 21.0684 15.5491 21.092 15.5357 21.1117ZM16.1057 20.659C16.0977 20.6709 16.0874 20.681 16.0754 20.6888C16.0514 20.7045 16.0221 20.71 15.9941 20.7042C15.966 20.6984 15.9413 20.6818 15.9255 20.6579L15.2988 19.7068C15.291 19.6949 15.2856 19.6815 15.2829 19.6675C15.2803 19.6535 15.2804 19.6391 15.2833 19.6252C15.2862 19.6112 15.2918 19.598 15.2998 19.5862C15.3078 19.5744 15.3181 19.5644 15.33 19.5565C15.3419 19.5487 15.3552 19.5433 15.3692 19.5407C15.3832 19.538 15.3976 19.5381 15.4116 19.541C15.4255 19.5439 15.4388 19.5495 15.4505 19.5575C15.4623 19.5656 15.4724 19.5758 15.4802 19.5877L16.1063 20.5389C16.1182 20.5567 16.1246 20.5776 16.1245 20.599C16.1244 20.6205 16.1178 20.6414 16.1057 20.659ZM16.7536 20.3512C16.7441 20.3648 16.7318 20.3761 16.7175 20.3844C16.6924 20.3983 16.6628 20.4019 16.6351 20.3943C16.6074 20.3867 16.5837 20.3685 16.5693 20.3437L16.1057 19.5282C16.0986 19.5159 16.094 19.5023 16.0921 19.4881C16.0902 19.474 16.0912 19.4597 16.0949 19.4459C16.0986 19.4322 16.105 19.4193 16.1137 19.408C16.1224 19.3967 16.1332 19.3872 16.1456 19.3802C16.1579 19.3731 16.1716 19.3685 16.1857 19.3667C16.1998 19.3649 16.2142 19.3659 16.2279 19.3697C16.2416 19.3734 16.2545 19.3799 16.2658 19.3886C16.277 19.3974 16.2864 19.4082 16.2934 19.4206L16.7581 20.2367C16.7681 20.2543 16.773 20.2744 16.7722 20.2946C16.7714 20.3148 16.7649 20.3344 16.7536 20.3512ZM17.2801 20.1903C17.2692 20.2065 17.2542 20.2193 17.2366 20.2275C17.2105 20.2397 17.1807 20.241 17.1537 20.2312C17.1267 20.2215 17.1046 20.2014 17.0924 20.1755C16.9905 19.9592 16.8767 19.7489 16.7513 19.5454C16.7437 19.5333 16.7386 19.5199 16.7363 19.5058C16.7339 19.4918 16.7344 19.4774 16.7376 19.4636C16.7408 19.4497 16.7468 19.4366 16.7551 19.4251C16.7633 19.4135 16.7738 19.4037 16.7859 19.3962C16.798 19.3887 16.8115 19.3837 16.8255 19.3814C16.8396 19.3791 16.8539 19.3796 16.8678 19.3829C16.8816 19.3862 16.8947 19.3921 16.9062 19.4005C16.9178 19.4088 16.9275 19.4194 16.935 19.4315C17.0652 19.6419 17.1833 19.8595 17.2887 20.0833C17.2968 20.1003 17.3003 20.1192 17.2988 20.138C17.2973 20.1568 17.2908 20.1749 17.2801 20.1903Z" fill="black"/>
<path d="M14.8601 23.0003C14.8535 23.0003 14.847 22.9992 14.8409 22.997C14.7398 22.961 14.6469 22.9051 14.5679 22.8325C14.2613 22.5514 13.9705 22.2535 13.697 21.9402C13.5993 21.8285 13.5348 21.6916 13.511 21.5452C13.4871 21.3987 13.5048 21.2485 13.5619 21.1116C13.7241 20.7196 14.0769 20.136 14.8367 19.5816C15.3207 19.2332 15.878 19.0001 16.4659 18.9001C16.6226 18.8733 16.7838 18.8938 16.9287 18.9591C17.0737 19.0244 17.1959 19.1315 17.2796 19.2666C17.4797 19.5899 17.6559 19.9273 17.8066 20.2763L17.8067 20.2764C17.8395 20.3519 17.8601 20.4322 17.8678 20.5142C17.8687 20.5236 17.8672 20.5332 17.8635 20.5419C17.8597 20.5506 17.8539 20.5583 17.8465 20.5642L17.8322 20.5756C17.8236 20.5824 17.8133 20.5866 17.8025 20.5878C17.7916 20.5889 17.7807 20.5869 17.7709 20.582C17.6927 20.5431 17.6072 20.5209 17.5199 20.5169C17.4325 20.5129 17.3454 20.5273 17.2639 20.559C16.7001 20.7772 15.6561 21.3174 14.9981 22.4847C14.9244 22.616 14.9014 22.7696 14.9332 22.9167C14.9354 22.9269 14.9348 22.9375 14.9314 22.9474C14.928 22.9572 14.9219 22.966 14.9139 22.9727L14.8968 22.987C14.8865 22.9956 14.8735 23.0003 14.8601 23.0003ZM16.601 19.0031C16.5623 19.0031 16.5236 19.0064 16.4853 19.0129C15.9148 19.1098 15.3739 19.336 14.9042 19.674C14.1659 20.2128 13.8243 20.777 13.6677 21.1553C13.6187 21.2726 13.6036 21.4013 13.624 21.5268C13.6445 21.6522 13.6997 21.7695 13.7834 21.8652C14.0541 22.1752 14.3419 22.47 14.6453 22.7481C14.694 22.7929 14.749 22.8304 14.8084 22.8594C14.7934 22.71 14.8248 22.5596 14.8983 22.4286C15.574 21.2301 16.6445 20.676 17.2224 20.4523C17.389 20.3875 17.5733 20.385 17.7415 20.4452C17.7322 20.4029 17.7188 20.3616 17.7017 20.3218C17.5532 19.9781 17.3796 19.6456 17.1825 19.3273C17.1211 19.2283 17.0355 19.1466 16.9337 19.0899C16.832 19.0332 16.7175 19.0033 16.601 19.0031ZM14.6778 22.3721H14.6772C14.6554 22.3721 14.6338 22.3677 14.6137 22.3592C14.5936 22.3508 14.5754 22.3384 14.5601 22.3228L13.7963 21.555C13.7809 21.5396 13.7687 21.5213 13.7604 21.5012C13.7521 21.4811 13.7478 21.4596 13.7478 21.4378C13.7478 21.4161 13.7521 21.3946 13.7605 21.3745C13.7688 21.3544 13.781 21.3361 13.7964 21.3208C13.8276 21.2899 13.8697 21.2726 13.9135 21.2726C13.9574 21.2726 13.9995 21.2899 14.0307 21.3208L14.7948 22.0895C14.8221 22.1166 14.839 22.1524 14.8427 22.1908C14.8463 22.2291 14.8364 22.2674 14.8148 22.2992L14.8145 22.2996C14.7994 22.322 14.779 22.3403 14.7552 22.3529C14.7314 22.3655 14.7048 22.3721 14.6778 22.3721ZM13.9138 21.3869C13.9 21.3869 13.8868 21.3923 13.877 21.402C13.8675 21.4116 13.8623 21.4246 13.8623 21.4381C13.8624 21.4516 13.8678 21.4646 13.8773 21.4742L14.6415 22.2423C14.6462 22.2471 14.6518 22.251 14.658 22.2536C14.6642 22.2563 14.6709 22.2576 14.6776 22.2577H14.6778C14.6845 22.2577 14.6911 22.2563 14.6973 22.2538C14.7035 22.2512 14.7091 22.2475 14.7138 22.2427C14.7161 22.2403 14.7182 22.2377 14.7201 22.2349C14.7267 22.2252 14.7298 22.2134 14.7287 22.2017C14.7276 22.19 14.7224 22.179 14.7141 22.1706L13.9496 21.4016C13.9449 21.3969 13.9393 21.3932 13.9332 21.3907C13.927 21.3881 13.9205 21.3868 13.9138 21.3869ZM14.967 21.8192C14.945 21.8193 14.9232 21.815 14.9028 21.8065C14.8825 21.7981 14.8641 21.7856 14.8486 21.77L14.0444 20.9521C14.0136 20.9208 13.9964 20.8786 13.9967 20.8346C13.997 20.7907 14.0147 20.7487 14.0459 20.7178C14.0771 20.6869 14.1194 20.6696 14.1633 20.6698C14.2072 20.67 14.2493 20.6876 14.2803 20.7187L15.0852 21.538C15.1121 21.5653 15.1286 21.601 15.132 21.6392C15.1354 21.6773 15.1255 21.7154 15.1039 21.747L15.1032 21.748C15.0995 21.7531 15.0955 21.758 15.0915 21.7629C15.0899 21.7649 15.0846 21.7711 15.0829 21.7728C15.0517 21.8027 15.0102 21.8193 14.967 21.8192ZM14.1624 20.7845C14.149 20.7844 14.1362 20.7895 14.1266 20.7988C14.1217 20.8036 14.1178 20.8093 14.1152 20.8156C14.1125 20.8218 14.1111 20.8286 14.1111 20.8354C14.1111 20.8422 14.1124 20.849 14.115 20.8553C14.1176 20.8616 14.1214 20.8673 14.1262 20.8721L14.9301 21.6897C14.9395 21.699 14.9521 21.7045 14.9653 21.7049C14.9786 21.7054 14.9915 21.7008 15.0015 21.6921L15.0032 21.6901C15.0053 21.6875 15.0074 21.685 15.0093 21.6824C15.0159 21.6726 15.0188 21.6609 15.0178 21.6492C15.0167 21.6374 15.0116 21.6264 15.0033 21.618L14.1989 20.7993C14.1892 20.7898 14.1761 20.7844 14.1624 20.7845ZM15.4451 21.2161C15.4215 21.2162 15.3982 21.2111 15.3768 21.2013C15.3554 21.1916 15.3363 21.1772 15.3209 21.1594L14.5628 20.2833C14.5485 20.267 14.5376 20.2479 14.5307 20.2273C14.5238 20.2067 14.521 20.185 14.5226 20.1633C14.5242 20.1416 14.53 20.1205 14.5398 20.1011C14.5495 20.0817 14.5631 20.0644 14.5795 20.0503C14.596 20.036 14.615 20.0251 14.6357 20.0182C14.6563 20.0114 14.6781 20.0086 14.6998 20.0102C14.7215 20.0118 14.7427 20.0176 14.7621 20.0274C14.7816 20.0372 14.7989 20.0507 14.8131 20.0672L15.5713 20.9427C15.5951 20.9703 15.6091 21.005 15.6111 21.0414C15.6132 21.0778 15.6032 21.1139 15.5827 21.144L15.5824 21.1443C15.575 21.1549 15.5667 21.1648 15.5576 21.1739C15.5263 21.201 15.4864 21.2159 15.4451 21.2161ZM14.6877 20.1243C14.678 20.1242 14.6684 20.1269 14.6602 20.1322C14.6519 20.1374 14.6454 20.1449 14.6413 20.1538C14.6372 20.1626 14.6358 20.1725 14.6372 20.1821C14.6386 20.1918 14.6427 20.2009 14.6491 20.2082L15.4076 21.0846C15.4165 21.0948 15.4291 21.1011 15.4427 21.1021C15.4563 21.1031 15.4697 21.0987 15.48 21.0899C15.481 21.0887 15.485 21.084 15.4882 21.0793C15.4945 21.0701 15.4975 21.059 15.4969 21.0478C15.4963 21.0367 15.492 21.026 15.4847 21.0175L14.7265 20.142C14.7221 20.1369 14.7167 20.1327 14.7107 20.1296C14.7047 20.1266 14.6981 20.1248 14.6914 20.1244C14.6902 20.1243 14.689 20.1243 14.6877 20.1243ZM16.0163 20.7637C15.9889 20.7637 15.9619 20.757 15.9377 20.7441C15.9134 20.7312 15.8928 20.7125 15.8775 20.6897L15.2507 19.7383C15.2266 19.7015 15.218 19.6568 15.2269 19.6137C15.2357 19.5707 15.2613 19.533 15.298 19.5088C15.3347 19.4847 15.3795 19.4761 15.4225 19.4849C15.4656 19.4938 15.5033 19.5193 15.5275 19.556L16.1538 20.5074C16.1719 20.5347 16.1815 20.5667 16.1814 20.5994C16.1812 20.6322 16.1713 20.6641 16.1528 20.6911L16.1523 20.692C16.1371 20.714 16.1168 20.732 16.0931 20.7445C16.0694 20.757 16.0431 20.7636 16.0163 20.7637ZM15.3889 19.5965C15.3789 19.5965 15.369 19.5994 15.3605 19.6049C15.3494 19.6124 15.3417 19.6241 15.339 19.6373C15.3364 19.6505 15.339 19.6642 15.3464 19.6754L15.9729 20.6265C15.9776 20.6335 15.984 20.6392 15.9914 20.6432C15.9988 20.6472 16.0071 20.6493 16.0156 20.6493C16.024 20.6493 16.0323 20.6472 16.0398 20.6433C16.0472 20.6393 16.0536 20.6336 16.0583 20.6266C16.0639 20.6183 16.0669 20.6086 16.067 20.5986C16.067 20.5886 16.064 20.5789 16.0584 20.5706L15.4321 19.6192C15.4273 19.6122 15.4209 19.6064 15.4134 19.6024C15.4058 19.5985 15.3975 19.5964 15.3889 19.5965ZM16.664 20.4553C16.6347 20.4554 16.606 20.4478 16.5806 20.4332C16.5552 20.4186 16.5341 20.3977 16.5194 20.3724L16.0557 19.5565C16.0448 19.5376 16.0377 19.5168 16.0349 19.4952C16.0321 19.4736 16.0336 19.4516 16.0393 19.4306C16.045 19.4095 16.0548 19.3898 16.0681 19.3726C16.0814 19.3554 16.098 19.3409 16.117 19.3301C16.1359 19.3194 16.1568 19.3124 16.1784 19.3097C16.2 19.307 16.222 19.3086 16.243 19.3144C16.264 19.3202 16.2836 19.3302 16.3008 19.3436C16.318 19.357 16.3323 19.3737 16.343 19.3927L16.8075 20.2084C16.8227 20.2353 16.8302 20.2659 16.829 20.2967C16.8277 20.3276 16.8179 20.3575 16.8007 20.3831L16.8002 20.3838C16.7851 20.406 16.7648 20.4241 16.741 20.4365C16.7173 20.449 16.6908 20.4554 16.664 20.4553ZM16.199 19.4229C16.1901 19.423 16.1813 19.4254 16.1735 19.4299C16.1658 19.4344 16.1594 19.4408 16.1549 19.4486C16.1504 19.4564 16.1481 19.4652 16.1481 19.4742C16.1481 19.4831 16.1505 19.4919 16.155 19.4997L16.6187 20.3155C16.6257 20.3272 16.6369 20.3357 16.6501 20.3393C16.6633 20.3428 16.6773 20.3411 16.6892 20.3345C16.6958 20.3305 16.7015 20.3252 16.706 20.3189C16.7113 20.311 16.7143 20.3019 16.7147 20.2924C16.7151 20.283 16.7129 20.2736 16.7083 20.2654L16.2434 19.449C16.2389 19.4411 16.2325 19.4345 16.2247 19.43C16.2169 19.4254 16.2081 19.423 16.199 19.4229ZM17.1906 20.2953C17.1592 20.2952 17.1284 20.2862 17.1018 20.2694C17.0752 20.2526 17.0539 20.2286 17.0404 20.2002C16.9395 19.9857 16.8266 19.7771 16.7022 19.5754C16.6907 19.5569 16.6829 19.5364 16.6794 19.5149C16.6758 19.4935 16.6766 19.4715 16.6815 19.4504C16.6865 19.4292 16.6955 19.4092 16.7082 19.3915C16.7209 19.3739 16.737 19.3589 16.7554 19.3474C16.7739 19.336 16.7945 19.3283 16.816 19.3248C16.8374 19.3213 16.8594 19.3221 16.8805 19.3271C16.9017 19.3321 16.9217 19.3413 16.9393 19.354C16.9569 19.3668 16.9718 19.3828 16.9832 19.4014C17.1147 19.6136 17.2339 19.8332 17.3401 20.059C17.3519 20.0843 17.3571 20.1121 17.3553 20.1398C17.3535 20.1676 17.3448 20.1945 17.3299 20.218C17.315 20.2415 17.2945 20.2609 17.2702 20.2744C17.2458 20.2879 17.2185 20.2951 17.1906 20.2953ZM16.8431 19.4372C16.833 19.4374 16.8232 19.4405 16.8149 19.4461C16.8038 19.4533 16.7959 19.4646 16.793 19.4775C16.7901 19.4904 16.7925 19.504 16.7995 19.5152C16.9262 19.7206 17.0412 19.9329 17.1439 20.1513C17.1496 20.1635 17.1599 20.1729 17.1726 20.1775C17.1853 20.1821 17.1993 20.1816 17.2115 20.1759C17.2199 20.1722 17.227 20.1662 17.2321 20.1586L17.2325 20.1581C17.2376 20.1509 17.2407 20.1424 17.2414 20.1336C17.2422 20.1248 17.2405 20.1159 17.2366 20.1079C17.1322 19.886 17.0152 19.6703 16.886 19.4617C16.8816 19.4543 16.8753 19.4482 16.8678 19.4439C16.8602 19.4396 16.8517 19.4373 16.8431 19.4372Z" fill="black"/>
</svg>
