<svg width="31" height="27" viewBox="0 0 31 27" fill="none" xmlns="http://www.w3.org/2000/svg">
<path d="M29.8637 16.0881C29.5225 15.6328 29.3121 15.093 29.2553 14.5269L29.1823 13.7944L30.2176 11.8494C30.3894 11.5268 30.4747 11.1652 30.4653 10.7998C30.4559 10.4344 30.352 10.0777 30.1639 9.76437C29.9757 9.45102 29.7096 9.19171 29.3915 9.01169C29.0735 8.83167 28.7142 8.73706 28.3487 8.73707H27.1444L26.6178 8.15661C26.3855 7.9008 26.1974 7.60805 26.0613 7.29039C25.7583 6.58404 25.2167 5.32261 24.9029 4.59473C24.7286 4.19306 24.4621 3.83817 24.1248 3.55886C24.1184 3.55329 24.1118 3.54765 24.105 3.54226C23.7394 3.24169 23.3026 3.04034 22.8367 2.9576C22.3707 2.87487 21.8913 2.91354 21.4446 3.06989C21.4218 3.07825 21.3986 3.08661 21.3734 3.09521C20.8752 3.27188 20.4434 3.59786 20.1371 4.02875C19.8308 4.45965 19.6648 4.9745 19.6616 5.50317L19.6574 6.60159H15.3286L15.4249 5.88214C15.483 5.88682 15.5414 5.89002 15.6001 5.89002C15.9118 5.88958 16.2106 5.76554 16.4309 5.5451C16.6512 5.32466 16.7751 5.02582 16.7754 4.71415V2.80412C17.0308 2.79187 17.2718 2.68187 17.4484 2.49689C17.625 2.31191 17.7237 2.0661 17.7241 1.81035C17.724 1.65577 17.6809 1.50427 17.5996 1.37283C17.5182 1.24138 17.4019 1.13518 17.2636 1.06611C17.1941 1.03117 17.1379 0.974579 17.1035 0.904881L17.0054 0.70742C16.9004 0.494898 16.7381 0.316003 16.5367 0.190982C16.3353 0.0659609 16.1029 -0.000195447 15.8659 4.33722e-07H15.841C15.4404 0.0039798 15.0518 0.137766 14.7337 0.381283C14.6136 0.472825 14.4794 0.544204 14.3364 0.59262C14.1937 0.641013 14.0439 0.665613 13.8932 0.665437C13.5882 0.665594 13.2957 0.786864 13.0801 1.00258C12.8645 1.2183 12.7434 1.51081 12.7434 1.81581V3.75294C12.7428 3.92074 12.7869 4.08567 12.871 4.23085C12.9552 4.37602 13.0764 4.49622 13.2223 4.57913L12.9506 6.60159H7.68698C7.09232 6.60042 6.5088 6.76282 6.00024 7.07103C5.49169 7.37924 5.0777 7.82139 4.80358 8.34909L0.559653 16.4835C0.304243 16.9768 0.216183 17.5397 0.308762 18.0873C0.40134 18.635 0.669534 19.1377 1.07287 19.5196L1.8384 20.24C1.67853 20.5696 1.62807 20.9416 1.69437 21.3018C1.76068 21.6621 1.94029 21.9918 2.20702 22.2428C2.47376 22.4939 2.8137 22.6532 3.1773 22.6975C3.5409 22.7419 3.90917 22.669 4.22845 22.4895L5.36489 23.5593L4.91838 26.7297C4.9096 26.7919 4.9259 26.8551 4.96371 26.9054C5.00151 26.9556 5.05773 26.9888 5.11999 26.9976C5.13105 26.9992 5.1422 27 5.15337 27C5.21051 26.9999 5.26569 26.9792 5.30879 26.9417C5.35189 26.9042 5.38 26.8524 5.38795 26.7958L5.78774 23.9574L6.29544 24.4353L5.61441 26.6945C5.60542 26.7243 5.6024 26.7556 5.60551 26.7866C5.60862 26.8176 5.61781 26.8477 5.63254 26.8751C5.64728 26.9026 5.66727 26.9268 5.69139 26.9466C5.7155 26.9663 5.74327 26.9811 5.77309 26.99C5.79193 26.9956 5.8114 26.9987 5.83102 26.9994C5.83102 26.9994 15.3445 26.9998 15.3524 26.9989C15.415 26.9927 15.4726 26.9619 15.5125 26.9133C15.5524 26.8647 15.5713 26.8022 15.5651 26.7396L15.1003 22.0259L15.2142 21.2987H16.5531L15.8291 26.7314C15.825 26.7623 15.827 26.7937 15.835 26.8238C15.8431 26.8539 15.8569 26.8821 15.8758 26.9069C15.8948 26.9316 15.9184 26.9524 15.9453 26.968C15.9723 26.9836 16.002 26.9938 16.0329 26.9979C16.0638 27.002 16.0952 27 16.1253 26.9919C16.1554 26.9839 16.1836 26.9701 16.2083 26.9511C16.2331 26.9322 16.2539 26.9086 16.2695 26.8817C16.2851 26.8547 16.2952 26.8249 16.2993 26.7941L17.0027 21.5191L17.0885 21.7266C17.2441 22.1 17.484 22.4324 17.7894 22.6976C18.0948 22.9629 18.4575 23.1538 18.849 23.2555L25.4452 24.9538C25.5156 24.9721 25.5881 24.9813 25.6609 24.9814C25.7777 24.9807 25.8931 24.956 25.9999 24.9087C26.1068 24.8615 26.2028 24.7928 26.2819 24.7069C26.3611 24.621 26.4217 24.5197 26.46 24.4094C26.4983 24.299 26.5135 24.182 26.5047 24.0655L26.4127 22.8721C26.4003 22.7025 26.337 22.5405 26.2311 22.4073C26.1252 22.2742 25.9816 22.176 25.8191 22.1257H25.8188C25.9102 22.0444 25.9713 21.9345 25.9922 21.814C26.0131 21.6934 25.9926 21.5694 25.9339 21.462C25.8752 21.3547 25.7819 21.2704 25.6691 21.2229C25.5564 21.1755 25.4309 21.1676 25.3131 21.2006L24.2536 21.4981L23.5377 21.2965C24.0497 21.2786 24.548 21.1261 24.9823 20.8544C25.4167 20.5827 25.7719 20.2014 26.012 19.7489L27.4246 17.0958L26.4315 21.8861C26.4232 21.9261 26.4254 21.9677 26.4379 22.0067L27.9874 26.8353C27.9969 26.8649 28.0122 26.8924 28.0323 26.9162C28.0525 26.9399 28.0771 26.9595 28.1048 26.9737C28.1325 26.988 28.1627 26.9966 28.1938 26.9991C28.2248 27.0017 28.2561 26.9981 28.2857 26.9886C28.3154 26.9791 28.3429 26.9638 28.3666 26.9436C28.3904 26.9235 28.4099 26.8989 28.4242 26.8712C28.4384 26.8435 28.447 26.8132 28.4496 26.7822C28.4521 26.7511 28.4486 26.7199 28.439 26.6902L27.3703 23.3598C28.1705 23.0035 28.8698 22.4543 29.4056 21.7614C29.9415 21.0685 30.2972 20.2536 30.4408 19.3895L30.5332 18.8348C30.6132 18.3555 30.595 17.8649 30.4799 17.3928C30.3648 16.9207 30.1551 16.4768 29.8635 16.0881H29.8637ZM21.1985 5.21462C21.1986 5.08781 21.241 4.96465 21.319 4.86467C21.397 4.76469 21.5061 4.69363 21.6291 4.66274C21.7711 4.93329 21.9739 5.16725 22.2215 5.34624C22.4691 5.52523 22.7548 5.64438 23.0562 5.69434C23.0666 5.69625 23.0772 5.69744 23.0877 5.6979C23.0976 5.69851 23.1075 5.69837 23.1174 5.69748C23.141 5.6957 23.1642 5.69034 23.1863 5.68159C23.2379 5.66267 23.2926 5.65304 23.3476 5.65313C23.4701 5.65533 23.5869 5.70484 23.6737 5.79127C23.7606 5.8777 23.8106 5.99437 23.8133 6.11684C23.816 6.23931 23.7713 6.35809 23.6884 6.44832C23.6056 6.53854 23.491 6.59321 23.3687 6.60088C23.3075 6.60338 23.2496 6.62947 23.2072 6.67368C23.1648 6.71789 23.1412 6.7768 23.1412 6.83807V8.89611L22.0045 10.4123V8.12281C22.1469 8.10452 22.2867 8.06964 22.421 8.01886C22.4798 7.99663 22.5275 7.95192 22.5534 7.89458C22.5792 7.83723 22.5813 7.77195 22.5591 7.7131C22.5368 7.65424 22.4921 7.60663 22.4348 7.58073C22.3774 7.55484 22.3122 7.55278 22.2533 7.57502C22.0979 7.63375 21.9332 7.66373 21.7671 7.66349C21.6163 7.66334 21.4717 7.60337 21.3651 7.49676C21.2585 7.39015 21.1985 7.2456 21.1984 7.09483L21.1985 5.21462ZM19.7368 9.21187H21.53V11.1236C21.53 11.1734 21.5456 11.2219 21.5748 11.2623C21.6039 11.3027 21.6449 11.3329 21.6922 11.3486C21.7394 11.3644 21.7904 11.3649 21.8379 11.35C21.8854 11.3352 21.9271 11.3058 21.9569 11.2659L23.4969 9.21187H27.0126C26.7935 9.3901 26.6122 9.61039 26.4794 9.85975L22.6441 17.0638H18.5432L17.755 15.3658C17.7154 15.2806 17.6698 15.1984 17.6186 15.1196L17.7881 13.8485C18.014 12.1572 18.6867 10.5567 19.7368 9.21187ZM7.59269 18.3888L7.40134 19.6127L6.96224 19.1994L7.59269 18.3888ZM6.01657 15.294L6.7142 13.9812L6.6128 14.7012C6.44535 14.8246 6.29331 14.9677 6.15995 15.1274L6.01657 15.294ZM7.13397 14.4026L7.27136 13.4265C7.50538 13.6721 7.7942 13.8587 8.1142 13.9713C8.4342 14.0838 8.7763 14.119 9.1125 14.074C9.44871 14.0289 9.76949 13.9049 10.0486 13.7122C10.3277 13.5194 10.5572 13.2632 10.7183 12.9648L11.2238 12.0274L11.4404 12.5782C11.4501 12.7168 11.5003 12.8494 11.5848 12.9597L11.4309 14.1944L8.16136 14.1917C7.80815 14.1917 7.45862 14.2635 7.13397 14.4026ZM11.9912 12.7033C11.9667 12.6814 11.947 12.6545 11.9335 12.6245C11.9201 12.5945 11.9131 12.5619 11.9131 12.529C11.9135 12.4667 11.9385 12.4071 11.9826 12.3631C12.0267 12.3192 12.0865 12.2944 12.1488 12.2942H12.1496C12.1904 12.294 12.2305 12.3043 12.2662 12.324C12.3018 12.3437 12.3318 12.3722 12.3533 12.4069C12.3718 12.4365 12.3965 12.4616 12.4257 12.4806C12.455 12.4995 12.4881 12.5118 12.5226 12.5165C12.5571 12.5212 12.5923 12.5182 12.6256 12.5078C12.6588 12.4974 12.6894 12.4798 12.7151 12.4562C12.889 12.2962 13.0113 12.0879 13.0664 11.858L13.4808 11.9292C13.5114 11.9343 13.5423 11.9378 13.5734 11.9398V13.0338C13.5732 13.1522 13.5262 13.2656 13.4425 13.3492C13.3588 13.4329 13.2454 13.48 13.1271 13.4801C13.0282 13.4803 12.9304 13.4606 12.8393 13.4221C12.7814 13.3975 12.7161 13.397 12.6578 13.4207C12.5995 13.4443 12.553 13.4901 12.5284 13.5481C12.5039 13.606 12.5034 13.6713 12.5271 13.7296C12.5507 13.7879 12.5965 13.8344 12.6545 13.859C12.661 13.8617 12.6677 13.8636 12.6743 13.8662L12.6312 14.1954L11.9089 14.1948L12.069 12.9099C12.0738 12.8717 12.0692 12.833 12.0556 12.797C12.0421 12.761 12.02 12.7289 11.9912 12.7033ZM16.5334 14.2936L16.9632 11.1122C17.0359 10.5866 17.2958 10.105 17.6953 9.75585C18.0947 9.40671 18.6068 9.21353 19.1373 9.21187H19.1449C18.1659 10.5613 17.538 12.133 17.3178 13.7855L17.2017 14.6559C17.0037 14.4941 16.7769 14.3711 16.5333 14.2935L16.5334 14.2936ZM13.2177 3.75294C13.2173 3.62951 13.265 3.51078 13.3507 3.42196C13.4364 3.33315 13.5534 3.28124 13.6767 3.27726C13.6796 3.27726 13.6818 3.27726 13.6847 3.27684H13.6944C13.7973 3.27723 13.8974 3.31079 13.9798 3.37254C14.0621 3.43429 14.1224 3.52094 14.1516 3.61964C14.1619 3.65494 14.1803 3.68735 14.2053 3.71433C14.2302 3.74131 14.2611 3.76211 14.2955 3.77509C14.33 3.78807 14.3669 3.79287 14.4035 3.78912C14.4401 3.78537 14.4753 3.77317 14.5063 3.75347C14.8606 3.52923 15.1336 3.19736 15.2854 2.80655H16.3011V4.71415C16.301 4.90005 16.2271 5.07831 16.0957 5.20982C15.9643 5.34132 15.7861 5.41534 15.6002 5.41564C15.4571 5.41581 15.3146 5.39766 15.1761 5.36162C15.0425 5.32674 14.9139 5.27519 14.7931 5.20816C14.7659 5.19306 14.7359 5.18348 14.705 5.17996C14.674 5.17644 14.6427 5.17905 14.6127 5.18765C14.5828 5.19624 14.5548 5.21065 14.5304 5.23005C14.506 5.24946 14.4857 5.27347 14.4706 5.30072C14.4555 5.32798 14.4459 5.35794 14.4424 5.3889C14.4389 5.41986 14.4415 5.45121 14.4501 5.48115C14.4587 5.5111 14.4731 5.53907 14.4925 5.56345C14.5119 5.58783 14.5359 5.60815 14.5632 5.62324C14.6889 5.69266 14.8213 5.74916 14.9585 5.79189L14.7427 7.40537C14.72 7.59041 14.6249 7.7589 14.4782 7.87394C14.3315 7.98899 14.1452 8.0412 13.9601 8.01915C13.775 7.9971 13.6062 7.90257 13.4906 7.75629C13.3751 7.61 13.3222 7.42388 13.3436 7.23869L13.716 4.46593C13.7234 4.41049 13.711 4.3542 13.681 4.30701C13.6509 4.25982 13.6052 4.22477 13.5518 4.20805C13.4547 4.178 13.3698 4.11755 13.3096 4.03562C13.2495 3.95368 13.2172 3.85459 13.2177 3.75294ZM5.22435 8.56855C5.45849 8.11786 5.81206 7.74023 6.2464 7.47699C6.68073 7.21374 7.1791 7.07501 7.68698 7.07597H12.8868L12.8731 7.17844C12.8543 7.3321 12.8659 7.48797 12.9073 7.63713C12.9487 7.7863 13.0191 7.92585 13.1145 8.04781C13.307 8.29412 13.5896 8.45385 13.8999 8.49185C14.2102 8.52985 14.523 8.44302 14.7693 8.25045C15.0156 8.05789 15.1753 7.77536 15.2133 7.46502L15.2653 7.07597H19.6556L19.6494 8.73749H19.1373C18.4921 8.73954 17.8693 8.97452 17.3834 9.3992C16.8976 9.82389 16.5815 10.4097 16.4933 11.0489L16.067 14.2035C16.0205 14.2003 15.9738 14.1984 15.9268 14.1984L13.1098 14.196L13.1415 13.954C13.3831 13.9501 13.6134 13.8514 13.783 13.6794C13.9525 13.5073 14.0477 13.2755 14.0481 13.034V11.8381C14.2239 11.745 14.3636 11.5957 14.4448 11.4141C14.526 11.2324 14.544 11.0288 14.4961 10.8356C14.4481 10.6425 14.3368 10.471 14.18 10.3485C14.0233 10.2259 13.83 10.1594 13.631 10.1594H11.6866C11.2525 10.1602 10.831 10.3057 10.4888 10.5729L7.32378 13.0543L7.557 11.3981C7.56577 11.3358 7.54944 11.2726 7.5116 11.2223C7.47376 11.1721 7.4175 11.1389 7.35521 11.1301C7.29291 11.1214 7.22969 11.1377 7.17943 11.1755C7.12918 11.2134 7.09602 11.2696 7.08724 11.3319L6.90787 12.6059L5.98698 14.3389L2.96559 12.8976L5.22435 8.56855ZM2.51374 21.8755C2.34706 21.7112 2.22996 21.5034 2.17586 21.2757C2.12175 21.048 2.13281 20.8096 2.20777 20.5879L3.85938 22.1424C3.63363 22.2348 3.38569 22.2588 3.14643 22.2113C2.90716 22.1638 2.68714 22.0471 2.51374 21.8755ZM10.5076 22.451L10.3166 22.5032C10.2576 22.518 10.2062 22.5542 10.1723 22.6047C10.142 22.6514 10.1291 22.7073 10.1358 22.7625C10.1425 22.8178 10.1683 22.869 10.2089 22.9071L11.1636 23.8051C11.2094 23.8483 11.2363 23.9079 11.2382 23.9708C11.2401 24.0337 11.217 24.0949 11.1739 24.1407L9.22296 26.2135C9.17975 26.2593 9.12019 26.286 9.0573 26.288C8.99441 26.2899 8.93332 26.2668 8.8874 26.2238L1.39806 19.1743C1.0697 18.8635 0.851348 18.4543 0.775979 18.0085C0.700609 17.5627 0.772307 17.1045 0.98025 16.703L2.74601 13.3184L5.76426 14.7581L4.44459 17.2415C4.42018 17.2875 4.41155 17.3401 4.42002 17.3915C4.4285 17.4428 4.45361 17.4899 4.49149 17.5256L9.15281 21.9545C9.17933 21.9795 9.21128 21.998 9.24615 22.0087C9.28102 22.0193 9.31787 22.0217 9.35383 22.0157L10.3758 21.8474C10.4338 21.8379 10.4932 21.845 10.5473 21.868C10.6013 21.891 10.6477 21.9289 10.681 21.9773C10.709 22.018 10.7268 22.0648 10.733 22.1138C10.7392 22.1628 10.7336 22.2125 10.7166 22.2589C10.6996 22.3053 10.6718 22.347 10.6354 22.3804C10.5991 22.4138 10.5552 22.438 10.5076 22.451ZM24.1892 21.9728C24.2312 21.9845 24.2756 21.9845 24.3176 21.9728L25.4412 21.6572C25.4512 21.6545 25.4616 21.654 25.4718 21.656C25.4819 21.6579 25.4914 21.6622 25.4996 21.6685C25.5078 21.6747 25.5145 21.6828 25.519 21.6921C25.5235 21.7014 25.5259 21.7115 25.5258 21.7219C25.5259 21.7312 25.5239 21.7404 25.5201 21.7489C25.5162 21.7574 25.5105 21.765 25.5035 21.771L25.1898 22.0497C25.1584 22.0776 25.135 22.1134 25.1219 22.1533C25.1088 22.1932 25.1066 22.2359 25.1155 22.2769C25.1243 22.318 25.1439 22.3559 25.1722 22.387C25.2005 22.418 25.2365 22.4409 25.2766 22.4534L25.6769 22.5784C25.7487 22.6007 25.8122 22.6441 25.859 22.7029C25.9059 22.7618 25.9338 22.8334 25.9393 22.9084L26.0313 24.1019C26.0358 24.1615 26.0261 24.2213 26.003 24.2763C25.9798 24.3314 25.9439 24.3801 25.8981 24.4185C25.8523 24.4569 25.7981 24.4838 25.7398 24.4971C25.6815 24.5103 25.621 24.5094 25.5631 24.4945L18.9668 22.7962C18.6465 22.713 18.3497 22.5568 18.0998 22.3398C17.85 22.1228 17.6537 21.8509 17.5265 21.5453L17.4242 21.2985H21.7934L24.1892 21.9728ZM14.5771 16.6826L14.8597 17.3891C14.8773 17.4331 14.9077 17.4708 14.9469 17.4974C14.9862 17.524 15.0325 17.5382 15.0799 17.5382H22.7867C22.8298 17.5382 22.872 17.5265 22.9089 17.5043C22.9457 17.4822 22.9759 17.4504 22.9961 17.4124L26.8808 10.1159C27.0199 9.84832 27.2285 9.62318 27.4847 9.46411C27.7408 9.30504 28.0351 9.21791 28.3366 9.21187C28.6163 9.20853 28.8922 9.27726 29.1376 9.41143C29.3831 9.5456 29.5899 9.74069 29.7381 9.97793C29.8924 10.2303 29.9776 10.5188 29.9849 10.8145C29.9923 11.1103 29.9216 11.4027 29.78 11.6624L25.5933 19.5261C25.3846 19.9181 25.0732 20.246 24.6924 20.4746C24.3117 20.7033 23.8759 20.8241 23.4318 20.8241H12.0977C12.0181 20.8241 11.9418 20.7925 11.8856 20.7362C11.8293 20.68 11.7977 20.6037 11.7977 20.5241V17.8379C11.7977 17.7584 11.8293 17.6821 11.8856 17.6259C11.9418 17.5696 12.0181 17.538 12.0976 17.538H13.7003C13.7554 17.5391 13.8093 17.5219 13.8535 17.4892C13.8946 17.4577 13.9243 17.4136 13.938 17.3637C13.9517 17.3138 13.9487 17.2608 13.9295 17.2127L13.836 16.979C13.8148 16.9261 13.8052 16.8692 13.8078 16.8122C13.8105 16.7552 13.8253 16.6995 13.8513 16.6487C13.8773 16.598 13.9139 16.5534 13.9586 16.5179C14.0033 16.4825 14.055 16.4571 14.1104 16.4433C14.204 16.4201 14.3029 16.4315 14.3887 16.4755C14.4746 16.5195 14.5416 16.5931 14.5773 16.6826H14.5771Z" fill="black"/>
</svg>
